<svg width="142" height="31" viewBox="0 0 142 31" fill="none" xmlns="http://www.w3.org/2000/svg">
<path d="M24.1814 9.99699C19.2484 13.548 19.7524 19.689 24.7454 22.303C23.8546 25.0441 22.2699 27.5082 20.1454 29.456C19.6185 29.9251 18.9593 30.2196 18.2584 30.2991C17.5574 30.3786 16.849 30.2392 16.2304 29.9C15.2074 29.3672 14.0707 29.0897 12.9173 29.0913C11.7639 29.0928 10.628 29.3734 9.60642 29.909C8.98824 30.2455 8.27931 30.3774 7.58147 30.2858C6.88363 30.1941 6.23278 29.8837 5.72242 29.399C1.67742 25.77 -1.15458 18.513 0.462425 13.082C1.39642 9.94699 3.44042 7.86899 6.72642 7.41899C7.99051 7.30694 9.26253 7.51321 10.4264 8.01899C11.1007 8.32573 11.8335 8.48228 12.5743 8.47779C13.315 8.4733 14.0459 8.30789 14.7164 7.99299C15.9667 7.36691 17.3687 7.10762 18.7602 7.24512C20.1517 7.38263 21.4759 7.91131 22.5794 8.76999C23.1014 9.16099 23.6154 9.56199 24.1794 9.99499" fill="black"/>
<path d="M29.4664 7.63709C30.8954 7.63709 32.3454 7.60009 33.7894 7.67509C34.0184 7.68709 34.3434 8.17508 34.4194 8.49008C35.5194 13.0621 36.5864 17.6421 37.6644 22.2201C37.7364 22.5251 37.8344 22.8201 38.0074 23.4291C39.2624 18.4151 40.4784 13.7291 41.5834 9.01808C41.8364 7.93708 42.1944 7.45509 43.3574 7.60909C44.4304 7.75109 45.8074 7.33709 46.5294 7.87109C47.1964 8.36509 47.1914 9.78809 47.4464 10.8101C48.3654 14.4881 49.2694 18.1701 50.1824 21.8491C50.2724 22.3186 50.4745 22.7594 50.7714 23.1341C51.6668 19.2454 52.5621 15.3568 53.4574 11.4681C53.6944 10.4381 53.8884 9.39509 54.1874 8.38309C54.2754 8.08309 54.6494 7.67509 54.9104 7.66109C56.2874 7.58909 57.6704 7.62709 59.2104 7.62709C59.1004 8.18309 59.0404 8.62709 58.9214 9.06209C57.1024 15.6301 55.2584 22.1911 53.4694 28.7671C53.2374 29.6181 52.9134 29.9861 51.9944 29.9001C50.8384 29.7921 49.3474 30.2451 48.5944 29.6741C47.8414 29.1031 47.8144 27.5741 47.5094 26.4561C46.4754 22.6561 45.4604 18.8561 44.2324 15.0141C44.0984 15.4371 43.9474 15.8561 43.8324 16.2851C42.7154 20.4401 41.5844 24.5911 40.5054 28.7561C40.2894 29.5891 39.9744 30.0001 39.0354 29.9021C38.0964 29.8041 37.1354 29.9271 36.1924 29.8531C36.0155 29.8308 35.8463 29.7672 35.6985 29.6675C35.5507 29.5678 35.4284 29.4347 35.3414 29.2791C33.3414 22.1918 31.3711 15.0968 29.4304 7.99409C29.4282 7.87435 29.4406 7.7548 29.4674 7.63809" fill="black"/>
<path d="M141.444 29.8291H136.879V20.4771H127.791V29.7971H123.191V7.71508H127.704V16.4501H136.821V7.70508H141.446L141.444 29.8291Z" fill="black"/>
<path d="M59.5454 29.876C60.2994 27.532 61.0104 25.321 61.7234 23.111C63.2884 18.255 64.8694 13.404 66.4034 8.53898C66.4247 8.3895 66.4762 8.24594 66.555 8.11712C66.6337 7.98829 66.7379 7.87692 66.8613 7.78983C66.9846 7.70274 67.1244 7.64177 67.2722 7.61067C67.4199 7.57958 67.5725 7.579 67.7204 7.60898C68.9574 7.67398 70.2034 7.57998 71.4404 7.65198C71.6336 7.67397 71.819 7.74086 71.9817 7.8473C72.1444 7.95374 72.2799 8.09678 72.3774 8.26498C74.6914 15.365 76.9604 22.483 79.2344 29.597C79.2444 29.628 79.2234 29.668 79.1854 29.87C77.7494 29.87 76.2754 29.894 74.8044 29.842C74.6044 29.835 74.3044 29.481 74.2274 29.232C73.8044 27.875 73.4104 26.508 73.0604 25.132C72.9114 24.546 72.6694 24.288 72.0224 24.303C70.1984 24.345 68.3724 24.338 66.5484 24.303C66.434 24.2845 66.317 24.2894 66.2044 24.3174C66.0919 24.3453 65.9862 24.3958 65.8937 24.4656C65.8012 24.5355 65.7239 24.6234 65.6662 24.724C65.6086 24.8246 65.5719 24.9358 65.5584 25.051C65.2064 26.39 64.7884 27.712 64.4354 29.051C64.2874 29.615 64.0684 29.921 63.4054 29.892C62.1724 29.838 60.9344 29.876 59.5454 29.876ZM69.4204 12.358L69.2204 12.339L66.7824 20.812H71.8444L69.4214 12.358" fill="black"/>
<path d="M114.226 22.2899H118.126C118.661 24.7659 116.968 27.9239 114.299 29.1779C112.757 29.9484 111.052 30.3375 109.328 30.3124C107.604 30.2874 105.912 29.8489 104.392 29.0339C103.432 28.5297 102.595 27.8193 101.942 26.9536C101.288 26.088 100.834 25.0886 100.612 24.0269C99.7608 20.6153 99.7543 17.0475 100.593 13.6329C100.989 11.9054 101.937 10.354 103.294 9.21422C104.651 8.07448 106.343 7.40868 108.112 7.3179C111.899 6.9999 115.256 7.8259 117.338 11.3939C118.059 12.5617 118.37 13.9358 118.223 15.2999H113.974C113.911 15.1459 113.861 14.9866 113.825 14.8239C113.388 11.6819 110.83 10.8099 108.225 11.3159C107.478 11.4505 106.789 11.8098 106.25 12.3457C105.712 12.8816 105.35 13.5689 105.211 14.3159C104.479 17.2687 104.484 20.3564 105.225 23.3069C106.014 26.3189 110.39 27.4959 112.635 25.3069C113.312 24.3848 113.85 23.3696 114.235 22.2929" fill="black"/>
<path d="M79.3474 7.67896H97.0154V11.42H90.5374V29.775H85.9254V11.535H79.3474V7.67896Z" fill="black"/>
<path d="M12.4374 6.81C11.9734 3.565 15.0824 0.034 18.3554 0C19.0414 3.279 15.7454 7.113 12.4384 6.81" fill="black"/>
</svg>
