<svg width="601" height="101" viewBox="0 0 601 101" fill="none" xmlns="http://www.w3.org/2000/svg">
<path d="M152 97H162.3V0.700012H152V97ZM176.1 55.7H210.5V45.4H176.1V55.7ZM220.7 97H231V0.700012H220.7V97ZM495.5 0.700012V97H505.8V0.700012H495.5ZM534.6 1H518.8V12.8H534.6C546.4 12.8 556.1 22.7 556.1 34.9C556.1 47.1 546.5 57 534.6 57H518.8V68.8H534.6C552.8 68.8 567.5 53.6 567.5 34.9C567.5 16.2 552.7 1 534.6 1ZM304.8 88.7C284.5 88.7 267.9 71.7 267.9 50.7C267.9 29.8 284.4 12.7 304.8 12.7C325.1 12.7 341.7 29.7 341.7 50.7C341.7 71.6 325.1 88.7 304.8 88.7ZM304.8 1C278.2 1 256.5 23.3 256.5 50.7C256.5 78.1 278.2 100.4 304.8 100.4C331.4 100.4 353.1 78.1 353.1 50.7C353.1 23.3 331.4 1 304.8 1ZM422 88.7C401.7 88.7 385.1 71.7 385.1 50.7C385.1 29.8 401.6 12.7 422 12.7C442.3 12.7 458.9 29.7 458.9 50.7C458.9 71.6 442.4 88.7 422 88.7ZM422 1C395.4 1 373.7 23.3 373.7 50.7C373.7 78.1 395.4 100.4 422 100.4C448.6 100.4 470.3 78.1 470.3 50.7C470.3 23.3 448.6 1 422 1ZM94.7 81.1L82.2 38.6H70.7L89 100.4H100.5L129.9 1H118.5L94.7 81.1ZM12.3 1H0.900024L19.2 62.8H30.7L12.3 1ZM59.6 1L30.2 100.4H41.6L71.1 1H59.6ZM595 9.39999L591.7 1H589.1V13.3H590.9V4.20001L594.5 13.2V13.3H595.1L598.8 4.20001V13.4H600.6V1H598L595 9.39999ZM581.7 13.3H583.5V2.79999H586.8V1H578.4V2.79999H581.7V13.3Z" fill="white"/>
</svg>
