<?xml version="1.0" encoding="UTF-8"?><svg id="Layer_2" xmlns="http://www.w3.org/2000/svg" viewBox="0 0 863.62 269.72"><defs><style>.cls-1{fill:#fff;}</style></defs><g id="Layer_1-2"><g><path class="cls-1" d="M110.7,47.69c61.23,.28,110.72,50.16,110.37,111.22-.36,61.76-50.03,110.94-111.72,110.6C48.71,269.18-.31,219,0,157.57,.31,96.99,50.26,47.42,110.7,47.69Zm-.28,197.76c47.56,.11,86.56-38.97,86.6-86.78,.04-47.87-38.72-86.8-86.46-86.86-47.5-.06-86.27,38.75-86.5,86.6-.23,47.62,38.77,86.92,86.37,87.04Z"/><path class="cls-1" d="M459.58,51.78c1.11,0,2.02,0,2.93,0,32.4,0,64.79,.02,97.19,0,13.42-.01,26.38,2.19,38.35,8.46,16.64,8.71,27.06,22.16,30.23,40.89,2.81,16.63-.07,32.12-9.6,46.12-7.35,10.81-17.54,18.03-29.84,22.36-1.33,.47-2.69,.83-4.36,1.34,17.31,31.44,34.55,62.75,51.98,94.4-1.13,.07-1.9,.17-2.68,.17-6.66,.01-13.33-.07-19.99,.05-1.85,.03-2.77-.57-3.63-2.18-15.81-29.32-31.7-58.59-47.51-87.91-.94-1.74-1.98-2.41-4.02-2.41-24.32,.08-48.64,.05-72.96,.05-.83,0-1.65,0-2.76,0v92.23h-23.34V51.78Zm23.4,20.68v79.19c.82,.05,1.48,.12,2.13,.12,24.97,0,49.94,.05,74.91-.05,4.21-.02,8.49-.37,12.62-1.17,9.63-1.85,18.14-5.99,24.58-13.64,6.96-8.27,9.42-17.94,8.48-28.57-1.06-11.92-6.58-21.28-16.53-27.92-9.36-6.24-19.97-7.92-30.95-7.94-24.14-.05-48.27-.01-72.41-.01h-2.83Z"/><path class="cls-1" d="M241.65,51.87h23.9v3.41c0,39.27-.21,78.53,.09,117.8,.15,19.64,6.35,37.32,20.56,51.44,11.47,11.39,25.57,17.7,41.52,20,13.44,1.94,26.57,.75,39.28-4.06,17.09-6.46,29.39-18.18,37.25-34.57,5.61-11.7,7.57-24.17,7.56-37.05-.03-37.85,0-75.7,0-113.56v-3.34h23.88c.05,.64,.15,1.35,.15,2.06,0,40.35,.22,80.7-.1,121.04-.18,22.12-6.62,42.45-20.49,60.01-12.21,15.45-28.04,25.58-47.06,30.62-24.09,6.39-47.93,5.45-70.88-4.37-28.44-12.17-45.68-34.04-52.93-63.95-2.09-8.62-2.81-17.4-2.83-26.21-.08-38.85-.03-77.7-.02-116.55,0-.82,.07-1.63,.12-2.71Z"/><path class="cls-1" d="M863.62,265.53c-8.18,0-16,.04-23.81-.08-.67-.01-1.61-.99-1.94-1.74-6.83-15.39-13.86-30.7-20.23-46.28-2.14-5.22-4.68-6.9-10.41-6.85-36.22,.32-72.45,.18-108.68,.1-2.07,0-3.02,.66-3.83,2.51-7.28,16.73-14.69,33.41-21.97,50.14-.75,1.74-1.67,2.27-3.52,2.24-7.32-.11-14.64-.05-22.4-.05,.41-1.04,.68-1.84,1.03-2.61,31.72-69.63,63.46-139.26,95.14-208.91,.77-1.69,1.63-2.32,3.5-2.28,5.83,.13,11.66,.12,17.49,0,1.76-.03,2.59,.53,3.32,2.15,15.29,33.7,30.64,67.38,45.98,101.06,16.35,35.88,32.7,71.77,49.05,107.65,.37,.82,.72,1.65,1.28,2.94Zm-158.63-75.82h100.36c-16.71-36.69-33.28-73.09-49.99-109.8-16.83,36.69-33.54,73.1-50.37,109.8Z"/><path class="cls-1" d="M165.64,23.8H55.28V0h110.37V23.8Z"/></g></g></svg>