<svg width="46" height="44" viewBox="0 0 46 44" fill="none" xmlns="http://www.w3.org/2000/svg">
<path d="M12.6051 41.53V24.55C12.6051 23.725 11.9301 23.05 11.1051 23.05H2.00006C1.17508 23.05 0.500061 23.725 0.500061 24.55V41.53C0.500061 42.37 1.17508 43.03 2.00006 43.03H11.1051C11.9301 43.03 12.6051 42.37 12.6051 41.53Z" fill="white"/>
<path d="M25.82 43.0299C26.645 43.0299 27.32 42.3699 27.32 41.5299V18.7899C27.32 17.9649 26.645 17.2899 25.82 17.2899H16.7C15.875 17.2899 15.2 17.9649 15.2 18.7899V41.5299C15.2 42.3699 15.875 43.0299 16.7 43.0299H25.82Z" fill="white"/>
<path d="M37.1601 1.55499C36.8751 1.17999 36.4401 0.969971 35.9601 0.969971C35.4951 0.969971 35.06 1.17999 34.775 1.55499L26.7351 12.13C26.3901 12.58 26.3301 13.195 26.5851 13.705C26.8401 14.215 27.3651 14.5299 27.9351 14.5299H29.915V41.5299C29.915 42.3699 30.575 43.0299 31.415 43.0299H40.5201C41.345 43.0299 42.0201 42.3699 42.0201 41.5299V14.5299H44.0001C44.5701 14.5299 45.0951 14.215 45.3501 13.705C45.5901 13.195 45.5451 12.58 45.2001 12.13L37.1601 1.55499Z" fill="white"/>
</svg>
