<svg width="35" height="28" viewBox="0 0 35 28" fill="none" xmlns="http://www.w3.org/2000/svg">
<path d="M35 3.31431C33.7318 3.87751 32.3695 4.25652 30.9396 4.42747C32.4 3.55284 33.5197 2.16802 34.0472 0.516826C32.6822 1.32652 31.1688 1.9149 29.5574 2.23295C28.268 0.858725 26.4313 0 24.3984 0C20.4944 0 17.3299 3.16589 17.3299 7.06858C17.3299 7.62251 17.3935 8.16319 17.5127 8.67869C11.6382 8.38449 6.43015 5.56979 2.94224 1.29206C2.3353 2.33631 1.98678 3.55019 1.98678 4.84756C1.98678 7.29916 3.23378 9.4632 5.13013 10.7301C3.97191 10.693 2.88128 10.3749 1.92847 9.84618C1.92847 9.87666 1.92847 9.90449 1.92847 9.93497C1.92847 13.3606 4.36417 16.2177 7.59897 16.8657C7.00661 17.0274 6.38111 17.1135 5.73575 17.1135C5.2812 17.1135 4.83726 17.0685 4.40658 16.9876C5.30638 19.7957 7.91701 21.8405 11.01 21.8975C8.59154 23.7938 5.54359 24.9242 2.23061 24.9242C1.66078 24.9242 1.09757 24.8911 0.54364 24.8248C3.67242 26.8299 7.38694 28 11.3797 28C24.3825 28 31.4909 17.2288 31.4909 7.88755C31.4909 7.58143 31.4842 7.27663 31.471 6.97316C32.8532 5.97529 34.0525 4.73094 35 3.31431Z" fill="white"/>
</svg>
