<?xml version="1.0" encoding="UTF-8"?><svg id="Layer_2" xmlns="http://www.w3.org/2000/svg" viewBox="0 0 443.71 121.2"><defs><style>.cls-1,.cls-2{fill:#fff;}.cls-2{fill-rule:evenodd;}</style></defs><g id="Layer_1-2"><g><path class="cls-2" d="M67.38,9.04c0,4.93-4.11,9.04-9.04,9.04s-9.04-4.11-9.04-9.04S53.41,0,58.34,0s9.04,4.11,9.04,9.04h0Zm-9.04,16.43c-5.34,0-9.45,4.11-9.45,9.45s4.11,9.45,9.45,9.45,9.45-4.11,9.45-9.45-4.11-9.45-9.45-9.45h0Zm0,25.47c-5.34,0-9.86,4.52-9.86,9.86s4.52,9.86,9.86,9.86,9.86-4.52,9.86-9.86-4.52-9.86-9.86-9.86h0Zm0,25.88c-5.34,0-9.45,4.11-9.45,9.45s4.11,9.45,9.45,9.45,9.45-4.11,9.45-9.45c0-4.93-4.11-9.45-9.45-9.45h0Zm0,26.29c-4.93,0-9.04,4.11-9.04,9.04s4.11,9.04,9.04,9.04,9.04-4.11,9.04-9.04-4.11-9.04-9.04-9.04h0ZM83.4,24.24c-5.75,0-10.68,4.93-10.68,10.68s4.93,10.68,10.68,10.68,10.68-4.93,10.68-10.68-4.93-10.68-10.68-10.68h0Zm0,25.47c-6.16,0-11.09,4.93-11.09,11.09s4.93,11.09,11.09,11.09,11.09-4.93,11.09-11.09-4.93-11.09-11.09-11.09h0Zm0,25.88c-5.75,0-10.68,4.93-10.68,10.68s4.93,10.68,10.68,10.68,10.68-4.93,10.68-10.68-4.93-10.68-10.68-10.68h0Zm25.88-27.12c-6.57,0-12.33,5.34-12.33,12.33,0,6.57,5.34,12.33,12.33,12.33s12.33-5.34,12.33-12.33c-.41-6.98-5.75-12.33-12.33-12.33h0ZM32.87,26.71c-4.52,0-8.22,3.7-8.22,8.22s3.7,8.22,8.22,8.22,8.22-3.7,8.22-8.22-3.7-8.22-8.22-8.22h0Zm0,25.47c-4.93,0-8.63,3.7-8.63,8.63s3.7,8.63,8.63,8.63,8.63-3.7,8.63-8.63-3.7-8.63-8.63-8.63h0Zm0,25.88c-4.52,0-8.22,3.7-8.22,8.22s3.7,8.22,8.22,8.22,8.22-3.7,8.22-8.22-3.7-8.22-8.22-8.22h0ZM7.4,53.41c-4.11,0-7.4,3.29-7.4,7.4s3.29,7.4,7.4,7.4,7.4-3.29,7.4-7.4-3.29-7.4-7.4-7.4Z"/><rect class="cls-1" x="212.82" y="44.78" width="11.09" height="67.79" rx="1.64" ry="1.64"/><path class="cls-2" d="M218.57,17.67c-4.11,0-7.4,3.29-7.4,7.4s3.29,7.4,7.4,7.4,7.4-3.29,7.4-7.4c0-4.11-3.29-7.4-7.4-7.4Z"/><path class="cls-1" d="M380.03,44.78h7.81c.91,0,1.64,.74,1.64,1.64V110.93c0,.91-.74,1.64-1.64,1.64h-7.81c-.91,0-1.64-.74-1.64-1.64V46.43c0-.91,.74-1.64,1.64-1.64Z"/><circle class="cls-1" cx="383.73" cy="25.06" r="7.4"/><path class="cls-2" d="M278.55,55.46c.82,0,1.64-.82,1.64-1.64v-7.81c0-.82-.82-1.64-1.64-1.64h-16.43V19.72c0-.82-.82-1.64-1.64-1.64h-7.81c-.82,0-1.64,.82-1.64,1.64v24.65h-8.22c-.82,0-1.64,.82-1.64,1.64v7.81c0,.82,.82,1.64,1.64,1.64h8.22v37.39c0,11.5,7.81,18.9,18.9,18.9h8.22c.82,0,1.64-.82,1.64-1.64v-7.81c0-.82-.82-1.64-1.64-1.64h-6.98c-5.34,0-9.04-3.7-9.04-9.45V55.05h16.43v.41Z"/><path class="cls-2" d="M442.07,55.46c.82,0,1.64-.82,1.64-1.64v-7.81c0-.82-.82-1.64-1.64-1.64h-16.43V19.72c0-.82-.82-1.64-1.64-1.64h-7.81c-.82,0-1.64,.82-1.64,1.64v24.65h-8.22c-.82,0-1.64,.82-1.64,1.64v7.81c0,.82,.82,1.64,1.64,1.64h8.22v37.39c0,11.5,7.81,18.9,18.9,18.9h8.22c.82,0,1.64-.82,1.64-1.64v-7.81c0-.82-.82-1.64-1.64-1.64h-7.4c-5.34,0-9.04-3.7-9.04-9.45V55.05h16.84v.41Z"/><path class="cls-2" d="M165.57,55.46v55.05c0,.82,.82,1.64,1.64,1.64h7.81c.82,0,1.64-.82,1.64-1.64V55.46h18.08c.82,0,1.64-.82,1.64-1.64v-7.81c0-.82-.82-1.64-1.64-1.64h-18.08v-14.38c0-5.75,4.11-9.86,9.04-9.86h9.04c.82,0,1.64-.82,1.64-1.64v-7.81c0-.82-.82-1.64-1.64-1.64h-8.63c-11.5,0-20.54,9.45-20.54,20.54v14.79h-8.22c-.82,0-1.64,.82-1.64,1.64v7.81c0,.82,.82,1.64,1.64,1.64h8.22Z"/><path class="cls-2" d="M353.74,52.59c-6.16-6.57-14.79-10.27-23.83-10.27s-17.26,3.7-22.6,9.04V10.27c0-.82-.82-1.64-1.64-1.64h-7.81c-.82,0-1.64,.82-1.64,1.64V78.06c0,25.06,16.84,36.15,33.28,36.15s33.28-11.09,33.28-36.15c.41-9.86-2.88-18.9-9.04-25.47h0Zm-23.83,51.36c-16.43,0-22.6-13.15-22.6-25.47,0-15.2,9.04-25.06,22.6-25.06s22.6,10.27,22.6,25.06c-.41,12.33-6.16,25.47-22.6,25.47Z"/></g></g></svg>