<svg width="132" height="37" viewBox="0 0 132 37" fill="none" xmlns="http://www.w3.org/2000/svg">
<path d="M90.8365 16.1171C91.2245 15.8171 91.5445 15.5031 91.9185 15.2591C93.2781 14.283 94.8717 13.6843 96.5377 13.5238C98.2036 13.3632 99.8824 13.6466 101.403 14.3451C102.896 14.9713 104.199 15.9769 105.183 17.2622C106.166 18.5475 106.797 20.0678 107.012 21.6721C107.416 23.8687 107.253 26.1322 106.537 28.2481C106.005 29.9833 104.965 31.5193 103.552 32.6585C102.139 33.7977 100.417 34.4878 98.6085 34.6401C96.4754 34.9421 94.3025 34.5285 92.4295 33.4641C91.3802 32.879 90.4572 32.0917 89.7142 31.1476C88.9711 30.2035 88.4226 29.1215 88.1004 27.9641C87.7332 26.7513 87.5499 25.4903 87.5565 24.2231C87.5525 17.5878 87.5525 10.9524 87.5565 4.31709C87.5565 4.23009 87.5565 4.14309 87.5565 4.05709C87.5525 3.98835 87.5632 3.91955 87.5877 3.85522C87.6123 3.79089 87.6501 3.73248 87.6988 3.68384C87.7475 3.6352 87.8061 3.59742 87.8704 3.57299C87.9348 3.54856 88.0036 3.53803 88.0723 3.54209C88.3813 3.52909 88.6925 3.5371 89.0025 3.5361C89.4115 3.5361 89.8205 3.5301 90.2305 3.5361C90.3054 3.5274 90.381 3.53554 90.4522 3.55994C90.5235 3.58434 90.5886 3.62438 90.6424 3.67711C90.6962 3.72984 90.7374 3.79393 90.7633 3.8647C90.7891 3.93547 90.7985 4.01111 90.7913 4.08609C90.7973 4.21009 90.7913 4.33409 90.7913 4.45809C90.7913 8.20343 90.7913 11.9491 90.7913 15.6951C90.7762 15.8357 90.7917 15.9779 90.8365 16.1121M97.4544 31.7211C97.7544 31.7051 98.0545 31.7001 98.3455 31.6701C99.4129 31.6034 100.44 31.2406 101.313 30.6223C102.186 30.0041 102.869 29.1549 103.285 28.1701C104.172 26.2911 104.417 24.1726 103.981 22.1411C103.712 20.6631 102.962 19.3157 101.847 18.3091C101.163 17.7089 100.361 17.261 99.491 16.9949C98.6216 16.7289 97.7055 16.6509 96.8035 16.7661C95.6209 16.8159 94.4797 17.2161 93.525 17.9158C92.5703 18.6156 91.845 19.5833 91.4415 20.6961C90.9456 21.9128 90.7132 23.2208 90.7596 24.5339C90.806 25.847 91.1301 27.1354 91.7105 28.3141C92.2874 29.568 93.3006 30.5693 94.5613 31.1311C95.4734 31.5311 96.4606 31.7309 97.4564 31.7171" fill="black"/>
<path d="M52.1704 25.6091C52.1704 28.1884 52.1704 30.7677 52.1704 33.3471C52.1704 33.4341 52.1704 33.5211 52.1704 33.6071C52.1737 33.6726 52.1635 33.7381 52.1403 33.7995C52.1172 33.8609 52.0816 33.9168 52.0357 33.9637C51.9899 34.0107 51.9348 34.0476 51.874 34.0723C51.8132 34.097 51.748 34.1088 51.6825 34.1071C50.9391 34.1204 50.1951 34.1204 49.4504 34.1071C49.318 34.1098 49.1898 34.0598 49.0942 33.9681C48.9986 33.8764 48.9433 33.7505 48.9404 33.6181C48.9304 33.4696 48.9281 33.3208 48.9334 33.1721C48.9334 28.0881 48.9334 23.0037 48.9334 17.9191C48.9334 17.2761 48.9995 17.3491 48.3545 17.3451C47.7965 17.3451 47.2384 17.3451 46.6804 17.3451C46.2014 17.3451 46.0324 17.1721 46.0294 16.6931C46.0261 16.0357 46.0261 15.3784 46.0294 14.7211C46.0294 14.2771 46.1924 14.1121 46.6294 14.1081C47.2744 14.1021 47.9194 14.1081 48.5634 14.1081C48.9244 14.1081 48.9284 14.1081 48.9294 13.7301C48.9294 12.4301 48.9294 11.1301 48.9294 9.82408C48.9107 8.27039 49.4871 6.7684 50.5405 5.62616C51.5939 4.48391 53.0443 3.78798 54.5944 3.68108C55.5224 3.61208 56.4534 3.65708 57.3834 3.65608C57.8214 3.65608 57.9985 3.83608 58.0055 4.26608C58.0148 4.93274 58.0148 5.60241 58.0055 6.27508C57.9995 6.73408 57.8344 6.88508 57.3604 6.88708C56.6044 6.88708 55.8474 6.90508 55.0914 6.88708C54.7116 6.8681 54.332 6.92741 53.976 7.06133C53.6201 7.19525 53.2955 7.40092 53.0224 7.66556C52.7493 7.93021 52.5337 8.24818 52.3886 8.59972C52.2436 8.95126 52.1724 9.32886 52.1794 9.70908C52.1484 11.0721 52.1694 12.4371 52.1714 13.8011C52.1714 14.1011 52.1825 14.1101 52.5315 14.1111C54.0561 14.1111 55.5811 14.1111 57.1064 14.1111C57.2304 14.1111 57.3544 14.1111 57.4784 14.1111C57.5438 14.1069 57.6094 14.116 57.6711 14.1379C57.7329 14.1599 57.7895 14.1942 57.8376 14.2387C57.8857 14.2832 57.9243 14.3371 57.9509 14.397C57.9775 14.4569 57.9916 14.5215 57.9924 14.5871C58.0055 14.7354 58.0102 14.8843 58.0064 15.0331C58.0064 15.5417 58.0064 16.0501 58.0064 16.5581C58.0064 17.2161 57.8744 17.3471 57.2274 17.3471H52.5774C52.1694 17.3471 52.1684 17.3471 52.1684 17.7581C52.1684 20.3747 52.1684 22.9911 52.1684 25.6071" fill="black"/>
<path d="M74.1983 23.2761V17.8821C74.1983 17.7951 74.1983 17.7081 74.1983 17.6221C74.1873 17.3711 74.1764 17.3531 73.9144 17.3511C73.3144 17.3461 72.7234 17.3331 72.1294 17.3511C71.2984 17.3801 71.2643 17.0701 71.2763 16.4811C71.2883 15.8921 71.2763 15.3151 71.2823 14.7331C71.2893 14.2661 71.4494 14.1131 71.9184 14.1091C72.5634 14.1091 73.2084 14.1091 73.8524 14.1091C74.1974 14.1091 74.1994 14.1041 74.2004 13.7541C74.2004 11.5714 74.2004 9.38906 74.2004 7.20706C74.2004 7.09506 74.2004 6.98407 74.2004 6.87207C74.1937 6.80298 74.2017 6.73328 74.224 6.66754C74.2462 6.6018 74.2822 6.54151 74.3294 6.49067C74.3767 6.43984 74.4342 6.3996 74.4981 6.3726C74.5621 6.3456 74.631 6.33246 74.7004 6.33406C75.4437 6.31606 76.1874 6.31606 76.9314 6.33406C77.2574 6.34206 77.4114 6.53406 77.4314 6.86706C77.4394 6.97806 77.4314 7.09007 77.4314 7.20207C77.4314 9.2854 77.4314 11.3687 77.4314 13.4521C77.4314 13.5391 77.4314 13.6261 77.4314 13.7121C77.4314 14.1041 77.4314 14.1121 77.8214 14.1121C79.148 14.1121 80.4747 14.1121 81.8014 14.1121C81.9504 14.1121 82.1014 14.1071 82.2474 14.1121C82.316 14.1062 82.385 14.1155 82.4497 14.1392C82.5143 14.163 82.573 14.2007 82.6214 14.2496C82.6699 14.2986 82.707 14.3576 82.7302 14.4225C82.7533 14.4873 82.7619 14.5565 82.7553 14.6251C82.7633 15.3561 82.7553 16.0881 82.7553 16.8201C82.7599 16.9011 82.7439 16.9819 82.7089 17.0552C82.674 17.1284 82.6212 17.1917 82.5554 17.2391C82.4944 17.2841 82.4183 17.3391 82.3553 17.2961C82.1361 17.2096 81.8972 17.1861 81.6654 17.2281C80.4134 17.2201 79.1654 17.2281 77.9084 17.2281C77.8464 17.2281 77.7844 17.2281 77.7224 17.2281C77.4524 17.2391 77.4424 17.2501 77.4294 17.5341C77.4294 17.5831 77.4294 17.6341 77.4294 17.6831C77.4294 21.0557 77.4294 24.4284 77.4294 27.8011C77.4043 28.3231 77.5023 28.8438 77.7154 29.3211C77.8953 29.7124 78.1764 30.0485 78.5297 30.2947C78.8831 30.5408 79.2959 30.688 79.7253 30.7211C80.4033 30.7941 81.0884 30.7401 81.7694 30.7501C81.9058 30.7465 82.0423 30.7505 82.1783 30.7621C82.241 30.7631 82.303 30.7765 82.3606 30.8015C82.4181 30.8265 82.4701 30.8626 82.5136 30.9078C82.5572 30.9529 82.5915 31.0062 82.6145 31.0646C82.6374 31.123 82.6485 31.1853 82.6473 31.2481C82.6583 31.9921 82.6603 32.7361 82.6473 33.4801C82.6523 33.5496 82.6419 33.6193 82.6167 33.6842C82.5914 33.7491 82.5521 33.8077 82.5014 33.8555C82.4508 33.9034 82.3902 33.9394 82.3239 33.9609C82.2577 33.9824 82.1875 33.989 82.1184 33.9801C81.1764 33.9871 80.2323 34.0191 79.2923 33.9691C78.0375 33.9472 76.8337 33.4686 75.9063 32.6229C74.979 31.7773 74.3916 30.6226 74.2544 29.3751C74.2101 29.0436 74.1897 28.7094 74.1933 28.3751C74.1933 26.6764 74.1933 24.9764 74.1933 23.2751" fill="black"/>
<path d="M122.513 23.3002V17.8682C122.513 17.7682 122.513 17.6682 122.513 17.5682C122.52 17.4092 122.439 17.3452 122.287 17.3472C122.051 17.3472 121.816 17.3472 121.58 17.3472C121.134 17.3472 120.688 17.3522 120.242 17.3472C119.796 17.3422 119.616 17.1692 119.612 16.7112C119.607 16.0538 119.607 15.3965 119.612 14.7392C119.612 14.2732 119.779 14.1122 120.239 14.1092C120.859 14.1092 121.479 14.1092 122.099 14.1092C122.509 14.1092 122.512 14.1092 122.512 13.7092C122.512 11.7992 122.512 9.88916 122.512 7.97916C122.512 7.64416 122.512 7.30916 122.512 6.97916C122.518 6.53016 122.695 6.34017 123.14 6.33317C123.797 6.32417 124.455 6.32417 125.112 6.33317C125.585 6.33317 125.754 6.51516 125.754 6.99616C125.754 9.17883 125.754 11.3615 125.754 13.5442C125.754 14.1882 125.685 14.1182 126.331 14.1192C127.646 14.1192 128.961 14.1192 130.275 14.1192C130.387 14.1192 130.498 14.1132 130.609 14.1192C130.742 14.1215 130.868 14.1762 130.96 14.2712C131.052 14.3663 131.102 14.4939 131.1 14.6262C131.112 15.3582 131.115 16.0902 131.1 16.8262C131.093 17.1922 130.913 17.3132 130.556 17.2482C130.471 17.2366 130.384 17.2326 130.297 17.2362H126.019C125.945 17.2362 125.87 17.2378 125.796 17.2412C125.775 17.24 125.753 17.2435 125.733 17.2512C125.712 17.259 125.694 17.2709 125.678 17.2863C125.663 17.3016 125.65 17.32 125.642 17.3403C125.634 17.3606 125.631 17.3824 125.631 17.4042C125.631 17.4912 125.625 17.5772 125.625 17.6642C125.625 21.0642 125.625 24.4625 125.625 27.8592C125.624 28.2192 125.673 28.5775 125.77 28.9242C125.901 29.4071 126.176 29.8387 126.558 30.1614C126.94 30.4841 127.412 30.6825 127.91 30.7302C128.589 30.7992 129.272 30.7482 129.954 30.7602C130.128 30.7602 130.302 30.7532 130.475 30.7702C130.545 30.7686 130.613 30.7817 130.677 30.8085C130.741 30.8353 130.798 30.8753 130.845 30.9258C130.892 30.9763 130.928 31.0362 130.951 31.1016C130.973 31.1669 130.982 31.2363 130.975 31.3052C130.983 32.0245 130.983 32.7438 130.975 33.4632C130.983 33.5288 130.977 33.5953 130.957 33.6583C130.937 33.7214 130.904 33.7794 130.86 33.8288C130.816 33.8781 130.763 33.9176 130.702 33.9445C130.642 33.9715 130.576 33.9853 130.51 33.9852C129.371 34.0394 128.23 34.0177 127.093 33.9202C125.928 33.7947 124.841 33.2697 124.018 32.4344C123.196 31.599 122.687 30.5047 122.579 29.3372C122.528 28.9058 122.506 28.4715 122.512 28.0372C122.512 26.4618 122.512 24.8868 122.512 23.3122" fill="black"/>
<path d="M66.1464 24.2251V33.3761C66.1464 33.4761 66.1464 33.5761 66.1464 33.6761C66.1528 33.751 66.1429 33.8265 66.1173 33.8972C66.0918 33.9679 66.0511 34.0322 65.9982 34.0856C65.9453 34.139 65.8815 34.1804 65.8111 34.2067C65.7406 34.233 65.6653 34.2438 65.5904 34.2381C65.2684 34.2531 64.9453 34.2381 64.6233 34.2381C64.2763 34.2381 63.9293 34.2381 63.5823 34.2381C63.0563 34.2301 62.9094 34.0761 62.9034 33.5381C62.9034 33.4511 62.9034 33.3641 62.9034 33.2781V15.1571C62.9034 15.0451 62.9034 14.9341 62.9034 14.8221C62.9154 14.4111 63.0784 14.2301 63.4944 14.2221C64.1884 14.2101 64.8826 14.2101 65.5773 14.2221C65.6556 14.213 65.735 14.222 65.8092 14.2485C65.8835 14.2749 65.9506 14.3181 66.0055 14.3746C66.0604 14.4312 66.1016 14.4996 66.1259 14.5746C66.1501 14.6496 66.1567 14.7291 66.1453 14.8071C66.1523 15.4771 66.1453 16.1461 66.1453 16.8161V24.2161L66.1464 24.2251Z" fill="black"/>
<path d="M115.063 24.241V33.464C115.063 33.551 115.063 33.638 115.063 33.724C115.068 33.7895 115.059 33.8552 115.036 33.917C115.014 33.9787 114.979 34.0352 114.934 34.0827C114.888 34.1302 114.833 34.1677 114.773 34.1929C114.712 34.2181 114.647 34.2304 114.581 34.229C114.31 34.249 114.036 34.24 113.763 34.24C113.317 34.24 112.87 34.245 112.425 34.24C112.025 34.232 111.864 34.064 111.848 33.672C111.838 33.424 111.837 33.172 111.837 32.928C111.837 26.99 111.837 21.0523 111.837 15.115C111.837 14.324 111.929 14.23 112.705 14.229C113.263 14.229 113.82 14.229 114.378 14.229C114.92 14.229 115.065 14.377 115.066 14.911C115.066 18.0223 115.066 21.1337 115.066 24.245" fill="black"/>
<path d="M32.2953 22.563C31.8199 22.5651 31.3486 22.4734 30.9086 22.2933C30.4686 22.1133 30.0683 21.8483 29.7307 21.5135C29.3931 21.1788 29.1247 20.7808 28.9408 20.3423C28.757 19.9039 28.6614 19.4335 28.6593 18.958C28.6573 18.4826 28.7489 18.0114 28.929 17.5713C29.1091 17.1313 29.374 16.731 29.7088 16.3934C30.0435 16.0557 30.4415 15.7874 30.88 15.6035C31.3185 15.4197 31.7889 15.3241 32.2643 15.322C33.2321 15.331 34.1569 15.7229 34.8364 16.412C35.5159 17.1011 35.8948 18.0312 35.8903 18.999C35.8991 19.4725 35.8118 19.9429 35.6336 20.3817C35.4553 20.8205 35.1899 21.2185 34.8533 21.5517C34.5167 21.8849 34.1161 22.1464 33.6755 22.3202C33.235 22.494 32.7637 22.5766 32.2903 22.563" fill="black"/>
<path d="M21.3753 18.934C21.3789 18.2907 21.5729 17.6629 21.933 17.1297C22.2931 16.5966 22.803 16.1821 23.3984 15.9385C23.9939 15.6949 24.6481 15.6331 25.2786 15.761C25.9091 15.8889 26.4875 16.2008 26.941 16.6571C27.3944 17.1135 27.7025 17.694 27.8264 18.3253C27.9502 18.9566 27.8843 19.6104 27.6368 20.2043C27.3894 20.7981 26.9717 21.3054 26.4362 21.662C25.9008 22.0186 25.2716 22.2086 24.6283 22.208C24.1989 22.2095 23.7735 22.1257 23.3768 21.9614C22.9801 21.7972 22.62 21.5557 22.3174 21.2511C22.0148 20.9465 21.7756 20.5849 21.6139 20.1871C21.4522 19.7893 21.3711 19.3634 21.3753 18.934Z" fill="black"/>
<path d="M21.5063 26.4601C21.5121 25.8431 21.7001 25.2415 22.0468 24.7311C22.3934 24.2207 22.8832 23.8241 23.4547 23.5913C24.0261 23.3586 24.6536 23.2999 25.2582 23.4228C25.8629 23.5456 26.4178 23.8445 26.853 24.2818C27.2883 24.7192 27.5845 25.2754 27.7045 25.8807C27.8244 26.4859 27.7628 27.1131 27.5273 27.6834C27.2918 28.2537 26.8929 28.7417 26.3809 29.0859C25.8688 29.4301 25.2664 29.6153 24.6494 29.6181C23.8157 29.6099 23.0187 29.2741 22.4306 28.6832C21.8425 28.0923 21.5105 27.2937 21.5063 26.4601Z" fill="black"/>
<path d="M21.5074 11.2919C21.5085 10.6733 21.6931 10.0688 22.0378 9.55499C22.3824 9.04118 22.8716 8.64106 23.4436 8.40521C24.0155 8.16937 24.6446 8.10838 25.2512 8.22995C25.8578 8.35152 26.4148 8.65021 26.8517 9.08824C27.2886 9.52628 27.5859 10.084 27.7059 10.6909C27.8259 11.2979 27.7633 11.9268 27.526 12.4981C27.2887 13.0695 26.8873 13.5577 26.3727 13.901C25.858 14.2443 25.2531 14.4273 24.6344 14.4269C23.8078 14.4138 23.0188 14.079 22.435 13.4937C21.8512 12.9084 21.5184 12.1186 21.5074 11.2919Z" fill="black"/>
<path d="M20.1084 18.9541C20.106 19.7202 19.7994 20.454 19.256 20.994C18.7126 21.534 17.9769 21.836 17.2109 21.8337C16.4448 21.8313 15.711 21.5247 15.171 20.9813C14.631 20.4379 14.329 19.7022 14.3314 18.9362C14.3338 18.1701 14.6404 17.4363 15.1838 16.8963C15.7271 16.3563 16.4628 16.0543 17.2289 16.0567C17.9949 16.059 18.7287 16.3657 19.2687 16.909C19.8087 17.4524 20.1107 18.1881 20.1084 18.9541Z" fill="black"/>
<path d="M19.9983 11.2859C20.0007 11.8337 19.8407 12.37 19.5387 12.8269C19.2366 13.2839 18.8059 13.6412 18.301 13.8537C17.7961 14.0662 17.2396 14.1244 16.7016 14.0209C16.1637 13.9174 15.6684 13.657 15.2784 13.2723C14.8883 12.8877 14.6209 12.3961 14.5099 11.8597C14.3989 11.3233 14.4493 10.766 14.6547 10.2581C14.86 9.75029 15.2112 9.31465 15.6639 9.00619C16.1166 8.69774 16.6506 8.53028 17.1984 8.52495C17.5648 8.51773 17.9289 8.58392 18.2693 8.71963C18.6097 8.85534 18.9195 9.05782 19.1804 9.31512C19.4414 9.57243 19.6482 9.87936 19.7887 10.2178C19.9291 10.5563 20.0004 10.9195 19.9983 11.2859Z" fill="black"/>
<path d="M14.4523 26.4901C14.4456 26.1236 14.5127 25.7595 14.6496 25.4194C14.7865 25.0793 14.9905 24.7703 15.2493 24.5107C15.5081 24.2511 15.8166 24.0463 16.1562 23.9084C16.4959 23.7705 16.8598 23.7024 17.2264 23.7081C17.9587 23.7182 18.6582 24.0138 19.176 24.5319C19.6937 25.05 19.9888 25.7497 19.9984 26.4821C19.9989 26.8462 19.9277 27.207 19.7888 27.5436C19.6499 27.8802 19.4461 28.1862 19.189 28.4441C18.6697 28.9648 17.9648 29.2581 17.2293 29.2591C16.8652 29.2596 16.5045 29.1884 16.1679 29.0495C15.8312 28.9107 15.5252 28.7069 15.2674 28.4497C14.7466 27.9304 14.4534 27.2255 14.4523 26.4901Z" fill="black"/>
<path d="M14.5873 34.114C14.591 33.59 14.7504 33.0788 15.0452 32.6455C15.3401 32.2123 15.7571 31.8765 16.2432 31.6808C16.7294 31.485 17.2628 31.4382 17.7756 31.5464C18.2884 31.6545 18.7574 31.9126 19.1232 32.288C19.489 32.6633 19.7349 33.1389 19.8297 33.6543C19.9245 34.1698 19.8639 34.7018 19.6557 35.1827C19.4475 35.6636 19.1009 36.0718 18.6602 36.3553C18.2194 36.6388 17.7043 36.785 17.1804 36.7751C16.4844 36.7637 15.8211 36.4776 15.3353 35.979C14.8495 35.4805 14.5806 34.8101 14.5873 34.114Z" fill="black"/>
<path d="M17.2374 1.00005C17.9327 1.00212 18.5993 1.27804 19.0926 1.76805C19.586 2.25806 19.8665 2.92271 19.8733 3.61805C19.8707 4.32087 19.589 4.99385 19.0901 5.48895C18.5913 5.98405 17.9162 6.2607 17.2133 6.25805C16.5105 6.25539 15.8376 5.97366 15.3425 5.47481C14.8474 4.97596 14.5707 4.30087 14.5734 3.59805C14.5943 2.90475 14.8831 2.24655 15.3791 1.76172C15.8751 1.27689 16.5398 1.00316 17.2334 0.998047" fill="black"/>
<path d="M12.2113 18.9761C12.2041 19.4747 12.049 19.9599 11.7657 20.3702C11.4824 20.7806 11.0837 21.0975 10.6201 21.281C10.1564 21.4645 9.64874 21.5061 9.16139 21.4007C8.67403 21.2954 8.22893 21.0476 7.88252 20.689C7.5361 20.3304 7.30397 19.877 7.21553 19.3863C7.12708 18.8955 7.18633 18.3896 7.38574 17.9326C7.58515 17.4756 7.91575 17.0881 8.33564 16.8192C8.75554 16.5503 9.24582 16.4121 9.74433 16.4221C10.0765 16.4193 10.4058 16.484 10.7122 16.6124C11.0185 16.7409 11.2956 16.9304 11.5264 17.1693C11.7572 17.4082 11.9369 17.6917 12.0547 18.0023C12.1724 18.3129 12.2257 18.6442 12.2113 18.9761Z" fill="black"/>
<path d="M9.71333 8.89309C10.1875 8.89665 10.65 9.04061 11.0425 9.30678C11.4349 9.57296 11.7397 9.94944 11.9184 10.3887C12.0971 10.8279 12.1417 11.3103 12.0465 11.7748C11.9513 12.2394 11.7206 12.6653 11.3835 12.9989C11.0465 13.3324 10.6182 13.5587 10.1527 13.6491C9.68714 13.7394 9.20529 13.6899 8.76792 13.5066C8.33055 13.3234 7.95727 13.0147 7.69519 12.6195C7.4331 12.2243 7.29396 11.7603 7.29533 11.2861C7.2993 10.6483 7.55612 10.0382 8.00944 9.58953C8.46276 9.1409 9.07555 8.89043 9.71333 8.89309Z" fill="black"/>
<path d="M7.29436 26.4601C7.29616 26.1436 7.3608 25.8305 7.48453 25.5392C7.60826 25.2478 7.7886 24.9839 8.01512 24.7628C8.24164 24.5417 8.50983 24.3677 8.80409 24.2511C9.09836 24.1344 9.41286 24.0773 9.72936 24.0832C10.2035 24.0901 10.6649 24.2373 11.0554 24.5062C11.4459 24.7751 11.748 25.1537 11.9236 25.5941C12.0992 26.0345 12.1404 26.5171 12.042 26.9809C11.9436 27.4448 11.71 27.8691 11.3707 28.2003C11.0314 28.5315 10.6017 28.7548 10.1356 28.842C9.66953 28.9291 9.18808 28.8763 8.752 28.6902C8.31592 28.504 7.94475 28.1929 7.68533 27.796C7.42591 27.3991 7.28987 26.9342 7.29436 26.4601Z" fill="black"/>
<path d="M113.407 6.21997C113.835 6.22416 114.251 6.35505 114.604 6.59605C114.957 6.83705 115.23 7.17734 115.39 7.57382C115.549 7.9703 115.587 8.40514 115.499 8.82328C115.411 9.24143 115.201 9.62406 114.895 9.92276C114.59 10.2214 114.202 10.4228 113.782 10.5012C113.362 10.5796 112.929 10.5316 112.536 10.3633C112.143 10.195 111.809 9.91398 111.576 9.55575C111.343 9.19752 111.222 8.77822 111.227 8.35096C111.23 8.0676 111.288 7.78749 111.399 7.52674C111.51 7.266 111.671 7.02979 111.874 6.83171C112.076 6.63363 112.316 6.47759 112.579 6.3726C112.843 6.26761 113.124 6.21574 113.407 6.21997Z" fill="black"/>
<path d="M64.5534 10.533C64.1277 10.5261 63.7135 10.3934 63.363 10.1517C63.0126 9.90997 62.7414 9.57 62.5838 9.17454C62.4261 8.77908 62.3889 8.34581 62.4769 7.92927C62.5649 7.51273 62.7741 7.13151 63.0783 6.83361C63.3824 6.53571 63.7679 6.33443 64.1862 6.25509C64.6044 6.17575 65.0369 6.22191 65.429 6.38775C65.8211 6.55359 66.1554 6.8317 66.3898 7.1871C66.6242 7.54249 66.7483 7.95927 66.7463 8.385C66.7478 8.6713 66.6917 8.95496 66.5814 9.21917C66.4712 9.48338 66.3089 9.72275 66.1044 9.92309C65.8999 10.1234 65.6572 10.2806 65.3908 10.3854C65.1243 10.4902 64.8396 10.5404 64.5534 10.533Z" fill="black"/>
<path d="M4.32235 18.9392C4.32764 19.2252 4.27521 19.5094 4.16819 19.7748C4.06117 20.0401 3.90176 20.2812 3.69949 20.4836C3.49722 20.686 3.25623 20.8455 2.99092 20.9526C2.72561 21.0598 2.44143 21.1123 2.15535 21.1072C1.87169 21.1055 1.59114 21.048 1.3297 20.938C1.06827 20.8279 0.831073 20.6674 0.631659 20.4657C0.432245 20.2639 0.274519 20.0249 0.167485 19.7622C0.0604518 19.4995 0.00620715 19.2183 0.00784867 18.9347C0.0094902 18.651 0.0669857 18.3704 0.177052 18.109C0.287119 17.8476 0.447602 17.6104 0.649337 17.411C0.851072 17.2115 1.09011 17.0538 1.3528 16.9468C1.61549 16.8397 1.89669 16.7855 2.18035 16.7871C2.46316 16.7859 2.74339 16.841 3.00473 16.9491C3.26607 17.0572 3.50331 17.2162 3.70264 17.4168C3.90196 17.6174 4.0594 17.8557 4.16579 18.1177C4.27218 18.3798 4.3254 18.6604 4.32235 18.9432" fill="black"/>
</svg>
