<svg width="395" height="269" viewBox="0 0 395 269" fill="none" xmlns="http://www.w3.org/2000/svg">
<g clip-path="url(#clip0_33_2566)">
<path d="M85.4 170.374C86.4012 171.015 87.3134 171.785 88.113 172.664C90.673 176.353 92 176.872 96.349 175.464C97.505 175.09 98.655 174.707 98.937 174.615C97.783 173.139 95.796 171.589 95.16 169.606C92.852 162.399 85.981 162.224 80.641 159.906C78.272 158.88 78.311 157.635 78.354 155.765C78.42 152.884 78.368 150.001 78.354 147.118C78.4721 144.818 78.4364 142.513 78.247 140.218C77.886 137.618 76.613 135.171 75.883 132.673C74.658 128.484 71.143 124.993 68.763 121.104C65.663 116.04 62.827 110.817 59.702 105.771C57.527 102.26 55.518 98.4712 52.63 95.6112C44.1993 87.3308 34.6355 80.2895 24.225 74.6982C22.803 73.9262 21.205 73.4792 19.852 72.2982L25.652 72.7982L26.277 72.0172C25.595 71.0382 25.108 69.7942 24.199 69.1172C17.084 63.8642 9.855 58.7512 2.744 53.4772C1.614 52.6392 0.9 51.2352 0 50.0922L0.938 49.1162C7.413 52.0212 13.983 54.7362 20.344 57.8732C30.908 63.0832 41.332 68.4732 50.63 75.9402C59.374 82.9642 66.981 91.0902 74.93 98.9042C81.0171 104.737 88.2788 109.203 96.23 112.004C97.0948 112.257 97.8542 112.783 98.394 113.504L92.848 113.953C93.569 115.935 93.84 117.875 94.865 119.253C97.0577 122.418 99.5879 125.335 102.411 127.953C104.411 129.684 107.311 130.353 109.765 131.577C111.535 132.461 113.235 133.482 115.406 134.685C112.423 136.707 113.033 138.093 114.666 140.304C118.774 145.867 123.301 151.157 124.4 158.57C125.166 163.741 127.33 168.725 129.05 173.73C131.941 182.141 134.65 190.636 138.082 198.83C139.931 203.251 143.115 207.112 145.682 211.235C147.924 214.835 150.057 218.515 152.403 222.051C154.338 225.19 156.532 228.161 158.963 230.934C160.442 232.51 161.227 233.899 161.006 235.965C160.525 240.483 162.006 243.928 166.28 246.031C166.644 246.314 166.942 246.673 167.153 247.082C167.364 247.492 167.482 247.944 167.5 248.404C167.709 254.137 167.671 259.88 167.949 265.604C168.196 267.046 168.739 268.421 169.544 269.642C172.012 274.318 174.31 279.021 174.79 284.425C174.921 285.646 175.465 286.786 176.332 287.655C180.431 291.246 183.018 296.257 183.57 301.679C183.74 303.146 185.67 304.944 187.209 305.586C189.327 306.469 190.278 307.421 190.258 309.754C190.207 315.44 192.392 317.511 198.058 317.477C199.31 317.469 200.566 317.501 201.811 317.398C204.603 317.168 206.319 318.437 207.286 320.998C207.711 322.124 208.353 323.168 208.266 324.265C208.266 325.803 208.36 327.349 208.231 328.876C208.152 329.8 207.469 330.704 207.504 331.599C207.649 335.426 207.816 339.267 208.329 343.055C208.438 343.855 210.036 344.455 211.123 345.288C210.123 349.131 209.705 353.173 215.243 355.188C210.543 356.874 209.701 360.572 211.701 364.696C214.886 371.262 217.548 378.084 220.311 384.847C220.663 385.71 220.289 386.869 220.251 387.891C219.17 387.523 217.775 387.462 217.058 386.734C213.321 383.151 209.806 379.344 206.532 375.334C198.48 364.839 190.466 354.294 182.974 343.399C179.106 337.778 176.504 331.299 173.11 325.335C169.645 319.24 165.974 313.258 162.268 307.306C160.51 304.534 158.611 301.855 156.578 299.278C155.478 297.866 153.988 296.77 152.778 295.435C150.766 293.211 148.078 291.195 147.086 288.56C146.044 285.806 144.696 284.385 141.717 283.947C141.868 283.373 142.08 282.816 142.348 282.285C144.148 279.645 143.568 277.514 141.296 275.4C137.875 272.329 134.627 269.071 131.567 265.639C129.939 263.739 129.182 261.121 127.9 258.902C124.81 253.553 124.035 246.791 117.669 243.402C115.533 242.266 114.037 239.736 112.589 237.611C112.18 237.011 112.648 235.29 113.278 234.598C115.843 231.78 116.214 227.572 113.385 225.02C109.12 221.171 109.951 215.693 108.285 211.026C107.806 209.413 106.894 207.962 105.647 206.832C100.328 202.84 94.521 199.454 89.489 195.148C86.898 192.93 85.302 189.371 83.784 186.167C83.5018 185.389 83.404 184.556 83.4982 183.733C83.5924 182.911 83.8761 182.122 84.327 181.427C87.286 177.943 88.227 174.661 84.615 170.899L85.4 170.374Z" fill="#FF6B6B"/>
<path d="M242.214 83.91C240.402 81.476 238.465 79.124 236.804 76.591C233.224 71.127 229.923 65.477 226.204 60.111C225.113 58.535 222.971 57.711 221.386 56.452C215.956 52.132 210.41 47.937 205.214 43.352C202.714 41.144 201.27 37.693 198.69 35.626C192.211 30.2871 185.437 25.3173 178.399 20.74C170.748 15.914 162.633 11.8 154.58 7.649C152.53 6.593 149.948 6.573 147.145 5.977V0C151.775 1.471 156.484 2.409 160.678 4.421C168.2 8.031 175.516 12.11 182.727 16.321C191.051 21.182 199.213 26.321 207.361 31.478C215.214 36.446 223.125 41.353 230.707 46.715C239.597 53 248.2 59.7 256.841 66.332C259.121 68.0233 261.186 69.9876 262.988 72.181C265.688 75.6 268.288 78.953 273.943 79.392C270.725 81.82 271.762 83.459 273.182 85.541C274.862 88.1789 277.062 90.4469 279.648 92.2069C282.233 93.9669 285.15 95.1819 288.22 95.778C284.358 98.688 285.974 104.834 290.935 106.792C293.591 107.84 295.092 108.992 295.935 111.965C296.899 115.344 299.335 118.273 300.73 121.565C302.663 125.725 304.22 130.05 305.384 134.487C308.359 147.694 316.007 159.052 319.809 171.956C320.95 175.826 324.657 178.919 327.07 182.449C327.931 183.557 328.499 184.864 328.721 186.249C329.03 190.741 330.021 192.143 334.713 192.887C337.457 193.322 338.852 193.798 337.508 197.175C336.687 199.239 337.076 201.928 337.448 204.252C337.598 205.192 339.03 206.297 340.096 206.626C341.425 207.037 342.977 206.726 344.433 206.726C343.78 210.688 342.509 214.726 342.597 218.733C342.729 224.751 342.988 230.949 348.568 235.305C349.739 236.22 349.974 238.767 350.025 240.579C350.097 243.103 350.354 245.194 352.725 246.749C353.796 247.574 354.551 248.743 354.861 250.059C355.736 253.649 356.206 257.338 357.061 260.934C357.213 261.426 357.47 261.88 357.813 262.264C358.157 262.648 358.58 262.953 359.052 263.159C362.258 264.205 365.281 264.698 365.852 269.269C366.209 272.134 368.134 275.276 372.452 274.417C378.971 273.117 381.704 277.617 384.542 282.533H380.253C380.485 287.844 380.521 293.019 381.107 298.133C381.216 299.082 383.542 299.776 384.876 300.607C381.265 307.572 384.112 320.447 390.309 323.365C385.782 330.282 389.791 335.205 394.142 340.431C393.267 340.201 392.43 339.842 391.661 339.366C386.408 334.871 381.018 330.508 376.071 325.693C371.756 321.536 367.765 317.057 364.132 312.293C360.132 306.98 356.671 301.246 353.169 295.574C350.59 291.395 348.212 287.081 345.945 282.723C343.605 278.223 341.873 273.372 339.204 269.094C336.251 264.36 334.097 259.104 329.504 255.324C327.019 253.277 325.873 249.671 323.859 246.965C322.005 244.474 319.759 242.28 317.765 239.888C316.865 238.813 315.371 237.47 315.51 236.432C316.191 231.367 312.248 229.111 309.816 225.86C307.716 223.054 306.025 219.939 304.185 216.94C302.118 213.572 300.63 209.63 297.903 206.94C294.489 203.571 291.147 200.47 290.372 195.111C291.278 194.711 292.511 194.232 293.693 193.647C297.281 191.873 297.593 189.381 295.642 185.888C294.26 183.065 293.245 180.077 292.62 176.997C291.164 171.279 291.027 171.245 285.291 170.768C283.295 170.614 281.409 169.796 279.932 168.445C275.415 163.717 271.152 158.734 267.002 153.676C265.764 152.057 264.876 150.198 264.392 148.218C264.209 146.912 264.46 145.581 265.108 144.432C266.116 142.601 267.223 140.827 268.425 139.117C269.992 139.665 272.125 140.826 274.358 141.055C276.022 141.226 278.829 140.67 279.333 139.596C280.433 137.257 280.246 134.236 277.723 132.528C274.395 130.198 270.88 128.148 267.214 126.399C264.695 125.248 261.757 125.018 258.573 124.275C259.93 120.814 263.973 118.687 263.602 113.886C263.23 109.027 259.071 107.344 257.295 103.486C259.009 101.055 258.24 98.753 256.238 96.422C252.562 92.141 249.045 87.722 245.514 83.322C244.832 82.2805 244.227 81.1906 243.704 80.061C243.578 81.517 243.504 82.369 243.432 83.22L242.209 83.928" fill="#FF6B6B"/>
<path d="M253.146 256.207V244.061L266.571 265.887C265.519 266.897 264.371 267.801 263.143 268.587C260.615 269.987 260.654 271.766 262.357 273.499C266.147 277.356 266.196 282.446 267.068 287.213C267.611 290.186 268.061 292.902 270.768 294.825C273.149 296.517 274.827 298.4 275.258 301.886C275.918 307.22 277.958 312.386 279.468 317.826C270.068 311.48 261.147 304.815 256.332 294.141C255.191 291.611 255.024 288.477 253.432 286.353C250.4 282.307 246.607 278.836 243.252 275.019C242.252 273.882 240.862 272.286 241.016 271.075C241.754 265.254 238.059 261.358 235.003 257.563C230.553 252.038 225.171 247.271 220.333 242.046C219.411 240.817 218.751 239.412 218.395 237.918C217.002 233.682 215.022 229.989 209.818 228.818C213.184 224.625 211.792 221.371 209.224 218.284C206.545 215.063 203.737 211.942 201.182 208.626C199.397 206.31 197.476 204.282 196.673 201.026C195.835 197.626 193.295 194.373 190.811 191.697C185.411 185.882 182.801 178.624 179.635 171.654C179.061 170.39 179.742 168.554 179.859 166.98C179.951 165.74 180.046 164.5 180.176 163.263C180.442 160.72 180.892 158.182 180.928 155.637C180.904 155.102 180.757 154.581 180.498 154.112C180.239 153.644 179.875 153.242 179.435 152.937C177.36 152.052 175.209 151.358 173.009 150.863C170.974 150.337 170.08 149.463 170.918 147.219C171.387 145.552 171.718 143.85 171.908 142.129L165.043 141.745C169.108 138.845 168.653 135.512 167.643 131.788C166.769 128.56 166.626 125.135 166.13 121.581L161.53 121.054C161.206 118.718 160.744 116.396 160.592 114.054C160.33 110.025 157.515 107.735 154.692 105.76C149.676 102.26 144.356 99.1911 139.181 95.9171C137.877 94.9837 136.336 94.4355 134.735 94.3351C133.135 94.2347 131.538 94.586 130.127 95.3491C128.912 95.9744 127.625 96.4473 126.294 96.7571C123.257 97.4401 122.416 96.1721 122.588 93.1671C122.908 87.6071 120.388 83.0601 116.616 79.0671C115.499 77.9347 114.759 76.4856 114.495 74.9171C114.266 72.6341 113.41 71.6171 111.226 70.8511C108.562 69.9171 104.963 69.4011 105.833 64.7611H97.833C101.197 56.8331 96.88 52.6281 90.699 49.2961L91.119 48.4531C92.75 48.7921 94.405 49.0421 96.008 49.4841C110.578 53.515 124.615 59.2732 137.818 66.6361C148.318 72.4691 158.537 78.8871 167.045 87.6131C169.334 89.9611 171.939 92.0001 174.345 94.2341C176.751 96.4681 179.307 98.1391 182.845 97.6421C183.295 97.6007 183.748 97.6511 184.178 97.7903C184.608 97.9296 185.005 98.1547 185.345 98.4521C188.924 102.128 192.788 105.626 193.732 111.108C194.037 112.127 194.679 113.013 195.554 113.618C199.439 116.57 203.467 119.333 207.324 122.318C208.595 123.244 209.611 124.475 210.28 125.897C212.449 131.255 217.152 134.113 221.206 137.66C222.291 138.609 223.563 140.178 223.522 141.421C223.407 144.876 224.735 146.766 228.022 147.585C228.782 147.775 229.401 148.532 230.54 149.358L223.458 147.852C223.478 150.552 220.706 153.264 224.048 154.752C223.881 158.091 223.731 161.084 223.576 164.175C224.342 164.415 225.132 164.569 225.932 164.635C233.75 164.11 237.39 169.951 241.469 174.956C243.558 177.599 245.415 180.417 247.019 183.38C247.196 183.928 247.254 184.508 247.19 185.08C247.125 185.652 246.938 186.204 246.643 186.698C245.27 189.064 243.579 191.248 241.856 193.734C241.656 193.568 240.75 192.769 239.796 192.034C237.589 190.334 232.611 190.944 231.157 193.265C231.034 193.681 231.018 194.121 231.109 194.546C231.201 194.97 231.397 195.364 231.681 195.692C232.444 196.217 233.299 196.592 234.202 196.798L231.351 202.133L235.891 204.127C234.562 207.476 233.036 210.319 232.384 213.35C232.004 215.117 232.934 217.209 233.441 219.111C233.962 220.679 234.563 222.219 235.241 223.726L237.717 224.64C232.017 229.492 234.806 233.84 237.429 238.749C241.106 245.624 246.843 250.358 253.149 256.207" fill="#FF6B6B"/>
</g>
<defs>
<clipPath id="clip0_33_2566">
<rect width="394.144" height="387.891" fill="white"/>
</clipPath>
</defs>
</svg>
