<svg width="37" height="28" viewBox="0 0 37 28" fill="none" xmlns="http://www.w3.org/2000/svg">
<path d="M5.63725 2.32105C7.9786 1.24674 10.4893 0.45523 13.1145 0.00190165C13.1623 -0.00684744 13.21 0.015017 13.2347 0.0587469C13.5576 0.633057 13.9153 1.38229 14.1657 1.97119C16.9892 1.54848 19.7983 1.54848 22.5639 1.97119C22.8144 1.3692 23.185 0.633057 23.5094 0.0587469C23.534 0.0164761 23.5818 -0.00538839 23.6296 0.00190165C26.2533 0.453781 28.764 1.24529 31.1068 2.32105C31.1271 2.32979 31.1445 2.34438 31.156 2.36332C35.9184 9.47818 37.223 16.4182 36.583 23.2721C36.5801 23.3056 36.5613 23.3377 36.5352 23.3581C33.3931 25.6655 30.3495 27.0664 27.3624 27.9949C27.3146 28.0095 27.264 27.992 27.2335 27.9526C26.5269 26.9877 25.8971 25.9702 25.357 24.9003C25.3251 24.8376 25.3556 24.7633 25.4207 24.7385C26.4198 24.3595 27.3711 23.8974 28.2862 23.3727C28.3586 23.3304 28.3644 23.2269 28.2978 23.1773C28.1052 23.033 27.9126 22.8829 27.7287 22.7313C27.6955 22.7036 27.6491 22.6977 27.61 22.7152C21.5981 25.46 15.0895 25.46 9.14857 22.7152C9.10946 22.6963 9.0631 22.7021 9.02838 22.7298C8.84445 22.8814 8.65188 23.033 8.45786 23.1773C8.39127 23.2269 8.39561 23.3304 8.468 23.3727C9.38311 23.9076 10.3344 24.3595 11.335 24.737C11.4001 24.7618 11.4291 24.8376 11.3972 24.9003C10.8456 25.9687 10.2157 26.9862 9.52213 27.9512C9.49316 27.992 9.44106 28.0095 9.39325 27.9949C6.39165 27.0664 3.34805 25.6655 0.205978 23.3581C0.178455 23.3377 0.161072 23.3071 0.158173 23.2735C-0.607773 15.3496 1.4411 8.46657 5.58949 2.36477C5.59963 2.34438 5.61696 2.32979 5.63725 2.32105ZM24.4592 19.0988C26.2692 19.0988 27.7606 17.4371 27.7606 15.3963C27.7606 13.3556 26.2981 11.6939 24.4592 11.6939C22.6059 11.6939 21.1289 13.3702 21.1579 15.3963C21.1579 17.4371 22.6204 19.0988 24.4592 19.0988ZM12.253 19.0988C14.0629 19.0988 15.5543 17.4371 15.5543 15.3963C15.5543 13.3556 14.0919 11.6939 12.253 11.6939C10.3996 11.6939 8.92268 13.3702 8.9516 15.3963C8.9516 17.4371 10.3996 19.0988 12.253 19.0988Z" fill="white"/>
</svg>
