<svg width="48" height="48" viewBox="0 0 48 48" fill="none" xmlns="http://www.w3.org/2000/svg">
<g clip-path="url(#clip0_14_1803)">
<path d="M28.0424 36.6817C28.4517 35.9859 28.6876 35.1764 28.6876 34.3125C28.6876 31.7278 26.5847 29.625 24.0001 29.625C21.4154 29.625 19.3126 31.7278 19.3126 34.3125C19.3126 35.1764 19.5484 35.9859 19.9577 36.6817C17.7886 37.6156 16.2657 39.7736 16.2657 42.2812V46.5C16.2657 47.2766 16.8953 47.9062 17.6719 47.9062H30.3282C31.1048 47.9062 31.7344 47.2766 31.7344 46.5V42.2812C31.7344 39.7736 30.2116 37.6156 28.0424 36.6817Z" fill="white"/>
<path d="M11.8705 21.2129C12.2798 20.5172 12.5157 19.7077 12.5157 18.8438C12.5157 16.2591 10.4129 14.1562 7.82819 14.1562C5.2435 14.1562 3.14069 16.2591 3.14069 18.8438C3.14069 19.6946 3.36972 20.4925 3.76769 21.1812C1.55837 22.0972 6.10352e-05 24.2759 6.10352e-05 26.8125V31.0312C6.10352e-05 31.8079 0.629686 32.4375 1.40631 32.4375H14.1563C14.9329 32.4375 15.5626 31.8079 15.5626 31.0312V26.8125C15.5626 24.3049 14.0397 22.1468 11.8705 21.2129Z" fill="white"/>
<path d="M44.308 21.2129C44.7173 20.5172 44.9532 19.7077 44.9532 18.8438C44.9532 16.2591 42.8504 14.1562 40.2657 14.1562C37.681 14.1562 35.5782 16.2591 35.5782 18.8438C35.5782 19.6946 35.8072 20.4925 36.2052 21.1812C33.9959 22.0972 32.4376 24.2759 32.4376 26.8125V31.0312C32.4376 31.8079 33.0672 32.4375 33.8438 32.4375H46.5938C47.3704 32.4375 48.0001 31.8079 48.0001 31.0312V26.8125C48.0001 24.3049 46.4772 22.1468 44.308 21.2129Z" fill="white"/>
<path d="M28.0424 7.15041C28.4517 6.45469 28.6876 5.64516 28.6876 4.78125C28.6876 2.19656 26.5847 0.09375 24.0001 0.09375C21.4154 0.09375 19.3126 2.19656 19.3126 4.78125C19.3126 5.64516 19.5484 6.45469 19.9577 7.15041C17.7886 8.08434 16.2657 10.2424 16.2657 12.75V16.9688C16.2657 17.7454 16.8953 18.375 17.6719 18.375H30.3282C31.1048 18.375 31.7344 17.7454 31.7344 16.9688V12.75C31.7344 10.2424 30.2116 8.08434 28.0424 7.15041Z" fill="white"/>
<path d="M38.8126 36.6562C38.8126 38.9825 36.92 40.875 34.5938 40.875H34.435C34.5725 41.7372 34.5469 42.2096 34.5469 43.6875C38.5821 43.6875 41.6251 40.4408 41.6251 36.6562V35.25H38.8126V36.6562Z" fill="white"/>
<path d="M31.4402 5.71875H34.5938C36.92 5.71875 38.8126 7.61128 38.8126 9.9375V11.4862C39.7332 11.3047 40.6706 11.2939 41.6251 11.4695V9.9375C41.6251 6.06047 38.4709 2.90625 34.5938 2.90625H31.2627C31.4914 3.79134 31.5634 4.74366 31.4402 5.71875Z" fill="white"/>
<path d="M9.23444 11.4779V9.9375C9.23444 7.61128 11.127 5.71875 13.4532 5.71875H16.56C16.444 4.80122 16.4942 3.84778 16.7374 2.90625H13.4532C9.57616 2.90625 6.42194 6.06047 6.42194 9.9375V11.4779C7.36009 11.2991 8.29544 11.299 9.23444 11.4779Z" fill="white"/>
<path d="M9.23444 36.6562V35.25H6.42194V36.6562C6.42194 40.5333 9.57615 43.6875 13.4532 43.6875C13.4532 42.2084 13.4277 41.7366 13.5651 40.875H13.4532C11.127 40.875 9.23444 38.9825 9.23444 36.6562Z" fill="white"/>
</g>
<defs>
<clipPath id="clip0_14_1803">
<rect width="48" height="48" fill="white"/>
</clipPath>
</defs>
</svg>
