<svg width="3269" height="302" viewBox="0 0 3269 302" fill="none" xmlns="http://www.w3.org/2000/svg">
<mask id="path-1-outside-1_148_3" maskUnits="userSpaceOnUse" x="0.26416" y="-0.199951" width="3269" height="302" fill="black">
<rect fill="white" x="0.26416" y="-0.199951" width="3269" height="302"/>
<path d="M126.656 1.80005C164.428 1.80005 193.68 11.1721 214.412 29.9161C235.428 48.6601 245.936 75.0721 245.936 109.152C245.936 143.232 235.428 169.644 214.412 188.388C193.68 207.132 164.428 216.504 126.656 216.504H82.3522V300H2.26416V1.80005H126.656ZM125.804 142.806C151.364 142.806 164.144 131.588 164.144 109.152C164.144 87.0001 151.364 75.9241 125.804 75.9241H82.3522V142.806H125.804ZM371.237 216.504H346.955V300H266.867V1.80005H391.259C429.031 1.80005 458.283 11.1721 479.015 29.9161C500.031 48.6601 510.539 75.0721 510.539 109.152C510.539 132.44 505.427 152.32 495.203 168.792C485.263 184.98 470.921 197.192 452.177 205.428L517.355 300H427.469L371.237 216.504ZM346.955 142.806H390.407C415.967 142.806 428.747 131.588 428.747 109.152C428.747 87.0001 415.967 75.9241 390.407 75.9241H346.955V142.806ZM541.87 1.80005H621.958V300H541.87V1.80005ZM659.619 1.80005H748.653L826.185 150.048H827.463L904.995 1.80005H994.029V300H914.367V133.434H913.089L856.431 239.508H797.643L740.559 133.434H739.281V300H659.619V1.80005ZM1224.53 253.566H1106.1L1089.92 300H1005.57L1120.16 1.80005H1210.47L1325.07 300H1240.72L1224.53 253.566ZM1199.82 183.276L1166.17 87.8521H1164.47L1130.81 183.276H1199.82ZM1543.97 225.876V300H1336.51V1.80005H1416.6V225.876H1543.97ZM1849.51 1.80005C1887.28 1.80005 1916.53 11.1721 1937.27 29.9161C1958.28 48.6601 1968.79 75.0721 1968.79 109.152C1968.79 143.232 1958.28 169.644 1937.27 188.388C1916.53 207.132 1887.28 216.504 1849.51 216.504H1805.21V300H1725.12V1.80005H1849.51ZM1848.66 142.806C1874.22 142.806 1887 131.588 1887 109.152C1887 87.0001 1874.22 75.9241 1848.66 75.9241H1805.21V142.806H1848.66ZM2094.09 216.504H2069.81V300H1989.72V1.80005H2114.11C2151.88 1.80005 2181.14 11.1721 2201.87 29.9161C2222.88 48.6601 2233.39 75.0721 2233.39 109.152C2233.39 132.44 2228.28 152.32 2218.06 168.792C2208.12 184.98 2193.77 197.192 2175.03 205.428L2240.21 300H2150.32L2094.09 216.504ZM2069.81 142.806H2113.26C2138.82 142.806 2151.6 131.588 2151.6 109.152C2151.6 87.0001 2138.82 75.9241 2113.26 75.9241H2069.81V142.806ZM2264.72 1.80005H2344.81V300H2264.72V1.80005ZM2382.47 1.80005H2471.51L2549.04 150.048H2550.32L2627.85 1.80005H2716.88V300H2637.22V133.434H2635.94L2579.28 239.508H2520.5L2463.41 133.434H2462.13V300H2382.47V1.80005ZM2947.39 253.566H2828.96L2812.77 300H2728.42L2843.02 1.80005H2933.33L3047.92 300H2963.57L2947.39 253.566ZM2922.68 183.276L2889.02 87.8521H2887.32L2853.67 183.276H2922.68ZM3266.83 225.876V300H3059.36V1.80005H3139.45V225.876H3266.83Z"/>
</mask>
<path d="M126.656 1.80005C164.428 1.80005 193.68 11.1721 214.412 29.9161C235.428 48.6601 245.936 75.0721 245.936 109.152C245.936 143.232 235.428 169.644 214.412 188.388C193.68 207.132 164.428 216.504 126.656 216.504H82.3522V300H2.26416V1.80005H126.656ZM125.804 142.806C151.364 142.806 164.144 131.588 164.144 109.152C164.144 87.0001 151.364 75.9241 125.804 75.9241H82.3522V142.806H125.804ZM371.237 216.504H346.955V300H266.867V1.80005H391.259C429.031 1.80005 458.283 11.1721 479.015 29.9161C500.031 48.6601 510.539 75.0721 510.539 109.152C510.539 132.44 505.427 152.32 495.203 168.792C485.263 184.98 470.921 197.192 452.177 205.428L517.355 300H427.469L371.237 216.504ZM346.955 142.806H390.407C415.967 142.806 428.747 131.588 428.747 109.152C428.747 87.0001 415.967 75.9241 390.407 75.9241H346.955V142.806ZM541.87 1.80005H621.958V300H541.87V1.80005ZM659.619 1.80005H748.653L826.185 150.048H827.463L904.995 1.80005H994.029V300H914.367V133.434H913.089L856.431 239.508H797.643L740.559 133.434H739.281V300H659.619V1.80005ZM1224.53 253.566H1106.1L1089.92 300H1005.57L1120.16 1.80005H1210.47L1325.07 300H1240.72L1224.53 253.566ZM1199.82 183.276L1166.17 87.8521H1164.47L1130.81 183.276H1199.82ZM1543.97 225.876V300H1336.51V1.80005H1416.6V225.876H1543.97ZM1849.51 1.80005C1887.28 1.80005 1916.53 11.1721 1937.27 29.9161C1958.28 48.6601 1968.79 75.0721 1968.79 109.152C1968.79 143.232 1958.28 169.644 1937.27 188.388C1916.53 207.132 1887.28 216.504 1849.51 216.504H1805.21V300H1725.12V1.80005H1849.51ZM1848.66 142.806C1874.22 142.806 1887 131.588 1887 109.152C1887 87.0001 1874.22 75.9241 1848.66 75.9241H1805.21V142.806H1848.66ZM2094.09 216.504H2069.81V300H1989.72V1.80005H2114.11C2151.88 1.80005 2181.14 11.1721 2201.87 29.9161C2222.88 48.6601 2233.39 75.0721 2233.39 109.152C2233.39 132.44 2228.28 152.32 2218.06 168.792C2208.12 184.98 2193.77 197.192 2175.03 205.428L2240.21 300H2150.32L2094.09 216.504ZM2069.81 142.806H2113.26C2138.82 142.806 2151.6 131.588 2151.6 109.152C2151.6 87.0001 2138.82 75.9241 2113.26 75.9241H2069.81V142.806ZM2264.72 1.80005H2344.81V300H2264.72V1.80005ZM2382.47 1.80005H2471.51L2549.04 150.048H2550.32L2627.85 1.80005H2716.88V300H2637.22V133.434H2635.94L2579.28 239.508H2520.5L2463.41 133.434H2462.13V300H2382.47V1.80005ZM2947.39 253.566H2828.96L2812.77 300H2728.42L2843.02 1.80005H2933.33L3047.92 300H2963.57L2947.39 253.566ZM2922.68 183.276L2889.02 87.8521H2887.32L2853.67 183.276H2922.68ZM3266.83 225.876V300H3059.36V1.80005H3139.45V225.876H3266.83Z" stroke="white" stroke-width="3" mask="url(#path-1-outside-1_148_3)"/>
</svg>
