<svg width="2" height="550" viewBox="0 0 2 550" fill="none" xmlns="http://www.w3.org/2000/svg">
<path fill-rule="evenodd" clip-rule="evenodd" d="M2.38725e-05 2.92273L2.39593e-05 0.936768H2.00002V2.92273H2.38725e-05ZM2.34385e-05 12.8526L2.35253e-05 10.8666H2.00002V12.8526H2.34385e-05ZM2.30044e-05 22.7824L2.30913e-05 20.7964H2.00002V22.7824H2.30044e-05ZM2.25704e-05 32.7122L2.26572e-05 30.7262H2.00002L2.00002 32.7122H2.25704e-05ZM2.21363e-05 42.642L2.22232e-05 40.6561H2.00002L2.00002 42.642H2.21363e-05ZM2.17023e-05 52.5719L2.17891e-05 50.5859H2.00002V52.5719H2.17023e-05ZM2.12683e-05 62.5017L2.13551e-05 60.5157H2.00002V62.5017H2.12683e-05ZM2.08342e-05 72.4315L2.0921e-05 70.4455H2.00002V72.4315H2.08342e-05ZM2.04002e-05 82.3613L2.0487e-05 80.3754H2.00002L2.00002 82.3613H2.04002e-05ZM1.99661e-05 92.2912L2.00529e-05 90.3052H2.00002L2.00002 92.2912H1.99661e-05ZM1.95321e-05 102.221L1.96189e-05 100.235H2.00002V102.221H1.95321e-05ZM1.9098e-05 112.151L1.91848e-05 110.165H2.00002V112.151H1.9098e-05ZM1.8664e-05 122.081L1.87508e-05 120.095H2.00002V122.081H1.8664e-05ZM1.82299e-05 132.01L1.83167e-05 130.024H2.00002V132.01H1.82299e-05ZM1.77959e-05 141.94L1.78827e-05 139.954H2.00002L2.00002 141.94H1.77959e-05ZM1.73618e-05 151.87L1.74486e-05 149.884H2.00002L2.00002 151.87H1.73618e-05ZM1.69278e-05 161.8L1.70146e-05 159.814H2.00002V161.8H1.69278e-05ZM1.64937e-05 171.73L1.65806e-05 169.744H2.00002V171.73H1.64937e-05ZM1.60597e-05 181.66L1.61465e-05 179.674H2.00002V181.66H1.60597e-05ZM1.56257e-05 191.589L1.57125e-05 189.603H2.00002L2.00002 191.589H1.56257e-05ZM1.51916e-05 201.519L1.52784e-05 199.533H2.00002L2.00002 201.519H1.51916e-05ZM1.47576e-05 211.449L1.48444e-05 209.463H2.00001V211.449H1.47576e-05ZM1.43235e-05 221.379L1.44103e-05 219.393H2.00001V221.379H1.43235e-05ZM1.38895e-05 231.309L1.39763e-05 229.323H2.00001V231.309H1.38895e-05ZM1.34554e-05 241.239L1.35422e-05 239.253H2.00001V241.239H1.34554e-05ZM1.30214e-05 251.168L1.31082e-05 249.182H2.00001L2.00001 251.168H1.30214e-05ZM1.25873e-05 261.098L1.26741e-05 259.112H2.00001L2.00001 261.098H1.25873e-05ZM1.21533e-05 271.028L1.22401e-05 269.042H2.00001V271.028H1.21533e-05ZM1.17192e-05 280.958L1.1806e-05 278.972H2.00001V280.958H1.17192e-05ZM1.12852e-05 290.888L1.1372e-05 288.902H2.00001V290.888H1.12852e-05ZM1.08511e-05 300.817L1.0938e-05 298.831H2.00001L2.00001 300.817H1.08511e-05ZM1.04171e-05 310.747L1.05039e-05 308.761H2.00001L2.00001 310.747H1.04171e-05ZM9.98305e-06 320.677L1.00699e-05 318.691H2.00001V320.677H9.98305e-06ZM9.54901e-06 330.607L9.63582e-06 328.621H2.00001V330.607H9.54901e-06ZM9.11496e-06 340.537L9.20177e-06 338.551H2.00001V340.537H9.11496e-06ZM8.68092e-06 350.466L8.76772e-06 348.481H2.00001V350.466H8.68092e-06ZM8.24687e-06 360.396L8.33368e-06 358.41H2.00001L2.00001 360.396H8.24687e-06ZM7.81283e-06 370.326L7.89963e-06 368.34H2.00001L2.00001 370.326H7.81283e-06ZM7.37878e-06 380.256L7.46559e-06 378.27H2.00001V380.256H7.37878e-06ZM6.94473e-06 390.186L7.03154e-06 388.2H2.00001V390.186H6.94473e-06ZM6.51069e-06 400.116L6.5975e-06 398.13H2.00001V400.116H6.51069e-06ZM6.07664e-06 410.045L6.16345e-06 408.059H2.00001V410.045H6.07664e-06ZM5.6426e-06 419.975L5.72941e-06 417.989H2.00001L2.00001 419.975H5.6426e-06ZM5.20855e-06 429.905L5.29536e-06 427.919H2.00001L2.00001 429.905H5.20855e-06ZM4.7745e-06 439.835L4.86131e-06 437.849H2V439.835H4.7745e-06ZM4.34046e-06 449.765L4.42727e-06 447.779H2V449.765H4.34046e-06ZM3.90641e-06 459.694L3.99322e-06 457.708H2V459.694H3.90641e-06ZM3.47237e-06 469.624L3.55918e-06 467.638H2L2 469.624H3.47237e-06ZM3.03832e-06 479.554L3.12513e-06 477.568H2L2 479.554H3.03832e-06ZM2.60428e-06 489.484L2.69109e-06 487.498H2V489.484H2.60428e-06ZM2.17023e-06 499.414L2.25704e-06 497.428H2V499.414H2.17023e-06ZM1.73618e-06 509.343L1.82299e-06 507.357H2V509.343H1.73618e-06ZM1.30214e-06 519.273L1.38895e-06 517.287H2V519.273H1.30214e-06ZM8.68092e-07 529.203L9.54901e-07 527.217H2L2 529.203H8.68092e-07ZM4.34046e-07 539.133L5.20855e-07 537.147H2L2 539.133H4.34046e-07ZM0 549.063L8.68092e-08 547.077H2V549.063H0Z" fill="white"/>
</svg>
