<svg width="2456" height="301" viewBox="0 0 2456 301" fill="none" xmlns="http://www.w3.org/2000/svg">
<path fill-rule="evenodd" clip-rule="evenodd" d="M241.376 76.9238H162.14V301H80.0519V76.9238H0.815918V0.799805H241.376V76.9238ZM81.0519 75.9238V300H161.14V75.9238H240.376V1.7998H1.81592V75.9238H81.0519ZM475.163 225.302V301H256.329V0.799805H473.459V76.4978H338.417V113.69H444.491V188.11H338.417V225.302H475.163ZM337.417 187.11H443.491V114.69H337.417V75.4978H472.459V1.7998H257.329V300H474.163V226.302H337.417V187.11ZM715.705 300L699.517 253.566H581.089L564.901 300H480.553L595.147 1.7998H685.459L800.053 300H715.705ZM581.8 254.566L565.612 301H479.098L594.46 0.799805H686.146L801.509 301H714.995L698.807 254.566H581.8ZM639.451 87.8518H641.155L674.809 183.276H605.797L639.451 87.8518ZM640.159 88.8518H640.448L673.396 182.276H607.21L640.159 88.8518ZM810.495 0.799805H901.135L978.667 149.048H978.734L1056.27 0.799805H1146.91V301H1065.24V135.036L1008.91 240.508H948.922L892.158 135.027V301H810.495V0.799805ZM892.435 133.434L949.52 239.508H1008.31L1064.97 133.434H1066.24V300H1145.91V1.7998H1056.87L979.34 150.048H978.062L900.529 1.7998H811.495V300H891.158V133.434H892.435ZM1550.26 76.9238H1471.02V301H1388.94V76.9238H1309.7V0.799805H1550.26V76.9238ZM1389.94 75.9238V300H1470.02V75.9238H1549.26V1.7998H1310.7V75.9238H1389.94ZM1784.05 225.302V301H1565.21V0.799805H1782.34V76.4978H1647.3V113.69H1753.38V188.11H1647.3V225.302H1784.05ZM1646.3 187.11H1752.38V114.69H1646.3V75.4978H1781.34V1.7998H1566.21V300H1783.05V226.302H1646.3V187.11ZM2024.59 300L2008.4 253.566H1889.97L1873.79 300H1789.44L1904.03 1.7998H1994.34L2108.94 300H2024.59ZM1890.68 254.566L1874.5 301H1787.98L1903.35 0.799805H1995.03L2110.39 301H2023.88L2007.69 254.566H1890.68ZM1948.34 87.8518H1950.04L1983.69 183.276H1914.68L1948.34 87.8518ZM1949.04 88.8518H1949.33L1982.28 182.276H1916.1L1949.04 88.8518ZM2119.38 0.799805H2210.02L2287.55 149.048H2287.62L2365.15 0.799805H2455.79V301H2374.13V135.036L2317.79 240.508H2257.81L2201.04 135.027V301H2119.38V0.799805ZM2201.32 133.434L2258.4 239.508H2317.19L2373.85 133.434H2375.13V300H2454.79V1.7998H2365.76L2288.22 150.048H2286.95L2209.41 1.7998H2120.38V300H2200.04V133.434H2201.32Z" fill="white"/>
</svg>
