<svg width="760" height="1" viewBox="0 0 760 1" fill="none" xmlns="http://www.w3.org/2000/svg">
<path fill-rule="evenodd" clip-rule="evenodd" d="M5.9375 0.999999L8.74228e-08 1L0 0L5.9375 -5.19073e-07L5.9375 0.999999ZM29.6875 0.999997L17.8125 0.999998L17.8125 -1.55722e-06L29.6875 -2.59536e-06L29.6875 0.999997ZM53.4375 0.999995L41.5625 0.999996L41.5625 -3.63351e-06L53.4375 -4.67166e-06L53.4375 0.999995ZM77.1875 0.999993L65.3125 0.999994L65.3125 -5.7098e-06L77.1875 -6.74795e-06L77.1875 0.999993ZM100.938 0.999991L89.0625 0.999992L89.0625 -7.78609e-06L100.938 -8.82424e-06L100.938 0.999991ZM124.688 0.999989L112.813 0.99999L112.812 -9.86238e-06L124.688 -1.09005e-05L124.688 0.999989ZM148.438 0.999987L136.563 0.999988L136.562 -1.19387e-05L148.438 -1.29768e-05L148.438 0.999987ZM172.188 0.999985L160.313 0.999986L160.312 -1.4015e-05L172.188 -1.50531e-05L172.188 0.999985ZM195.938 0.999983L184.063 0.999984L184.062 -1.60913e-05L195.938 -1.71294e-05L195.938 0.999983ZM219.688 0.999981L207.813 0.999982L207.812 -1.81675e-05L219.688 -1.92057e-05L219.688 0.999981ZM243.438 0.999979L231.563 0.99998L231.562 -2.02438e-05L243.438 -2.1282e-05L243.438 0.999979ZM267.188 0.999977L255.313 0.999978L255.312 -2.23201e-05L267.188 -2.33583e-05L267.188 0.999977ZM290.938 0.999975L279.063 0.999976L279.062 -2.43964e-05L290.938 -2.54346e-05L290.938 0.999975ZM314.688 0.999972L302.813 0.999974L302.812 -2.64727e-05L314.688 -2.75109e-05L314.688 0.999972ZM338.438 0.99997L326.563 0.999971L326.562 -2.8549e-05L338.438 -2.95871e-05L338.438 0.99997ZM362.188 0.999968L350.313 0.999969L350.312 -3.06253e-05L362.188 -3.16634e-05L362.188 0.999968ZM385.938 0.999966L374.063 0.999967L374.062 -3.27016e-05L385.938 -3.37397e-05L385.938 0.999966ZM409.688 0.999964L397.813 0.999965L397.812 -3.47779e-05L409.688 -3.5816e-05L409.688 0.999964ZM433.438 0.999962L421.563 0.999963L421.562 -3.68542e-05L433.438 -3.78923e-05L433.438 0.999962ZM457.188 0.99996L445.313 0.999961L445.312 -3.89305e-05L457.188 -3.99686e-05L457.188 0.99996ZM480.938 0.999958L469.063 0.999959L469.062 -4.10067e-05L480.938 -4.20449e-05L480.938 0.999958ZM504.688 0.999956L492.813 0.999957L492.812 -4.3083e-05L504.688 -4.41212e-05L504.688 0.999956ZM528.438 0.999954L516.563 0.999955L516.562 -4.51593e-05L528.438 -4.61975e-05L528.438 0.999954ZM552.188 0.999952L540.313 0.999953L540.312 -4.72356e-05L552.188 -4.82738e-05L552.188 0.999952ZM575.938 0.99995L564.063 0.999951L564.062 -4.93119e-05L575.938 -5.03501e-05L575.938 0.99995ZM599.688 0.999948L587.813 0.999949L587.812 -5.13882e-05L599.688 -5.24264e-05L599.688 0.999948ZM623.438 0.999945L611.563 0.999947L611.562 -5.34645e-05L623.438 -5.45026e-05L623.438 0.999945ZM647.188 0.999943L635.313 0.999944L635.312 -5.55408e-05L647.188 -5.65789e-05L647.188 0.999943ZM670.938 0.999941L659.063 0.999942L659.062 -5.76171e-05L670.938 -5.86552e-05L670.938 0.999941ZM694.688 0.999939L682.813 0.99994L682.812 -5.96934e-05L694.688 -6.07315e-05L694.688 0.999939ZM718.438 0.999937L706.563 0.999938L706.562 -6.17697e-05L718.438 -6.28078e-05L718.438 0.999937ZM742.188 0.999935L730.313 0.999936L730.312 -6.3846e-05L742.188 -6.48841e-05L742.188 0.999935ZM760 0.999934L754.063 0.999934L754.062 -6.59222e-05L760 -6.64413e-05L760 0.999934Z" fill="#AE3131"/>
</svg>
