<svg width="3" height="646" viewBox="0 0 3 646" fill="none" xmlns="http://www.w3.org/2000/svg">
<path fill-rule="evenodd" clip-rule="evenodd" d="M2.50003 0.5L2.50003 5.5L0.500028 5.49999L0.500028 0.5H2.50003ZM2.50003 10.5V15.5H0.500028L0.500028 10.5H2.50003ZM2.50003 20.5V25.5H0.500027L0.500027 20.5H2.50003ZM2.50003 30.5V35.5H0.500027L0.500027 30.5H2.50003ZM2.50003 40.5V45.5H0.500026L0.500026 40.5H2.50003ZM2.50003 50.5V55.5H0.500026L0.500026 50.5H2.50003ZM2.50003 60.5V65.5H0.500025L0.500026 60.5H2.50003ZM2.50003 70.5L2.50002 75.5H0.500025L0.500025 70.5H2.50003ZM2.50002 80.5L2.50002 85.5H0.500024L0.500025 80.5H2.50002ZM2.50002 90.5L2.50002 95.5L0.500024 95.5L0.500024 90.5H2.50002ZM2.50002 100.5L2.50002 105.5H0.500024L0.500024 100.5H2.50002ZM2.50002 110.5L2.50002 115.5H0.500023L0.500023 110.5H2.50002ZM2.50002 120.5L2.50002 125.5H0.500023L0.500023 120.5H2.50002ZM2.50002 130.5V135.5H0.500022L0.500022 130.5H2.50002ZM2.50002 140.5V145.5H0.500022L0.500022 140.5H2.50002ZM2.50002 150.5V155.5H0.500021L0.500022 150.5H2.50002ZM2.50002 160.5V165.5H0.500021L0.500021 160.5H2.50002ZM2.50002 170.5V175.5H0.500021L0.500021 170.5H2.50002ZM2.50002 180.5V185.5H0.50002L0.50002 180.5H2.50002ZM2.50002 190.5L2.50002 195.5H0.50002L0.50002 190.5H2.50002ZM2.50002 200.5L2.50002 205.5H0.500019L0.500019 200.5H2.50002ZM2.50002 210.5L2.50002 215.5H0.500019L0.500019 210.5H2.50002ZM2.50002 220.5L2.50002 225.5H0.500018L0.500019 220.5H2.50002ZM2.50002 230.5L2.50002 235.5H0.500018L0.500018 230.5H2.50002ZM2.50002 240.5L2.50002 245.5H0.500017L0.500018 240.5H2.50002ZM2.50002 250.5V255.5H0.500017L0.500017 250.5H2.50002ZM2.50002 260.5V265.5H0.500017L0.500017 260.5H2.50002ZM2.50002 270.5V275.5H0.500016L0.500016 270.5H2.50002ZM2.50002 280.5V285.5H0.500016L0.500016 280.5H2.50002ZM2.50002 290.5V295.5H0.500015L0.500015 290.5H2.50002ZM2.50001 300.5V305.5H0.500015L0.500015 300.5H2.50001ZM2.50001 310.5L2.50001 315.5H0.500014L0.500015 310.5H2.50001ZM2.50001 320.5L2.50001 325.5H0.500014L0.500014 320.5H2.50001ZM2.50001 330.5L2.50001 335.5H0.500014L0.500014 330.5H2.50001ZM2.50001 340.5L2.50001 345.5H0.500013L0.500013 340.5H2.50001ZM2.50001 350.5L2.50001 355.5H0.500013L0.500013 350.5H2.50001ZM2.50001 360.5L2.50001 365.5H0.500012L0.500012 360.5H2.50001ZM2.50001 370.5V375.5H0.500012L0.500012 370.5H2.50001ZM2.50001 380.5V385.5H0.500011L0.500012 380.5H2.50001ZM2.50001 390.5V395.5H0.500011L0.500011 390.5H2.50001ZM2.50001 400.5V405.5H0.50001L0.500011 400.5H2.50001ZM2.50001 410.5V415.5H0.50001L0.50001 410.5H2.50001ZM2.50001 420.5V425.5H0.50001L0.50001 420.5H2.50001ZM2.50001 430.5L2.50001 435.5H0.500009L0.500009 430.5H2.50001ZM2.50001 440.5L2.50001 445.5H0.500009L0.500009 440.5H2.50001ZM2.50001 450.5L2.50001 455.5H0.500008L0.500009 450.5H2.50001ZM2.50001 460.5L2.50001 465.5H0.500008L0.500008 460.5H2.50001ZM2.50001 470.5L2.50001 475.5H0.500007L0.500008 470.5H2.50001ZM2.50001 480.5L2.50001 485.5H0.500007L0.500007 480.5H2.50001ZM2.50001 490.5V495.5H0.500007L0.500007 490.5H2.50001ZM2.50001 500.5V505.5H0.500006L0.500006 500.5H2.50001ZM2.50001 510.5V515.5H0.500006L0.500006 510.5H2.50001ZM2.50001 520.5V525.5H0.500005L0.500005 520.5H2.50001ZM2.5 530.5V535.5H0.500005L0.500005 530.5H2.5ZM2.5 540.5V545.5H0.500004L0.500005 540.5H2.5ZM2.5 550.5L2.5 555.5H0.500004L0.500004 550.5H2.5ZM2.5 560.5L2.5 565.5H0.500003L0.500004 560.5H2.5ZM2.5 570.5L2.5 575.5H0.500003L0.500003 570.5H2.5ZM2.5 580.5L2.5 585.5H0.500003L0.500003 580.5H2.5ZM2.5 590.5L2.5 595.5H0.500002L0.500002 590.5H2.5ZM2.5 600.5L2.5 605.5H0.500002L0.500002 600.5H2.5ZM2.5 610.5V615.5H0.500001L0.500001 610.5H2.5ZM2.5 620.5V625.5H0.500001L0.500001 620.5H2.5ZM2.5 630.5V635.5H0.5L0.500001 630.5H2.5ZM2.5 640.5V645.5H0.5L0.5 640.5H2.5Z" fill="white"/>
</svg>
