<?xml version="1.0" encoding="UTF-8"?><svg id="Layer_2" xmlns="http://www.w3.org/2000/svg" viewBox="0 0 684.19 569.5"><defs><style>.cls-1{fill:#fff;}</style></defs><g id="Layer_1-2"><path class="cls-1" d="M684.19,36.64c-1.17,6.58-2.36,13.94-3.8,21.25-1.46,7.42-3.14,14.79-4.73,22.18-1.59,7.39-3.19,14.78-4.76,22.17-1.54,7.23-3.05,14.47-4.59,21.7-1.58,7.39-3.19,14.78-4.78,22.17-1.5,6.99-2.98,13.98-4.47,20.96-1.63,7.64-3.28,15.27-4.9,22.91-1.52,7.15-3.01,14.31-4.53,21.46-1.55,7.31-3.14,14.62-4.7,21.93-1.56,7.31-3.1,14.63-4.67,21.94-1.58,7.39-3.19,14.78-4.77,22.17-1.51,7.07-2.99,14.14-4.5,21.21-1.61,7.56-3.26,15.1-4.87,22.66-1.54,7.23-3.02,14.48-4.56,21.71-1.56,7.31-3.18,14.61-4.75,21.92-1.53,7.15-3.03,14.31-4.55,21.46-1.58,7.39-3.17,14.78-4.75,22.18-1.53,7.15-3.04,14.3-4.57,21.45-1.62,7.56-3.25,15.11-4.86,22.66-1.52,7.15-3,14.31-4.53,21.46-1.58,7.39-3.21,14.78-4.79,22.17-1.54,7.23-2.95,14.49-4.59,21.7-2.56,11.23-4,22.77-9.23,33.27-4.04,8.11-9.61,14.62-18.66,17.16-5.21,1.46-10.55,1.12-15.82-.02-10.44-2.26-18.92-8.16-27.31-14.37-23.11-17.1-46.31-34.06-69.5-51.05-24.13-17.67-48.32-35.26-72.41-52.98-5.39-3.96-4.69-3.49-9.07,.69-25.68,24.52-51.35,49.04-77.05,73.54-6.51,6.21-14.31,9.49-23.3,10.01-2.12,.12-2.73-.64-2.58-2.75,1.62-22.84,3.12-45.68,4.75-68.52,2.04-28.57,4.17-57.12,6.35-85.68,.09-1.18,.75-2.6,1.62-3.39,25.74-23.23,51.54-46.39,77.33-69.56,30.68-27.55,61.38-55.1,92.06-82.65,21.9-19.66,43.8-39.34,65.7-59,17.94-16.11,35.9-32.2,53.83-48.33,1.41-1.27,2.73-2.71,3.84-4.25,2.86-3.98,1.05-7.84-3.82-8.36-6.18-.66-11.74,1.33-16.81,4.48-21.52,13.34-42.93,26.85-64.39,40.27-21.81,13.64-43.66,27.24-65.47,40.89-20.9,13.08-41.75,26.22-62.65,39.29-18.22,11.4-36.48,22.74-54.71,34.13-18.65,11.66-37.27,23.36-55.92,35.02-18.36,11.49-36.78,22.9-55.07,34.51-2.66,1.69-4.79,2.38-7.97,1.25-8.05-2.85-16.28-5.18-24.45-7.7-7.93-2.45-15.88-4.84-23.8-7.31-6.41-2-12.79-4.1-19.2-6.1-6.42-2-12.87-3.91-19.29-5.9-7.85-2.43-15.68-4.93-23.52-7.37-6.34-1.98-12.73-3.81-19.03-5.89-10.71-3.53-21.52-6.82-31.99-10.95-5.95-2.35-11.05-6.39-13.66-12.78-1.79-4.36-.89-8.31,1.37-12.1,4.11-6.9,10.36-11.59,17.43-14.79,10.93-4.95,22.17-9.24,33.34-13.67,12.03-4.77,24.11-9.41,36.19-14.05,10.99-4.22,22.03-8.34,33.03-12.54,9.84-3.76,19.66-7.57,29.49-11.33,8.83-3.38,17.68-6.7,26.5-10.08,8.6-3.29,17.18-6.63,25.77-9.93,7.43-2.86,14.86-5.7,22.29-8.56,7.74-2.97,15.47-5.97,23.23-8.93,7.59-2.89,15.21-5.72,22.81-8.61,7.29-2.77,14.56-5.56,21.84-8.36,8.83-3.39,17.65-6.79,26.47-10.19,9.98-3.85,19.95-7.72,29.94-11.54,9.84-3.77,19.69-7.49,29.54-11.23,8.6-3.27,17.2-6.56,25.8-9.84,8.99-3.43,17.99-6.82,26.97-10.28,9.83-3.78,19.62-7.64,29.45-11.42,9.76-3.75,19.55-7.41,29.31-11.14,8.83-3.38,17.63-6.81,26.46-10.19,8.6-3.29,17.22-6.53,25.82-9.82,8.83-3.38,17.64-6.81,26.46-10.19,9.84-3.76,19.7-7.46,29.54-11.23,8.67-3.32,17.29-6.78,26-10.02,6.45-2.4,12.85-5.25,19.53-6.66,11.56-2.44,22.45-.9,30.59,8.97,3.28,3.98,5.33,8.62,6.26,13.68,.73,3.98,1.14,8.02,1.83,12.97Z"/></g></svg>