<?xml version="1.0" encoding="UTF-8"?><svg id="Layer_2" xmlns="http://www.w3.org/2000/svg" viewBox="0 0 719.38 503.66"><defs><style>.cls-1{fill:#fff;}</style></defs><g id="Layer_1-2"><path class="cls-1" d="M349.79,0c32.66,.49,73.29,.89,113.9,1.77,25.22,.54,50.43,1.65,75.63,2.78,14.13,.63,28.27,1.57,42.36,2.81,13.58,1.2,27.17,2.6,40.66,4.6,8.76,1.3,17.56,3.16,25.93,6,15.32,5.2,28.09,14.47,38.52,26.91,7.18,8.56,12.68,18.11,16.13,28.67,2.18,6.68,3.58,13.63,5,20.53,1.49,7.24,2.67,14.55,3.84,21.85,.72,4.51,1.32,9.06,1.74,13.61,1.12,12.18,2.54,24.35,3.09,36.55,1.24,27.77,2.62,55.55,2.8,83.34,.15,23.7-1.19,47.42-2.08,71.12-.41,10.81-1.1,21.62-2.06,32.39-1.09,12.25-2.51,24.48-4.02,36.7-.92,7.42-2.22,14.79-3.45,22.17-3.9,23.25-13.49,43.46-31.77,58.97-8.97,7.61-19,13.48-30.22,16.89-7.28,2.21-14.84,3.7-22.39,4.79-11.85,1.7-23.77,3.01-35.7,4.05-13.18,1.14-26.4,2.01-39.62,2.6-26.78,1.2-53.56,2.43-80.36,3.09-33.71,.82-67.43,1.45-101.14,1.48-36.04,.03-72.09-.54-108.13-1.24-23.97-.47-47.94-1.33-71.88-2.56-21.53-1.11-43.03-2.74-64.51-4.58-11.17-.96-22.32-2.55-33.37-4.44-21.56-3.67-40.05-13.31-54.61-29.85-7.86-8.93-14.12-18.94-17.45-30.42-2.4-8.27-4.22-16.73-5.94-25.18-3.77-18.53-5.32-37.37-6.9-56.17-1.14-13.51-1.48-27.09-2.28-40.63C-.49,275.49-.23,242.36,.76,209.24c.51-17.21,1.54-34.42,2.78-51.6,.89-12.35,2.41-24.67,3.87-36.97,.97-8.17,2.17-16.31,3.53-24.42,3.2-19.19,9.2-37.2,22.29-52.19,8.73-10,18.89-18.06,30.96-23.77,10.67-5.05,21.97-7.43,33.56-8.81,11.07-1.31,22.11-2.85,33.21-3.82,12.77-1.12,25.57-1.94,38.37-2.53,26.28-1.19,52.56-2.38,78.86-3.12,31.21-.87,62.43-1.26,101.61-2.01Zm124.91,252.21c-1.09-.87-1.74-1.52-2.51-1.97-13.29-7.66-26.59-15.29-39.89-22.92-11.58-6.65-23.16-13.28-34.73-19.95-10.84-6.25-21.65-12.57-32.51-18.81-12.58-7.23-25.19-14.39-37.77-21.62-11.79-6.78-23.53-13.63-35.31-20.41-3.9-2.24-3.94-2.18-3.94,2.42,0,68.76,0,137.52,0,206.28,0,.58-.01,1.17,0,1.75,.09,2.39,.53,2.59,2.64,1.36,6.38-3.71,12.77-7.4,19.17-11.08,15.96-9.16,31.94-18.3,47.9-27.47,13.66-7.85,27.28-15.74,40.94-23.6,12.43-7.16,24.88-14.29,37.31-21.44,10.2-5.87,20.4-11.74,30.59-17.64,2.62-1.52,5.2-3.13,8.1-4.89Z"/></g></svg>