<svg xmlns="http://www.w3.org/2000/svg" width="337.338" height="331.011" viewBox="0 0 337.338 331.011">
  <g id="Rdchzy" transform="translate(-1029.764 511.453)">
    <g id="Group_4" data-name="Group 4">
      <path id="Path_6" data-name="Path 6" d="M1135.153-484.355c7.656,0,15.316-.128,22.967.053a15.356,15.356,0,0,0,10.124-3.4c9.535-7.243,19.3-14.189,28.777-21.5,3.776-2.913,6.711-3.091,10.567.021,11.255,9.085,22.857,17.739,34.168,26.757a12.874,12.874,0,0,0,8.7,2.874c14.157-.1,28.315.02,42.473-.086,3.3-.024,4.994.678,5.654,4.462,2.277,13.064,5.137,26.025,7.576,39.063.642,3.432,2.144,5.709,5.336,7.2,12.671,5.895,25.182,12.149,37.974,17.763,3.907,1.715,4.3,3.9,3.663,7.353-2.695,14.523-5.234,29.075-8.063,43.571a8.517,8.517,0,0,0,.951,6.114c6.7,12.636,13.217,25.368,20.036,37.937,1.658,3.058,1.372,5.019-1.1,7.36-10.521,9.951-20.844,20.113-31.382,30.045a11.939,11.939,0,0,0-4.206,10.112c.832,13.623-.674,27.3.88,40.914.34,2.977-1.333,3.717-3.73,4.129-9,1.546-17.984,3.189-26.985,4.731-8.188,1.4-16.37,2.861-24.6,4.005-3.244.452-4.974,2.539-6.66,4.766-6.429,8.487-12.882,16.962-19.067,25.627-2.807,3.933-5.186,5.328-10.144,2.716-11.473-6.046-23.391-11.246-35.086-16.878a10.983,10.983,0,0,0-9.935-.4c-12.69,5.434-25.618,10.309-38.315,15.725-3.325,1.418-5.133.738-7.148-1.907-8.564-11.24-17.272-22.371-25.891-33.569-2.87-3.729-6.13-5.869-11.272-6.1-13.086-.6-26.13-2.043-39.2-2.989-3.017-.219-3.44-1.825-3.462-4.288-.143-16.63-1.664-33.232-1.12-49.872.185-5.644-1.929-9.546-6.384-13.182-10.172-8.3-19.759-17.317-29.743-25.856-2.691-2.3-1.833-4.128-.329-6.384,7.37-11.055,14.644-22.175,22.086-33.182,2.313-3.423,3.682-6.56,2.591-11.028-3.581-14.661-6.485-29.487-9.985-44.17-1.061-4.451.264-6.292,4.451-7.533,14.19-4.207,28.273-8.77,42.448-13.031,3.1-.932,4.721-2.552,5.274-5.763,2.027-11.776,4.4-23.494,6.293-35.291,1.11-6.916,1.124-7.238,8.328-7.236q11.244,0,22.486,0Zm126.085,114.578c-.01-2.014-1.157-2.837-2.116-3.717-4.047-3.714-8.395-7.139-12.136-11.135-3.485-3.723-5.854-3.568-9.207.255-18.547,21.149-37.289,42.127-55.975,63.153-4.38,4.929-4.536,4.839-9.606.989-8.618-6.546-17.451-12.814-25.956-19.5-3.53-2.775-5.732-2.2-8.155,1.192-2.706,3.787-5.76,7.323-8.575,11.035-4.245,5.6-4.218,5.767,1.322,10.261,15.639,12.687,31.355,25.279,46.9,38.084,3.045,2.509,4.92,2.3,7.371-.646,8.093-9.718,16.384-19.272,24.577-28.907q24.58-28.9,49.131-57.835C1259.76-367.67,1260.583-368.9,1261.238-369.777Z" fill="#2d96e9"/>
      <path id="Path_7" data-name="Path 7" d="M1261.238-369.777c-.655.875-1.478,2.107-2.43,3.23q-24.55,28.93-49.131,57.835c-8.193,9.635-16.484,19.189-24.577,28.907-2.451,2.942-4.326,3.155-7.371.646-15.54-12.8-31.256-25.4-46.9-38.084-5.54-4.494-5.567-4.664-1.322-10.261,2.815-3.712,5.869-7.248,8.575-11.035,2.423-3.39,4.625-3.967,8.155-1.192,8.505,6.685,17.338,12.953,25.956,19.5,5.07,3.85,5.226,3.94,9.606-.989,18.686-21.026,37.428-42,55.975-63.153,3.353-3.823,5.722-3.978,9.207-.255,3.741,4,8.089,7.421,12.136,11.135C1260.081-372.614,1261.228-371.791,1261.238-369.777Z" fill="#f6fafa"/>
    </g>
  </g>
</svg>
