<svg id="Group_4594" data-name="Group 4594" xmlns="http://www.w3.org/2000/svg" width="22" height="31.928" viewBox="0 0 22 31.928">
  <path id="Path_26530" data-name="Path 26530" d="M570.183,526.786c-.235.11-.326-.123-.583.033C569.707,526.8,570.035,526.912,570.183,526.786Z" transform="translate(-555.591 -509.627)" fill="#eb4544"/>
  <path id="Path_26531" data-name="Path 26531" d="M587.752,690.1c-.019.005-.036.014-.052.019l.016.025Z" transform="translate(-573.131 -666.579)" fill="#eb4544"/>
  <path id="Path_26532" data-name="Path 26532" d="M499.5,218.387a.467.467,0,0,1,.109-.047C499.525,218.359,499.5,218.242,499.5,218.387Z" transform="translate(-488.373 -214.783)" fill="#eb4544"/>
  <path id="Path_26533" data-name="Path 26533" d="M508.5,89.36v-.005h0Zm0-.005Z" transform="translate(-497.045 -89.349)" fill="#eb4544"/>
  <path id="Path_26534" data-name="Path 26534" d="M507.4,100.7Z" transform="translate(-495.988 -100.388)" fill="#eb4544"/>
  <path id="Path_26535" data-name="Path 26535" d="M507.365,96.809l.011-.109A.322.322,0,0,0,507.365,96.809Z" transform="translate(-495.951 -96.497)" fill="#eb4544"/>
  <path id="Path_26536" data-name="Path 26536" d="M539.047,277.714c-.005-.005-.011-.008-.014-.014a.17.17,0,0,0-.033.025l.052.008Z" transform="translate(-526.339 -270.325)" fill="#eb4544"/>
  <path id="Path_26537" data-name="Path 26537" d="M581.478,602.1c-.016.055-.131.118-.09.142C581.538,602.2,581.631,602.13,581.478,602.1Z" transform="translate(-567.022 -581.997)" fill="#eb4544"/>
  <path id="Path_26538" data-name="Path 26538" d="M493.3,274.121a.568.568,0,0,1,.118-.027C493.327,274.1,493.322,273.979,493.3,274.121Z" transform="translate(-482.415 -266.816)" fill="#eb4544"/>
  <path id="Path_26539" data-name="Path 26539" d="M523.2,148.16v.005s0-.005,0-.005v-.005h0Zm0-.005Z" transform="translate(-511.169 -146.54)" fill="#eb4544"/>
  <path id="Path_26540" data-name="Path 26540" d="M520.4,159.2Z" transform="translate(-508.479 -157.287)" fill="#eb4544"/>
  <path id="Path_26541" data-name="Path 26541" d="M520.4,155.407l.027-.107A.293.293,0,0,0,520.4,155.407Z" transform="translate(-508.473 -153.494)" fill="#eb4544"/>
  <path id="Path_26542" data-name="Path 26542" d="M753.808,149.577l-.008.074.022-.15C753.819,149.514,753.817,149.538,753.808,149.577Z" transform="translate(-732.462 -147.853)" fill="#eb4544"/>
  <path id="Path_26543" data-name="Path 26543" d="M754.7,148.672v.005C754.7,148.653,754.7,148.65,754.7,148.672Z" transform="translate(-733.338 -147.033)" fill="#eb4544"/>
  <path id="Path_26544" data-name="Path 26544" d="M749.161,157.651c0-.123.011-.15.016-.279a.539.539,0,0,1,.038-.159c.005-.041.022-.137.036-.213-.027.131-.066.3-.09.471-.011.036-.008,0-.008-.011C749.133,157.583,749.128,157.725,749.161,157.651Z" transform="translate(-727.927 -155.147)" fill="#eb4544"/>
  <path id="Path_26545" data-name="Path 26545" d="M593.184,684.758a.4.4,0,0,0,.03-.057C593.187,684.719,593.168,684.741,593.184,684.758Z" transform="translate(-578.399 -661.386)" fill="#eb4544"/>
  <path id="Path_26546" data-name="Path 26546" d="M662.7,430.551c.057.025.063-.074.093-.151Z" transform="translate(-645.18 -417.026)" fill="#eb4544"/>
  <path id="Path_26547" data-name="Path 26547" d="M701.542,357.318a.147.147,0,0,1-.041-.115.114.114,0,0,0-.071.008C701.413,357.255,701.5,357.29,701.542,357.318Z" transform="translate(-681.523 -346.701)" fill="#eb4544"/>
  <path id="Path_26548" data-name="Path 26548" d="M249.3,250.6s.005,0,.008,0S249.3,250.582,249.3,250.6Z" transform="translate(-248.382 -246.173)" fill="#eb4544"/>
  <path id="Path_26549" data-name="Path 26549" d="M256.1,161.482v-.005h0v-.005h0Zm0-.008v0Z" transform="translate(-254.995 -159.487)" fill="#eb4544"/>
  <path id="Path_26550" data-name="Path 26550" d="M667.4,427.519a.063.063,0,0,1,.027-.019.071.071,0,0,1-.022.008Z" transform="translate(-648.427 -414.264)" fill="#eb4544"/>
  <path id="Path_26551" data-name="Path 26551" d="M748.562,188.952l.005-.052A.131.131,0,0,0,748.562,188.952Z" transform="translate(-727.367 -186.174)" fill="#eb4544"/>
  <path id="Path_26552" data-name="Path 26552" d="M748.8,185.009a.591.591,0,0,0,.011-.109Z" transform="translate(-727.599 -182.284)" fill="#eb4544"/>
  <path id="Path_26553" data-name="Path 26553" d="M714.906,298.148l.1-.317c-.041.049-.1.118-.068-.03C714.75,298.186,715.016,297.729,714.906,298.148Z" transform="translate(-694.595 -289.603)" fill="#eb4544"/>
  <path id="Path_26554" data-name="Path 26554" d="M703.4,343.614c.005.115.008.145.068.022C703.5,343.46,703.419,343.627,703.4,343.614Z" transform="translate(-683.442 -333.585)" fill="#eb4544"/>
  <path id="Path_26555" data-name="Path 26555" d="M638.729,507.449l-.153-.049C638.568,507.537,638.636,507.414,638.729,507.449Z" transform="translate(-621.981 -491.026)" fill="#eb4544"/>
  <path id="Path_26556" data-name="Path 26556" d="M613.011,584.463,613,584.4l.011.235Z" transform="translate(-597.453 -564.966)" fill="#eb4544"/>
  <path id="Path_26557" data-name="Path 26557" d="M250.767,149.178c-.008-.025-.008-.027,0-.005Z" transform="translate(-249.802 -147.52)" fill="#eb4544"/>
  <path id="Path_26558" data-name="Path 26558" d="M251.144,150.045l-.044-.145c.005.016.011.038.022.077Z" transform="translate(-250.132 -148.242)" fill="#eb4544"/>
  <path id="Path_26559" data-name="Path 26559" d="M271.638,218.482a.461.461,0,0,0-.038-.082l.027.079A.016.016,0,0,1,271.638,218.482Z" transform="translate(-270.071 -214.867)" fill="#eb4544"/>
  <path id="Path_26560" data-name="Path 26560" d="M731.049,855.6c-.265-.183-.189-.246-.156-.323s.025-.167-.293-.375a.632.632,0,0,1,.088.3C730.715,855.319,730.775,855.456,731.049,855.6Z" transform="translate(-709.897 -824.352)" fill="#eb4544"/>
  <path id="Path_26561" data-name="Path 26561" d="M272.2,221.16a.093.093,0,0,1,.033.047c-.005-.019-.014-.038-.019-.057C272.205,221.146,272.2,221.146,272.2,221.16Z" transform="translate(-270.655 -217.54)" fill="#eb4544"/>
  <path id="Path_26562" data-name="Path 26562" d="M220.205,717.729c0-.041,0-.022-.005.041a.211.211,0,0,0,.005-.041Z" transform="translate(-220.078 -693.099)" fill="#eb4544"/>
  <path id="Path_26563" data-name="Path 26563" d="M234.574,412.79s.005,0,.005.005q0-.152.008-.3C234.528,412.566,234.5,412.645,234.574,412.79Z" transform="translate(-234.014 -399.803)" fill="#eb4544"/>
  <path id="Path_26564" data-name="Path 26564" d="M223.5,738.5l.115.326C223.571,738.627,223.53,738.5,223.5,738.5Z" transform="translate(-223.288 -712.984)" fill="#eb4544"/>
  <path id="Path_26565" data-name="Path 26565" d="M215.76,868.575c0-.047,0-.1,0-.175A.168.168,0,0,0,215.76,868.575Z" transform="translate(-215.736 -837.482)" fill="#eb4544"/>
  <path id="Path_26566" data-name="Path 26566" d="M606.2,846.5a.242.242,0,0,0-.1.06l.1-.008A.314.314,0,0,1,606.2,846.5Z" transform="translate(-590.796 -816.181)" fill="#eb4544"/>
  <path id="Path_26567" data-name="Path 26567" d="M216.527,877.6h0C216.524,877.646,216.524,877.644,216.527,877.6Z" transform="translate(-216.503 -846.43)" fill="#eb4544"/>
  <path id="Path_26568" data-name="Path 26568" d="M217.555,721.148l.008.036c.011-.517.022-.933.03-1.084A2.693,2.693,0,0,0,217.555,721.148Z" transform="translate(-217.471 -695.04)" fill="#eb4544"/>
  <path id="Path_26569" data-name="Path 26569" d="M764.65,874.912c-.019-.019-.047-.014-.079.016a.109.109,0,0,1,.014-.06.293.293,0,0,0-.088.192.629.629,0,0,0,.1-.14c.025-.005.036.036.025.068.008-.014.022,0,.036,0,0,.036.005.066.008.093h0c.008.066.016.1.022.077l.057.008a1.61,1.61,0,0,0-.131-.763C764.628,874.611,764.642,874.78,764.65,874.912Z" transform="translate(-742.866 -843.318)" fill="#eb4544"/>
  <path id="Path_26570" data-name="Path 26570" d="M216.688,874.96a.193.193,0,0,1-.085-.06.554.554,0,0,1,0,.074Z" transform="translate(-216.576 -843.804)" fill="#eb4544"/>
  <path id="Path_26571" data-name="Path 26571" d="M236.4,388.858l.016.014C236.414,388.811,236.408,388.8,236.4,388.858Z" transform="translate(-235.835 -377.092)" fill="#eb4544"/>
  <path id="Path_26572" data-name="Path 26572" d="M756.212,392.983c.008-.167.019-.26.036-.208-.038-.036-.036-.109-.06-.175a.112.112,0,0,1-.036.022,1.657,1.657,0,0,0-.052.181A.8.8,0,0,1,756.212,392.983Z" transform="translate(-734.699 -380.67)" fill="#eb4544"/>
  <path id="Path_26573" data-name="Path 26573" d="M756.8,827.438s0,.005,0,.008a1.818,1.818,0,0,0,.246-.186.686.686,0,0,0,.052.6c-.016-.268-.036-.561-.058-.865A.735.735,0,0,1,756.8,827.438Z" transform="translate(-735.38 -797.215)" fill="#eb4544"/>
  <path id="Path_26574" data-name="Path 26574" d="M768.018,858.715a.364.364,0,0,1-.118-.115c0,.063.008.126.011.186A.132.132,0,0,0,768.018,858.715Z" transform="translate(-746.177 -827.95)" fill="#eb4544"/>
  <path id="Path_26575" data-name="Path 26575" d="M756.246,393.5l-.041.025c0,.019,0,.041-.005.063C756.222,393.577,756.233,393.549,756.246,393.5Z" transform="translate(-734.797 -381.583)" fill="#eb4544"/>
  <path id="Path_26576" data-name="Path 26576" d="M240.756,119.175c-.18-.708,0-.756.192-.89a.532.532,0,0,0,.188-.206c.012.138.02.277.031.411a6.461,6.461,0,0,0,.1-.914c.031.063.063.123.094.19a4.852,4.852,0,0,1-.055-.621,2.278,2.278,0,0,1,.141-.558.164.164,0,0,1-.165.036.84.84,0,0,0-.008-.1.551.551,0,0,0,.063-.02.553.553,0,0,1-.071-.123c0-.047,0-.091-.008-.138l-.02-.214c-.008-.036-.02-.067-.027-.1a.418.418,0,0,0,.082-.051l.075,0c0-.032.012-.063.016-.095a1.243,1.243,0,0,0,.086-.649h-.012a4.65,4.65,0,0,0-.035-.732l.227.142c.02-.376-.918-.506-.929-.855l.471-.087c0-.657.4-1.31-.008-1.974.067.012.2.036.212.142.012-.309.294-1.187-.306-1.1.392,0,.039-.677-.125-1.037l.282.063c-.357-.313-.455-.324-.545-.748.031-.083.169-.083.165,0,.078-.265-.263-.241-.118-.613l.173.154c.024-.34-.071-.317-.267-.51a.569.569,0,0,1,.314-.684c-.145-.051-.333-.245-.263-.443.086-.024.141.051.169.087.176-.562-.282-.855-.035-1.238a.189.189,0,0,0,.149-.059,4.128,4.128,0,0,1-.043.779c.235.008.271-.356.6-.055-.18-.3-.553-.811-.447-1.167a.242.242,0,0,1,.078-.044l.024.04a.3.3,0,0,0-.035-.226.871.871,0,0,0,.063-.293c.18-.036.094-.415.1-.6-.173,0-.2-.123-.274-.1a1.667,1.667,0,0,0-.024-.593.459.459,0,0,1,.2-.182,8.388,8.388,0,0,0-.271-1.357c-.012.273-.023.681-.039,1.1-.012-.04-.024-.075-.035-.115a2.392,2.392,0,0,1-.09-1.246.626.626,0,0,0-.047-.059.132.132,0,0,1,.059-.166,12.936,12.936,0,0,0,.023-1.99,12.428,12.428,0,0,1,.071-2.065,1.339,1.339,0,0,0-.1-.661l.094-.079-.1-.4a13.1,13.1,0,0,0,.067-1.689l-.039.091a5.832,5.832,0,0,1,.02-.772.425.425,0,0,1-.016-.186l.02-.008c-.012-.21-.024-.423-.027-.633.012-.491.059.079.039-.637-.012-.2-.024-.522-.027-.633,0,.107,0,.249,0,.257l0-.241v-.036c0,.044-.016.154-.047.4-.012.138-.024.277-.031.415l-.027.135.039-.348a2.777,2.777,0,0,0-.043.463.9.9,0,0,0-.039.174c0,.135,0,.273,0,.408-.024.04-.024-.1-.047-.012a.172.172,0,0,0-.133,0v0a.159.159,0,0,0-.035.02,1.728,1.728,0,0,0,.012-.21l-.043.186c.02-.107.035-.051.027.028a.156.156,0,0,0-.055.1c-.008.087-.02.174-.027.261,0,0-.008.008-.008.012l.027-.186a5.045,5.045,0,0,0-.2,1.12l-.051-.17c0,.131-.008.265-.008.4-.039.075-.1.123-.074-.063-.1.257-.016.241-.118.459-.016.024-.016.012-.016-.012l-.027.265c-.012-.055-.082.028-.031-.127-.173.451-.082.768-.212.926v-.04c-.1.657.075.079.09.593-.1.091-.208.186-.322.273l.09.087c-.02.067-.055.2-.094.162.02.265.055-.032.1.127-.173.3-.133.9-.345.93.071.135.137-.277.133.055q-.018,0,0,.012h0a.193.193,0,0,0-.027.012h0a.182.182,0,0,0-.1.17c-.008,0-.016,0-.023,0a.161.161,0,0,1,.023.008c0,.04,0,.079,0,.127-.012,0-.024,0-.039-.008a.17.17,0,0,0,.039.008c0,.032,0,.059,0,.091a.41.41,0,0,1-.09-.028c0,.012.039.02.09.032v.02a.324.324,0,0,0-.051-.008.316.316,0,0,0,.051.024.679.679,0,0,1-.024.123.035.035,0,0,1-.02,0c-.024.012-.008.024.008.036a.483.483,0,0,1-.035.079c-.1-.115.027-.38-.149-.107.165.222-.176.562-.2.815.09.024.074.178.031.376h-.008s0,0,0,0,0,.028-.008.04c-.02,0-.031,0,0,.016v0l-.012,0a.045.045,0,0,0,0,.032,3.722,3.722,0,0,0-.09.514c-.023-.016-.071.095-.129.253l.11-.506-.153.491-.188.479-.251.455.059.32c-.071.119-.141.237-.208.356v0a.087.087,0,0,1-.012.02l-.016-.028c.071-.115.145-.226.208-.34-.024-.182-.063-.364-.1-.542a3.206,3.206,0,0,0,.341-.993c.043-.051.09-.107.141-.17l-.039-.083c-.02-.04-.043-.075-.063-.115,0-.032.008-.059.008-.087a.214.214,0,0,0-.027.051c-.047-.091-.094-.178-.141-.269.086-.135.173-.273.255-.411-.024-.182-.063-.364-.1-.542a3.272,3.272,0,0,0,.392-1.444c-.282.479-.467.894-.761,1.325-.043.067-.031.055-.02.131.027.154.051.309.082.463-.09.162-.173.328-.251.495.055.071.114.138.173.21-.09.162-.176.324-.263.479-.008-.067-.016-.119-.027-.123s0,.055,0,.162c-.035.059-.074.123-.114.186a.155.155,0,0,0-.165-.1c.02-.008.043.095.063.269,0,0,0,.008-.008.012-.039.059-.035.059-.023.111a.161.161,0,0,0-.18.079c.078.107-.078.316.137.368-.024.107-.133.1-.2.135.055.21-.176.882.114.72l.027-.044c0,.012,0,.02,0,.032.1.665-.416,1.254-.451,1.883l-.082-.02c.016.384-.125.823,0,1.124-.023.107-.212.222-.306.154,0,.293.1.344-.137.716-.094-.313-.161.067-.051-.313-.157.348-.325.4-.165.839-.2-.182-.357.21-.329.4l.227-.218a1.777,1.777,0,0,1-.129.534l-.294-.158c-.569.657.361,1.476-.435,1.9.188.245.255-.368.486-.135a.557.557,0,0,1-.051.095c-.071.071-.133.142-.2.218-.2.174-.447.309-.463.376a.339.339,0,0,0,.035.463,2.17,2.17,0,0,0-.082.51c0,.055,0,.111,0,.166a.219.219,0,0,0-.051.028l.051.032a1.071,1.071,0,0,1,0,.115c-.129.186-.22.514-.376.384.059.281.18.154.29-.024-.282.4-.161.681-.388,1.108.086-.055.255-.091.235-.02a.581.581,0,0,0-.094.352.523.523,0,0,0-.141.055c-.012.008-.02.02-.031.028l-.239.032a.359.359,0,0,0,.173.028.538.538,0,0,0-.071.063.5.5,0,0,0-.106.2c-.008.051-.016.107-.02.158a.565.565,0,0,0,.067.265c-.1-.032-.184-.158-.235-.241a.519.519,0,0,1,.02.265.487.487,0,0,0-.416-.016c.8-.3-.106-.673.588-.942a1.81,1.81,0,0,1-.227-.522c.082,0,.133-.008.106.024.235-.233-.776-.075-.518-.34.423-.158.243.111.4.02.882-.1-.141-.285.369-.491l.055.036c.294-.15-.357-.281-.306-.495a.627.627,0,0,0,.133-.008,1.206,1.206,0,0,1-.776-.55c.357.036.192.075.545.012-.055-.083-.569.071-.682-.1A2.22,2.22,0,0,1,234,110.4l.031.166c.486-.123-.031-.214.047-.309l.216,0c-.086-.249-.631-.214-.612-.491l-.161.04c-.549-.111.294-.15-.118-.269l.545-.087a2.829,2.829,0,0,1-.671-.479,3.087,3.087,0,0,1,.89.372.366.366,0,0,0-.337-.36c.055.036.192.075.114.123q-.659-.131-.671-.427c1.067-.047.231-.53,1.047-.74-.42-.317.114-.7.02-1.1-.816.206-.031-.115-.878-.028-.059-.087-.051-.127,0-.138l-.031.024c.016-.008.024-.016.039-.024h0l.482-.324c.239-.087.192.075.384.051.047-.21.353-.115.565-.269-.3.051-.439-.04-.333-.166l-.376.194c-.474-.253.686-.3.216-.558l.274.071c-.169-.138-.047-.55-.733-.645.094-.036.322-.087.388-.024.047-.261-.38-.53-.478-.772h.09l-.039-.012c-.024-.008-.027-.016-.008-.02h-.055a.044.044,0,0,1,0-.02c.047,0,.086,0,.031-.02l.074.024c-.027-.016-.016-.036-.059-.059a.051.051,0,0,0,.027-.02.1.1,0,0,1-.035.016l-.031-.012a.03.03,0,0,1-.008-.012v.008a.288.288,0,0,0-.075-.02.547.547,0,0,1,.071.008,0,0,0,0,0,0,0v0c.012,0,.027,0,.035.008s0-.024-.024-.036a.289.289,0,0,1,.078-.1l.2.012c-.051-.048-.251-.071-.255-.127a.421.421,0,0,0,.067-.016l.024,0c.008-.016-.008-.028-.035-.044l0,0c.082,0,.2.012.212-.02a1.15,1.15,0,0,1-.243-.131.093.093,0,0,1,.051-.036.581.581,0,0,1-.075,0l-.016-.008s0-.008,0-.016a.166.166,0,0,1,.02,0,.029.029,0,0,1-.024-.016c.11,0,.1-.012.1-.028l.153.04c.1-.166-.016-.285-.188-.388h.012c0-.012.1-.051-.094-.051h0c.086,0,.039-.02-.02-.036a.181.181,0,0,0-.035-.012h.024a.258.258,0,0,0,.027.008s-.008,0-.012-.008h.059a.445.445,0,0,0-.071,0,.193.193,0,0,0-.027-.012v-.016a.253.253,0,0,0,.027.008.072.072,0,0,0-.027-.008v-.111c.012,0,.031,0,.059.008l-.023-.016a.814.814,0,0,1,.188-.008c-.078-.012-.243-.028-.2-.044.008,0,.02,0,.035,0h.012c.012,0,0-.008-.016-.008a.22.22,0,0,0,.031-.016c.082-.008.043-.02.047-.032-.082,0-.094,0-.133,0v-.028a.646.646,0,0,1,.086-.012c-.035-.012-.047-.028-.086-.04v-.032h.02l-.02,0v-.008a.328.328,0,0,1,.039.008.058.058,0,0,0-.023-.02.792.792,0,0,0,.376-.364h.082a.638.638,0,0,0-.271-.491h0a.654.654,0,0,1-.055-.051s0,0-.008-.008l-.082-.071h.141c-.039,0-.1,0-.149-.008,0,0-.008-.008-.012-.008h.012c.012,0,0,0-.016,0h0a.208.208,0,0,0,.031,0c.082,0,.047-.008.051-.008h-.1l-.012-.012a.333.333,0,0,0,.063,0c-.035,0-.047-.012-.086-.016l-.071-.059c.055-.075.11-.142.145-.2l-.075.087.055-.071h.008c.051-.067,0-.012-.031.028a.772.772,0,0,1,.059-.079l-.114.135c.043-.059.09-.111.11-.146-.051.063-.1.131-.133.17.047-.067.09-.123.043-.067.031-.036.047-.059.063-.075-.039.044-.02.016-.082.091.063-.083-.023.016.082-.123-.027.032-.086.107-.094.111.133-.162,0-.016.137-.194-.118.146-.063.059-.129.135.008-.012.027-.036.024-.028.008-.016.039-.059.059-.091-.086.111-.118.142-.165.2h0c.075-.1.1-.131.184-.237-.078.1-.082.095-.145.178.055-.075.027-.036.1-.142-.118.154-.024.024-.1.115.055-.079.11-.146.071-.1.035-.047.078-.1.078-.1a1.6,1.6,0,0,0-.141.178c-.031.028.063-.087.106-.146-.027.028-.114.131-.11.127.016-.02.02-.028.039-.051-.051.059-.039.04-.059.055l0,0c.027-.036.043-.051.035-.051a.582.582,0,0,0-.035.051l0,0,.086-.111c.016-.036-.051.047-.031.012-.027.036-.047.059-.067.083-.157-.123-.918-.115-.949-.257l.463-.083c-.043-.3.31-.629-.141-.894.067,0,.2,0,.224.044-.008-.142.212-.566-.38-.467.388-.032-.008-.309-.192-.459l.282,0c-.376-.107-.474-.107-.592-.289.027-.04.161-.051.165-.016.063-.127-.274-.083-.161-.265l.18.055c0-.154-.09-.135-.3-.206-.118-.087.035-.3.267-.34-.145-.008-.345-.079-.29-.174a.251.251,0,0,1,.173.024c.137-.269-.337-.36-.118-.558a.318.318,0,0,0,.141-.04.934.934,0,0,1,.012.356c.235-.02.247-.186.588-.079-.2-.119-.6-.317-.522-.487a.378.378,0,0,1,.075-.028l.027.016c.016-.04-.012-.071-.051-.1.027-.055.051-.087.043-.138.177-.032.063-.2.059-.281-.231.024-.212-.087-.388.032.016-.016.031.012.047.067.008.012.016.028.027.032l-.02,0a1.607,1.607,0,0,1,.043.2c-.129-.055-.239-.115-.122-.218-.157-.032-.314-.067-.388-.087.314-.138.447-.368.635-.411-.165-.241-.184-.586-.592-.712-.059-.067.1-.091.157-.123.043.04.047.087.106.107-.118-.135-.1-.419-.361-.435.09-.19.247.083.173-.162l.082.028c.161-.257-.035-.443-.2-.637a.592.592,0,0,1-.192-.471h.008a.014.014,0,0,1,0-.012.6.6,0,0,1,.078-.2c-.02.04-.031.059-.063.071a1.513,1.513,0,0,0-.02-.514.55.55,0,0,0-.016-.3l-.035.036s0-.008,0-.008c.008-.123-.008-.36.023-.34a.1.1,0,0,1-.012-.087h.02c-.012-.1-.02-.194-.027-.293.012-.222.059.04.043-.289-.012-.091-.02-.237-.024-.289a.59.59,0,0,1-.008.115l.008-.111V91.63c0,.02-.02.071-.051.178a1.545,1.545,0,0,0-.035.186l-.027.059c0,.016,0,.036-.008.051a.215.215,0,0,0-.024.044,1.628,1.628,0,0,1,.016-.309c.008-.174-.074-.186-.145-.289l.09-.044a1.816,1.816,0,0,1-.129-.174c-.086-.253.118-.455-.047-.772l-.031.044c-.012-.119-.067-.368-.031-.352a.1.1,0,0,1-.027-.083l.02,0q-.041-.142-.071-.285c-.023-.222.063.032,0-.293a2.75,2.75,0,0,1-.067-.281.563.563,0,0,1,.012.115l-.012-.111s0-.008,0-.012c0,.024-.008.071-.02.182,0,.063,0,.127,0,.19l-.02.063a.228.228,0,0,0,0,.051.223.223,0,0,0-.027.083,1.534,1.534,0,0,0,.031.186c-.024.024-.031-.083-.059.047.02.087.055-.087.063.055-.031.095-.055.067-.035.174-.02.016-.031,0-.035-.047.016.095-.012.253.031.3-.059.1,0,.32-.1.32a.7.7,0,0,1,.074.249c-.129-.15-.024.328-.188.3.129.107.027.423.11.625-.012-.012-.039-.032-.031-.051-.02.119-.078.158-.118.237.153,0,.18.186.282.277-.165.158-.192-.071-.345-.016.133-.016.118.241.239.182-.106.119-.051.1-.2.166.224,0,.031.1.173.182-.122.17-.227.059-.161.229-.082.091-.157-.059-.157-.059-.02.178.176.071.278.1.047.21-.145.111-.247.19.039.131.22.218.212.317-.035.012-.047.032-.09.012.161.127-.012.419.212.566a.393.393,0,0,1-.059.028l.047-.012a.714.714,0,0,0-.071.079c.149.028.149.21.235.317a.153.153,0,0,1-.122.036c-.016-.051-.024-.091-.082-.055a.105.105,0,0,0-.024-.02l.059-.138c-.345.174.027-.119-.345.044-.078.261.1.277.024.538a.426.426,0,0,0,.223,0,.093.093,0,0,0,.043.087c-.149.146-.231.02-.2.2-.094.075-.145-.083-.145-.083-.043.158.122.111.227.135-.094.047-.188.087-.2.142a.14.14,0,0,0-.043.016c.016.119.141.226.153.317h-.012c0,.016,0,.024,0,.036a.073.073,0,0,1-.078-.008c.125.138-.035.36.074.534,0,.02.012.044.016.063a.121.121,0,0,1-.031.008h.035a.292.292,0,0,0,.016.055c-.008,0-.012,0-.02,0,.039.166.2.372.122.491-.231.008-.031-.3-.255-.146l.118-.182c-.369.115.047-.115-.345-.012-.118.245.055.289-.063.534.118.067.2,0,.318.067.188.38-.659.229-.384.518.153.083.474.135.274.309l-.282-.087c-.074.241.4.174.161.415-.114-.055-.067-.2-.11-.166-.267.146.149.131.133.257l-.278,0c-.008.261.153.566.165.859-.086-.024-.169-.079-.271-.02a1.266,1.266,0,0,1-.318.965l-.471.142-.1-.024h0l.1.024-.027.008c-.008,0-.02,0-.043-.008a1.844,1.844,0,0,1,.212.111c-.051,0,.027.063-.09.02.059-.028-.118-.044-.118-.091.012.012,0,.024-.016.028a.084.084,0,0,1-.027-.016c-.122,0,.122.075.1.123-.063-.032-.129-.04-.118-.028.008-.02.11.036.157.071-.024,0-.024.012-.02.02l-.169.016.067.095a.264.264,0,0,0-.059-.016c.075.067-.106.008-.047.075a.213.213,0,0,1,.149.063l-.043-.083.118.083c.008-.02-.043-.059-.024-.063a.17.17,0,0,0,.114.047h0c-.035,0-.043,0-.039.012-.031.008-.059.02-.09.028l-.122-.04c-.067.008-.023.047.008.087-.008,0-.016,0-.024.008s.012.047.051.087a.484.484,0,0,1-.063.016H229c.008,0,.008,0,.012.008a.425.425,0,0,1-.118.012l.11.178a.154.154,0,0,0-.031.162c-.024-.02-.055-.04-.051-.047-.086-.024-.051.055,0,.095-.008,0-.016,0-.024,0a.218.218,0,0,0-.063-.028c-.012,0-.016,0-.016.008l.071.02c-.11,0-.282-.024-.094.107a.8.8,0,0,1,.275.04.015.015,0,0,0,0,.012.023.023,0,0,0-.016,0h.016a.3.3,0,0,0-.2.182l-.027-.012.027.016a.386.386,0,0,0,.02.265l-.259-.055c-.11.289.043.629,0,.957a.294.294,0,0,1,.129-.044s0,.008,0,.016l.059.111v.012a.041.041,0,0,0,.016.012l.023.044a.656.656,0,0,1-.153-.059l.1.123a.11.11,0,0,0,0,.036c-.11-.008-.173-.044-.318-.063.251.083-.455.222-.012.348l-.125,0c-.047.328.082.491.071.76.369.036.274.135.565.241-.137.186-.459.38-.451.621.169.182.314.075.529.17-.341-.016-.337.222-.569.079a1.242,1.242,0,0,0,.271.756c.145-.028.212-.067.329-.032.051.071-.161.135-.325.111l-.035-.02c.482.451-1.114.847-.416,1.23l-.035-.02.349.368c-.074.15-.255-.115-.486-.02.553.411-.141.562.223.894-1.07.138,0,.823-.7,1.076l.251,0c.235.1-.149.083-.212.138.192.008.231-.067.361-.008.18.534-.184,1.045-.494,1.555-.122-.174-.263-.328-.223-.526l.223.194-.227-.57-.059.368c-.016-.016-.031-.02-.043-.032.008-.024.016-.051.024-.075a.619.619,0,0,0,0-.317.453.453,0,0,0-.106-.2c-.012-.02-.039-.032-.055-.051-.008-.107-.035-.182-.184-.146.012.008.02.016.031.024-.012,0-.024-.012-.035-.016,0,0,0-.008.008-.008h0c-.161-.127-.325-.253-.29-.51.106-.091.427-.055.5-.115-.353-.075-.278-.712-.659-.827a.443.443,0,0,0,.322-.028l-.282-.067c.043-.166.074-.194.231-.21-.071-.447-.423.253-.361-.317.031.036.063.008.122.083-.035-.546-.412-.969-.42-1.476.31-.226.2.4.447.162a10.516,10.516,0,0,1-.882-2.014l0,.135c-.478.02.094-.554-.208-.839.055.075.274.047.22.036a5.822,5.822,0,0,0-.671-1.567l.129.059a6.345,6.345,0,0,0-.169-1.025c-.11-.055-.145-.19-.231-.131.086.21-.09,3.05-.263,2.694a1.822,1.822,0,0,1-.282-1.227c.027.095.137.206.118.131l-.263-.657c-.129.087-.063.111-.137.281a.735.735,0,0,1-.263-.411c.169.285.227-.059.267-.21-.035.032-.094,0-.137.02.149-.415-.29.008-.247-.518l.074.008a1.9,1.9,0,0,1-.243-.518c.125-.119.118.178.243.158-.082-.273-.412-.475-.333-.76.067.107.114.273.18.38a.8.8,0,0,0,.016-.538v.02l-.055-.479-.008.127c-.435-.257-.255-.681-.58-1.092.31.4.133.047.275.047,0-.127,0-.317.047-.273-.165-.19-.027-.384-.263-.653.035-.024-.063-.233.047-.21-.114-.273-.047.083-.1.071-.239-.408-.149-1.06-.482-1.646-.118-.3-.208-.451-.29-.621,0-.2-.008-.439-.012-.657a2.886,2.886,0,0,0,.118.491,3.572,3.572,0,0,0-.11-.51l-.008,0c0-.119,0-.229,0-.313-.031.047-.075.107-.118.166,0-.008-.012-.02-.012-.02s-.024-.04-.059-.095l.141-.087s-.09-.119-.118-.15l-.012-.036.008.032-.016-.02c-.024-.032-.055-.071-.086-.111a.584.584,0,0,1-.106-.289,1.342,1.342,0,0,1,.129.19c-.09-.237-.184-.471-.267-.72,0-.071.078.142.122.229-.094-.281-.235-.728-.286-.807l.039.186c-.027-.1.012-.059.039.016.094.237.086.352.074.372l-.055-.178a3.313,3.313,0,0,0,.247.926c-.075-.1-.161-.206-.251-.32-.035-.1-.075-.19-.114-.281l.094-.182-.2-.119c0-.012,0-.02,0-.032-.008-.281.016-.218.024-.245.008-.008.027-.024.027-.024s.016-.012.012-.024l-.047-.4v.047h0c-.008-.055-.012-.119-.02-.182.051.162.126.332.122.222-.067-.142-.078-.194-.129-.328-.012-.146-.024-.285-.027-.352,0,.107.008.253,0,.261l-.008-.245v-.036c0,.032-.008.095-.016.218-.02-.083-.027-.135-.02-.119-.016-.055-.055-.19-.086-.293.027.123.063.269.106.423,0,.051-.008.107-.016.174-.008.138-.012.281-.012.419l-.024.135.024-.352a3,3,0,0,0-.024.471v.008l-.086.067-.027.02.016.036s.035.087.075.186c0,.02,0,.04,0,.063h0c-.11-.142-.212-.269-.286-.368.039.142.09.34.149.55-.031.044-.059.075-.063.083l.02.075.114.475s0,.008,0,.016c0,.15-.008.32,0,.439-.059.036-.11.063-.145.087.035.028.086.067.141.115-.031.237-.012.609-.1.59a1.784,1.784,0,0,1,.039.261c-.027.016-.055.036-.075.047a.644.644,0,0,1,.082.036c0,.059.008.115.008.17,0,.012,0,.02-.008.032-.11-.273-.039.74-.2.649a10.482,10.482,0,0,1,.078,1.4.185.185,0,0,1-.027-.119,2.054,2.054,0,0,1-.133.5c.153.032.173.435.271.653-.173.32-.188-.19-.345-.091.133-.016.106.554.231.443-.114.245-.059.21-.216.336.224.04.027.225.161.427-.129.352-.227.095-.173.479-.086.186-.153-.158-.153-.158-.031.4.173.182.274.265,0,.055,0,.1,0,.138-.035.02-.071.044-.106.067-.075-.016-.137.044-.22-.016,0,.142,0,.471-.008.863a.225.225,0,0,1,.043-.044c.012.174.02.352.02.53a.522.522,0,0,1-.074-.055c-.008.273-.016.546-.02.787a1.438,1.438,0,0,0-.023.182,1.331,1.331,0,0,0,.016.249c0,.265,0,.4.027.257a.052.052,0,0,1,.02-.012c.012.047.024.091.035.138l-.09.02c.02.582.212,1.219.255,1.86-.086-.036-.176-.142-.271.008a6.253,6.253,0,0,1-.3,2.516l.271.3c0,.071-.129.131-.184.055-.114.3.18.016.286.158a.143.143,0,0,1-.251.123,2.768,2.768,0,0,1,.176,2.1l-.086-.111c-.133.443.616.491.325.906l-.055-.079c-.153.961.137,2.018-.369,2.754.474.135-.227.95.443,1a3.024,3.024,0,0,1-.361.471.867.867,0,0,0-.11-.352.014.014,0,0,1-.012,0v0a.023.023,0,0,0-.016,0,.494.494,0,0,1-.149-.162c.2.324-.439.032-.118.427a.207.207,0,0,1,.169,0c-.035.142-.067.285-.1.427.012.036.024.067.035.1a1.067,1.067,0,0,0,0,.158c-.012.036-.024.067-.035.107a.163.163,0,0,0,.059.142,1.255,1.255,0,0,0,.035.166l-.18-.044a.438.438,0,0,0-.008.071,1.327,1.327,0,0,0,.2,1.009l-.039-.044c.149.344.29.649.427.91,0,.016,0,.028,0,.044a.192.192,0,0,1,.078.107l-.1.02c0,.008,0,.016-.008.02a.48.48,0,0,1,.161.1c-.039.233-.357.206-.533.095-.008.016-.016.036-.027.059l.09.21a.13.13,0,0,1-.039,0,1.352,1.352,0,0,1,.1.2c.055.095.016.293.227.186a3.925,3.925,0,0,1,.769-.1,3.507,3.507,0,0,0,1.537-.3.833.833,0,0,0,.8.332,3.593,3.593,0,0,0,.6-.055c.1-.016.224-.04.3-.055l.173-.047c.459-.135.929-.32,1.318-.032l-.074-.241c.141-.269.231.111.369.15-.047-.19-.224-.194-.133-.344a5.91,5.91,0,0,1,2.294-.241c.4.02.8.055,1.2.087l.6.04.149.008a.561.561,0,0,0,.082,0l.145-.008.58-.04c.576-.051.6-.384.631-.649.035-.186.067-.336.353-.348a.369.369,0,0,0,.423.047c.035.008.063.012.1.02a2.732,2.732,0,0,1-.027.471c.329-.012.431-.245.482-.534.055-.016.106-.036.169-.059.1-.036.208-.079.325-.119a2.7,2.7,0,0,1,.69-.162,3.412,3.412,0,0,1-1.118.637c.208.051.718.123.886-.123-.094.032-.231.142-.3.04a1.142,1.142,0,0,1,1.149-.4c-.306,1.037,1.027.51,1.149,1.393a1.355,1.355,0,0,1,.3-.044.891.891,0,0,1,.145.008c.047,0,.145.024.212.036a6.851,6.851,0,0,1,.918.277,13.316,13.316,0,0,0,2.1.653c-1-1.08.4.067-.278-.965a.524.524,0,0,1,.4.1l-.082-.055a.892.892,0,0,1,.09.063v0a2.431,2.431,0,0,0,.3.182c.043-.02.086-.044.129-.067a2.49,2.49,0,0,0,.263-.186c.247.016.153.506.329.692.059-.348.149-.34.255-.285l.059.036a5.7,5.7,0,0,1-.3-.823A.148.148,0,0,1,240.756,119.175Zm.525-14.714c.035.123-.012.162-.059.178a1.483,1.483,0,0,0-.031-.214l-.027-.016A.268.268,0,0,1,241.281,104.461Zm-3.137-3.866c.024.028.047.059.071.087-.016.04-.035.075-.047.111-.078.142-.153.285-.231.419A3.355,3.355,0,0,0,238.144,100.6Zm-4.243,2.944.047.012-.055,0Zm.012-.669c.016,0,0,.008-.027.008,0,0-.008,0-.016-.008h.043Zm-.02-1.167c.016,0-.008,0-.027,0,0,0,0,0-.012,0h-.012A.111.111,0,0,1,233.894,101.7Zm-.3.542c.02,0,.039,0,.059,0s.02.008.039.012l-.094-.012S233.6,102.249,233.6,102.246Zm.039.51h0s0,0,.012,0,.016,0,.024.008C233.658,102.76,233.651,102.756,233.635,102.756Zm.035-.044.075,0c-.012,0-.035,0-.075,0V102.7h.02c.012,0,.02,0,.024,0,.071.012.039.02.071.028,0,0-.008,0-.012,0l-.047-.012.027.016a.372.372,0,0,0-.082-.024Zm.09.028Zm-.016.36Zm-.039-.34h-.02c.008,0,.008-.008,0-.016.012,0,.024,0,.035,0s.02,0,.027,0A.219.219,0,0,1,233.706,102.76Zm.129,1.3-.031-.02c0-.008,0-.012-.016-.012l0,0,.043-.012A.2.2,0,0,0,233.835,104.062Zm-.024-.186a.11.11,0,0,0,0,.036.056.056,0,0,0-.027-.008A.053.053,0,0,1,233.811,103.876Zm-.008-.582v.016c-.016,0-.027,0-.039,0l-.012-.012Zm0-.59-.02-.012h.02Zm0-.024h-.012a.039.039,0,0,0,.012,0Zm0-.055h0v.02c-.012,0-.027,0-.043,0s-.027,0-.043-.008v0h.047l-.047,0c.035,0,.043,0,.071,0a.219.219,0,0,0-.051,0c.067,0,0-.012.047-.016-.027,0-.078,0-.078,0,.027,0,.008,0-.024-.008.031,0,.055,0,.039-.008h.008a.573.573,0,0,1,.067.016A.034.034,0,0,1,233.8,102.625Zm-.1-.115Zm.1.063h-.008l-.008-.008h.016Zm0-.024c-.016,0-.031,0-.043,0h0c.016,0,.008,0-.008,0a.171.171,0,0,0-.027-.016c.012,0,.012,0-.008,0h.024l.012,0a.014.014,0,0,0,.012,0h.035A.038.038,0,0,1,233.8,102.55Zm0-.036h0Zm0-.008h-.008l0,0h0Zm0-.024a.326.326,0,0,0-.059-.016h.055A.024.024,0,0,1,233.8,102.483Zm0-.016c-.008,0-.016,0-.059-.008.031,0,.051,0,.055-.012A.036.036,0,0,1,233.8,102.467Zm0-.028a.286.286,0,0,0-.059-.044h.059Zm0-.044h-.059c-.027-.02-.035-.036.059-.036A.108.108,0,0,0,233.8,102.4Zm0-.063a.424.424,0,0,0-.094,0s0,0,0,0h.039c-.043,0-.071,0-.1-.008-.008,0-.02,0-.027-.008l.016,0h.016a.846.846,0,0,0,.137.008l-.086-.012h.039c.09,0-.027-.008,0-.008h.063a1.032,1.032,0,0,0-.106-.012c.012-.008,0-.016-.043-.016,0,0-.008,0-.012,0h.075c.008,0,.016,0,.027,0s-.016-.008-.031-.012c.023,0,.047,0,.071.008,0,0-.012-.012-.086-.016.016,0,.055,0,.027,0a.085.085,0,0,1-.031,0,.393.393,0,0,1-.059-.016h.043a.131.131,0,0,0,.031.012.384.384,0,0,0,.094,0Zm-.008-.154c-.067,0,0,0-.094-.008l.016,0c.027,0,.051,0,.078,0Zm0-.008c-.023,0-.047,0-.071,0h0a.449.449,0,0,1,.067,0Zm-.012-.178h0s0,0,0,0Zm0-.051Zm-.012-.091a.627.627,0,0,1-.071,0h.071Zm-.008-.071a.535.535,0,0,1-.1-.008h.063c.016,0-.1,0-.051-.008l.071,0c.008,0-.027,0-.11-.008-.043,0,.023-.008.118-.012C233.745,101.755,233.745,101.767,233.749,101.779Zm-.008-.047h0v.016c-.059,0-.133,0-.106-.008h.071c.074-.008-.129-.012-.02-.02h.047C233.741,101.723,233.741,101.727,233.741,101.731Zm-.063-.075.035-.047.012.047h-.047l0,0h.039l.012,0v0h-.012l-.059.032c.027,0,.055,0,.078,0v.008h0v.008c-.047,0-.074,0-.02-.008h-.071v0l0,0h-.078c.031,0,.059,0,.086,0,.008-.012.016-.02.024-.032h-.051C233.6,101.656,233.643,101.656,233.678,101.656Zm-.008-.285-.02.036c.012-.016.02-.024.027-.036h.008s-.008.008-.008.012,0-.008.012-.012h0a.254.254,0,0,0-.035.044.17.17,0,0,1,.024-.028c-.008.012-.02.024-.027.036v0a.162.162,0,0,1,.012-.016l-.012.012a.014.014,0,0,0,0-.008s0-.02.02-.036Zm-.016,0c-.008.008-.012.016-.024.028h0a0,0,0,0,0,0,0c0-.008.012-.016.02-.028Zm-.024,0-.023.012a.07.07,0,0,0-.027-.02Zm-.059.127.008-.008,0,0C233.572,101.494,233.564,101.5,233.572,101.49Zm.016,0h0l-.024.032A.32.32,0,0,1,233.588,101.49Zm-.039.051a.2.2,0,0,0,.039-.047l0,0-.039.051,0,0v-.008S233.545,101.541,233.549,101.541Zm-.071-.206.031,0a.066.066,0,0,0-.027,0c.008.016.008.028.016.044a.2.2,0,0,0,.027.032l-.012.008-.012-.036c-.012-.016-.024-.028-.035-.044.008,0,.016,0,.02,0S233.478,101.336,233.478,101.336Zm-.812-4.487c.043.051,0,.075-.047.087a.459.459,0,0,0-.043-.095c-.008,0-.02,0-.031,0A.527.527,0,0,1,232.666,96.849Zm-1.816-2,0-.008v0Zm-1.984,8.352h.024a0,0,0,0,0,0,0Zm.153,1.2c0,.008,0-.016,0-.063l.047.012A.3.3,0,0,0,229.02,104.4Zm-8.568-1.381c-.008.044-.016.083-.027.127a.861.861,0,0,1,0-.146l.031.016Zm.047-1.594v-.008c0-.008.008-.008.016-.016A.24.24,0,0,0,220.5,101.423Zm-.075,16.032H220.4a.244.244,0,0,0,0-.055C220.4,117.415,220.417,117.435,220.424,117.454Zm.016.352-.027.012v-.036Zm-.1.609Zm.012,0c.027-.012.047-.1.055-.233.09-.067.149-.123.243-.083C220.707,118.246,220.515,118.424,220.35,118.416Zm.369-12.42h0c0-.079-.008-.146-.012-.19C220.707,105.846,220.711,105.9,220.719,106Zm-.008.775a2.892,2.892,0,0,0,.016-.336c.086-.028.173,0,.169.079C220.836,106.471,220.785,106.657,220.711,106.772Zm.506-14.192c.008.024.012.047.02.071.008.047-.008.016-.016,0A.429.429,0,0,0,221.217,92.58Zm.486,2.386c.016.024.031.047.043.067l-.074.079c-.008-.04-.02-.075-.027-.115A.426.426,0,0,0,221.7,94.966Zm-.035,1.056L221.6,96c.039-.036.082-.075.114-.107.012.024.02.044.031.067Zm.278.162a.226.226,0,0,1,.027-.016.142.142,0,0,1,.008.04A.185.185,0,0,0,221.946,96.184Zm.259.427a.816.816,0,0,1,.09.146c-.02.044-.039.091-.059.135-.012-.095-.02-.19-.031-.281Zm.012,17.864.094-.024c.012.071.027.146.035.218A.276.276,0,0,1,222.216,114.475Zm.9-12.139a22.544,22.544,0,0,1-.467-2.346c.047.012.11.012.149.02a.2.2,0,0,1-.125-.123.272.272,0,0,0-.039.016c-.016-.123-.039-.245-.055-.372a.626.626,0,0,0-.224-.411c-.008-.558-.024-1.112-.067-1.67.02,0,0-.1.071-.02-.027.34.263.859.082.977.122.091,0-.32.149,0-.2.15.129.38.094.7-.141-.059-.137-.348-.18-.032.243.127.078.578.165.811.176-.032.192.514.345.91a8.941,8.941,0,0,0,.071,1.2l-.039,0c.161.016.231.218.3.431A.628.628,0,0,0,223.118,102.337Zm1.823,3.331c-.074-.222-.165-.439-.239-.653.02-.032.051-.063.071-.1a1.229,1.229,0,0,0,.286.51A.284.284,0,0,1,224.942,105.668Zm2.7,7.066a.77.77,0,0,1,.1.313A1.123,1.123,0,0,1,227.639,112.734Zm.337-.024-.345-.1c0-.032-.008-.059-.008-.091.2.032.259,0,.278-.063C228.122,112.517,228.259,112.588,227.977,112.711Zm1.157-9.5V103.2a.054.054,0,0,1,.012.02S229.141,103.211,229.133,103.207Zm.043.894h0s0,0,0,0Zm.047.008-.016,0h.02S229.224,104.105,229.224,104.109Zm0,0c-.023,0-.039,0-.051,0h.051v0Zm0,0Zm-.027-3.074a.254.254,0,0,1-.071-.016.346.346,0,0,1,.145-.047C229.373,101.031,229.137,100.975,229.2,101.035Zm.078-.063c.012,0,.02,0,.031,0a.327.327,0,0,1,.016.036C229.286,100.987,229.294,100.975,229.282,100.972Zm.251,2.959a.709.709,0,0,0,.071.067h-.012a.426.426,0,0,1-.059-.067Zm.031.059,0,0h0Zm0,0h-.008s-.008,0-.012-.008Zm-.055-.044h0a.217.217,0,0,1,.031.024l-.035-.024C229.514,103.951,229.518,103.947,229.51,103.951Zm-.012-.586,0,0s-.008-.008,0-.008A.012.012,0,0,1,229.5,103.365Zm0,.578h-.008l0,0a0,0,0,0,0,0,0Zm-.008,0h-.008s-.008,0-.008-.008h0S229.49,103.935,229.494,103.939Zm-.016-.012h0a0,0,0,0,1,0,0s0,0,.008,0Zm-.012-.012s.008,0,.012.008h0a.008.008,0,0,1-.008-.008Zm.071.138-.071-.024-.024-.012v0c.035.012.071.028.1.036C229.541,104.054,229.541,104.054,229.537,104.054Zm.008,0a.538.538,0,0,1-.09-.036h.02c.051.02.051.024.078.032Zm.008,0-.016-.008c-.051-.024-.02-.012.02,0A0,0,0,0,1,229.553,104.046Zm.027-.012a.085.085,0,0,1-.02-.012h.012l.012.008S229.584,104.034,229.58,104.034Zm.008,0s-.008,0-.012-.008h0s.008,0,.008.008Zm0,0-.008-.008s0,0,.008.008Zm0,0,0,0h.012S229.6,104.026,229.6,104.026Zm.1-.051c-.016,0-.027-.012-.043-.016l-.023-.016.078.024S229.7,103.975,229.7,103.975Zm.051-.028c-.016-.008-.039-.016-.059-.024.012,0,.024,0,.031,0l.016,0a.086.086,0,0,1,.02.012A.014.014,0,0,1,229.749,103.947Zm.012,0s-.008-.008-.012-.008.016,0,.024,0A.014.014,0,0,0,229.761,103.943Zm.573-4.364h0v-.087A.855.855,0,0,0,230.333,99.579Zm-.043.344a.721.721,0,0,0,.031-.15c.086,0,.173.016.165.051C230.431,99.8,230.369,99.88,230.29,99.923Zm.329,9.2-.035.016a.19.19,0,0,1,.043-.016h-.008l.529-.241a.146.146,0,0,1,.039,0c-.024.095-.055.19-.086.289a.5.5,0,0,0-.478-.044,3.7,3.7,0,0,1,.451.111c-.016.044-.031.087-.051.131-.016-.04-.078-.083-.431-.1C230.549,109.165,230.565,109.134,230.62,109.126Zm.176,6.615a1.136,1.136,0,0,1,.357-.04,3.819,3.819,0,0,1,.067.459C230.949,115.832,231.07,115.9,230.8,115.741Zm3.2-1.61c-.039-.012-.063-.032-.059-.059a.239.239,0,0,1,.075-.008A.236.236,0,0,1,234,114.131Zm3.635-10.9a.811.811,0,0,0,.082-.083.276.276,0,0,1,.031.04c0,.115,0,.226,0,.332-.071.178-.067.229,0,.178,0,.166,0,.313,0,.439a.881.881,0,0,1-.055.127C237.678,104.014,237.654,103.638,237.631,103.227Zm.114,1.3c-.012.036-.027-.067-.043-.261a.239.239,0,0,0,.055,0A.992.992,0,0,1,237.744,104.528Zm.067-1.262a.2.2,0,0,0,.027.032c-.008.02-.016.036-.023.051A.65.65,0,0,0,237.811,103.266Zm.02.538c0-.059,0-.123-.008-.182l.024-.024A1.9,1.9,0,0,1,237.831,103.8Zm.184.609a.206.206,0,0,1-.024-.051c0,.016.008.047.012.079s-.016.044-.024.063a.227.227,0,0,0-.051.008l-.067-.135h0a1.066,1.066,0,0,1-.008-.119.936.936,0,0,1,.231-.036Zm-.094-.392v.008c0-.154-.012-.32-.016-.5.008-.012.02-.02.027-.032a0,0,0,0,0,0,0c0,.17,0,.344-.016.518Zm.173-1.321a.485.485,0,0,1-.051-.17l-.063.273a.3.3,0,0,1,.027.047l-.071.123c-.012-.02-.02-.04-.031-.059.016-.02.031-.036.047-.055l-.039-.083-.012-.024.012-.02.051.142.016-.071a.371.371,0,0,0-.067-.071l.212-.34.035.19Zm.145.1c-.02,0-.035-.016-.051-.02l.106-.491C238.289,102.451,238.25,102.641,238.238,102.8Zm.286.313a.829.829,0,0,1-.024-.408c.016.178.078.178.153.123C238.611,102.926,238.564,103.021,238.525,103.116Zm.7-3.826a.171.171,0,0,0,0,.02s0,0-.008,0a.036.036,0,0,0,0-.02A.012.012,0,0,0,239.227,99.29Zm0-.02h0a.051.051,0,0,1,0-.024A.043.043,0,0,0,239.223,99.27Zm-.012.5a.024.024,0,0,1,0-.016C239.234,99.765,239.238,99.773,239.211,99.773Zm.016-.443v-.012s0,0,.008,0a.015.015,0,0,0,0,.012Zm.016.111v-.028a.129.129,0,0,1,.024.032A.05.05,0,0,1,239.242,99.44Zm.051.055Zm.02,0a.156.156,0,0,0,.016-.012c.027.008.047.012.047.016A.315.315,0,0,0,239.313,99.5Zm.149,2.615c.027-.075.051-.15.075-.229.118.083.247.174.227.356A.547.547,0,0,0,239.462,102.111Zm.5-6.726c.071-.166.059.162.059.162a3.317,3.317,0,0,0,.141-.76c.008.059.031,0,.067-.071.031-.214-.043-.158.035-.435.008.032.016.079.024.131-.047.364-.1.728-.18,1.088a.138.138,0,0,0-.11.138c0,.1,0,.206,0,.309-.027.107-.047.218-.067.324A6.457,6.457,0,0,1,239.96,95.385Zm.235,1.23a.127.127,0,0,0,.071-.051c0,.071,0,.15,0,.233a.125.125,0,0,0-.055,0,.421.421,0,0,1-.008-.1v-.008A.135.135,0,0,0,240.2,96.615Zm-.247,2.319a.085.085,0,0,1,.02.012s-.02,0-.035,0A.055.055,0,0,1,239.948,98.934Zm.063,1.618c-.02-.024-.047-.04-.067-.059a.472.472,0,0,1,.071-.02A.482.482,0,0,1,240.011,100.552Zm.055-1.246a.358.358,0,0,0-.039-.02h0a.122.122,0,0,1,.039.02Zm-.035-.8h0a.15.15,0,0,0,0-.044C240.066,98.487,240.054,98.5,240.03,98.511Zm.114-.15-.086-.028c-.043,0,.074.02.063.028-.047-.008-.059-.008-.074-.012a.078.078,0,0,1,0-.028,1.1,1.1,0,0,1,.165.032s0,.008,0,.016a.4.4,0,0,1-.09-.024S240.168,98.36,240.144,98.36Zm-.078-.115c0-.008,0-.012,0-.016s.008.016.02.024A.033.033,0,0,0,240.066,98.245Zm.035-.1s0-.008.008-.012,0,0,0,.008S240.1,98.147,240.1,98.147Zm.118-.558a1.22,1.22,0,0,1-.043.194.367.367,0,0,0-.188.071,1.636,1.636,0,0,1,.239-.629l.012-.012a2.953,2.953,0,0,0,0,.495A.2.2,0,0,1,240.219,97.589Zm.067,1.076c0,.008,0,.016.008.02C240.226,98.669,240.246,98.665,240.285,98.665Zm.169-2.959s0-.008,0-.012,0-.024,0-.036A.2.2,0,0,1,240.454,95.705Zm.459,20.408c0,.012,0,.028-.008.04a.263.263,0,0,1,0-.055c-.039-.087-.063-.162.027-.186a.438.438,0,0,1,.008.071l-.012.048.02.016q.012.1.024.214A1.177,1.177,0,0,0,240.913,116.113Zm.067.269c0-.008,0-.016.008-.024,0,.012,0,.028,0,.04A.054.054,0,0,1,240.979,116.382Zm.106-.95c-.024-.044-.047-.091-.075-.135a.155.155,0,0,1,.1.047C241.1,115.369,241.1,115.4,241.085,115.433Zm.11-.328-.333-.04c0-.008-.008-.012-.012-.02C241.109,114.843,241.191,114.91,241.195,115.1Zm-.349.218c.008.036.012.075.02.111a.724.724,0,0,0-.106-.075A.437.437,0,0,1,240.846,115.322Zm-.137-10.813c.031-.1.059-.135.086-.138C240.771,104.469,240.744,104.521,240.709,104.509Zm.22-.289c-.008.008-.016.02-.024.028a.284.284,0,0,0,0-.055Zm-.024.032a.679.679,0,0,0,.071.044v-.032l0,0a.015.015,0,0,1,0-.012.159.159,0,0,0,.016.051l-.02-.012c0,.119.008.277.016.455a.457.457,0,0,1-.145-.356C240.893,104.433,240.92,104.5,240.9,104.251Zm-.024-.653c-.016.233-.031.443-.055.6-.122-.083-.235-.166-.294-.214A1.554,1.554,0,0,0,240.881,103.6Zm-.373,10.774c.1,0,.188.218.267.57A1.575,1.575,0,0,1,240.509,114.372Z" transform="translate(-219.65 -89.3)" fill="#eb4544"/>
  <path id="Path_26577" data-name="Path 26577" d="M764.6,864.1c.041.1.082.192.118.285-.005-.079-.011-.161-.016-.252A.172.172,0,0,1,764.6,864.1Z" transform="translate(-742.967 -833.3)" fill="#eb4544"/>
  <path id="Path_26578" data-name="Path 26578" d="M217.144,762.089l-.036-.085a.227.227,0,0,0,.055.044c.027-.055.055-.082.082-.09a.1.1,0,0,1-.041-.016l.224-.049a.528.528,0,0,0,.014-.09.276.276,0,0,0-.394.071c.005-.509-.123-1.007-.071-1.461l.06.014a4.23,4.23,0,0,1,.066-.438,2.888,2.888,0,0,1-.14-.487c-.025,1-.052,2.389-.063,2.977.057-.12.17-.246.066-.3.1.011.148.052.216.052-.016-.027-.036-.057-.055-.085A.227.227,0,0,1,217.144,762.089Z" transform="translate(-216.868 -731.562)" fill="#eb4544"/>
  <path id="Path_26579" data-name="Path 26579" d="M227.8,750.682l-.1-.282c.016.079.036.167.052.265,0,0,.005,0,.008.005A.129.129,0,0,0,227.8,750.682Z" transform="translate(-227.373 -722.711)" fill="#eb4544"/>
  <path id="Path_26580" data-name="Path 26580" d="M759.116,765a.133.133,0,0,0-.016.047s0,.005.005.011a.194.194,0,0,1,.011-.057Z" transform="translate(-737.617 -736.912)" fill="#eb4544"/>
  <path id="Path_26581" data-name="Path 26581" d="M757.9,393.2s0,.005,0,.008h0A.01.01,0,0,0,757.9,393.2Z" transform="translate(-736.45 -381.308)" fill="#eb4544"/>
  <path id="Path_26582" data-name="Path 26582" d="M345.3,401.943a.2.2,0,0,1,.027-.025C345.322,401.9,345.314,401.9,345.3,401.943Z" transform="translate(-340.228 -389.671)" fill="#eb4544"/>
  <path id="Path_26583" data-name="Path 26583" d="M231.8,847.518l.016,0c.041.008.077.014.1-.049C231.857,847.455,231.838,847.5,231.8,847.518Z" transform="translate(-231.36 -817.123)" fill="#eb4544"/>
  <path id="Path_26584" data-name="Path 26584" d="M757,148.984v-.005h0v-.008h0Z" transform="translate(-735.575 -147.329)" fill="#eb4544"/>
  <path id="Path_26585" data-name="Path 26585" d="M325.4,416.044a.072.072,0,0,0,.019-.044A.093.093,0,0,0,325.4,416.044Z" transform="translate(-322.399 -403.21)" fill="#eb4544"/>
  <path id="Path_26586" data-name="Path 26586" d="M313.811,366.581l-.011-.181A1.035,1.035,0,0,0,313.811,366.581Z" transform="translate(-311.117 -355.531)" fill="#eb4544"/>
  <path id="Path_26587" data-name="Path 26587" d="M304.744,338.208a.1.1,0,0,0-.044-.008v0Z" transform="translate(-302.266 -328.46)" fill="#eb4544"/>
  <path id="Path_26588" data-name="Path 26588" d="M263.205,189.305s0,0-.005-.005l.019.049Z" transform="translate(-261.901 -186.564)" fill="#eb4544"/>
  <path id="Path_26589" data-name="Path 26589" d="M262.6,187.6c.008.022.014.044.016.049Z" transform="translate(-261.318 -184.91)" fill="#eb4544"/>
  <path id="Path_26590" data-name="Path 26590" d="M261.2,183.8l.036.1A.419.419,0,0,0,261.2,183.8Z" transform="translate(-259.956 -181.214)" fill="#eb4544"/>
  <path id="Path_26591" data-name="Path 26591" d="M387.1,542.775l.071-.153L387,542.6Z" transform="translate(-380.277 -524.822)" fill="#eb4544"/>
  <path id="Path_26592" data-name="Path 26592" d="M457.454,377.546h0C457.449,377.538,457.449,377.543,457.454,377.546Z" transform="translate(-447.992 -366.263)" fill="#eb4544"/>
  <path id="Path_26593" data-name="Path 26593" d="M577.405,425.7h0Z" transform="translate(-563.247 -412.538)" fill="#eb4544"/>
  <path id="Path_26594" data-name="Path 26594" d="M573.9,402.5l.005,0h0A0,0,0,0,0,573.9,402.5Z" transform="translate(-559.885 -390.245)" fill="#eb4544"/>
  <path id="Path_26595" data-name="Path 26595" d="M574.99,417.1c.044,0,.071,0,.03,0C575.012,417.1,574.976,417.1,574.99,417.1Z" transform="translate(-560.915 -404.274)" fill="#eb4544"/>
  <path id="Path_26596" data-name="Path 26596" d="M635.3,874.639a.11.11,0,0,1,.019.016C635.314,874.642,635.308,874.634,635.3,874.639Z" transform="translate(-618.878 -843.549)" fill="#eb4544"/>
  <path id="Path_26597" data-name="Path 26597" d="M686.761,885.5c-.005.03.011.022.022.027C686.775,885.519,686.77,885.508,686.761,885.5Z" transform="translate(-667.257 -854.114)" fill="#eb4544"/>
  <path id="Path_26598" data-name="Path 26598" d="M757.3,895.927a.168.168,0,0,0,.008-.027l-.008.014Z" transform="translate(-735.867 -864.23)" fill="#eb4544"/>
  <path id="Path_26599" data-name="Path 26599" d="M710.3,878.427l.016.006c.005-.008.011-.019.019-.033Z" transform="translate(-690.153 -847.208)" fill="#eb4544"/>
  <path id="Path_26600" data-name="Path 26600" d="M217.2,886.349l.005-.005-.008-.044Z" transform="translate(-217.16 -854.892)" fill="#eb4544"/>
  <path id="Path_26601" data-name="Path 26601" d="M615.3,872.116h0C615.325,872.108,615.311,872.11,615.3,872.116Z" transform="translate(-599.662 -841.091)" fill="#eb4544"/>
  <path id="Path_26602" data-name="Path 26602" d="M585.108,871.646a.133.133,0,0,0-.008-.047C585.1,871.616,585.106,871.63,585.108,871.646Z" transform="translate(-570.646 -840.594)" fill="#eb4544"/>
  <path id="Path_26603" data-name="Path 26603" d="M607.6,879.8a.029.029,0,0,0,.008.014h0l0,0Z" transform="translate(-592.264 -848.57)" fill="#eb4544"/>
  <path id="Path_26604" data-name="Path 26604" d="M568.014,879.839c-.005-.005-.008-.016-.014-.005s0,.005,0,.008S568.008,879.828,568.014,879.839Z" transform="translate(-554.213 -848.598)" fill="#eb4544"/>
  <path id="Path_26605" data-name="Path 26605" d="M554.6,877.4c0,.005.008.008.011.011l.016-.011Z" transform="translate(-541.334 -846.236)" fill="#eb4544"/>
  <path id="Path_26606" data-name="Path 26606" d="M280.914,892.368l-.014-.068C280.908,892.355,280.895,892.377,280.914,892.368Z" transform="translate(-279.117 -860.728)" fill="#eb4544"/>
  <path id="Path_26607" data-name="Path 26607" d="M757,895.336s.005,0,.005-.005a.093.093,0,0,0,0-.03A.062.062,0,0,1,757,895.336Z" transform="translate(-735.575 -863.646)" fill="#eb4544"/>
  <path id="Path_26608" data-name="Path 26608" d="M565.62,902.5l-.12.005A.629.629,0,0,0,565.62,902.5Z" transform="translate(-551.782 -870.649)" fill="#eb4544"/>
  <path id="Path_26609" data-name="Path 26609" d="M557,898.657a.55.55,0,0,0,0-.057c0,.005,0,.011,0,.019Z" transform="translate(-543.647 -866.856)" fill="#eb4544"/>
  <path id="Path_26610" data-name="Path 26610" d="M371.5,872.311a.174.174,0,0,1,.047.022.05.05,0,0,0,.011.008l0-.041C371.538,872.306,371.516,872.308,371.5,872.311Z" transform="translate(-365.398 -841.275)" fill="#eb4544"/>
  <path id="Path_26611" data-name="Path 26611" d="M599.614,897.508c-.005-.005-.008-.005-.011-.008s0,.025,0,.033A.108.108,0,0,1,599.614,897.508Z" transform="translate(-584.577 -865.786)" fill="#eb4544"/>
  <path id="Path_26612" data-name="Path 26612" d="M641.716,877.1a.167.167,0,0,1-.016.049,0,0,0,0,1,0,0A.1.1,0,0,0,641.716,877.1Z" transform="translate(-625.028 -845.944)" fill="#eb4544"/>
  <path id="Path_26613" data-name="Path 26613" d="M590,900.425l.022-.016-.12-.008Z" transform="translate(-575.225 -868.606)" fill="#eb4544"/>
  <path id="Path_26614" data-name="Path 26614" d="M473.038,872.337l.011-.008c-.005.041-.03.079,0,.126,0-.022.011-.085.005-.131.008,0,.014-.008.005-.019l-.027-.06a.213.213,0,0,0,.041.033s0-.005,0-.011h0a.066.066,0,0,1,.008-.066c-.063.008-.047.071-.079.077l.008.008a.074.074,0,0,1-.014.044v.008C473.016,872.35,473.06,872.372,473.038,872.337Z" transform="translate(-462.917 -841.178)" fill="#eb4544"/>
  <path id="Path_26615" data-name="Path 26615" d="M599.2,897.3l.008,0h0Z" transform="translate(-584.194 -865.591)" fill="#eb4544"/>
  <path id="Path_26616" data-name="Path 26616" d="M582.4,898.894a.351.351,0,0,1,.047-.022l.161.011-.145-.038C582.444,898.842,582.43,898.822,582.4,898.894Z" transform="translate(-567.994 -867.089)" fill="#eb4544"/>
  <path id="Path_26617" data-name="Path 26617" d="M556.205,898.2s-.005.005-.005.008h0v0l.022-.008v0Z" transform="translate(-542.873 -866.467)" fill="#eb4544"/>
  <path id="Path_26618" data-name="Path 26618" d="M325.268,896.2l-.044.008-.008.019c0,.005-.005.005-.005.008s-.008.022-.011.036a.08.08,0,0,0,.022-.022l.057-.036a.02.02,0,0,0,0-.014Z" transform="translate(-322.205 -864.521)" fill="#eb4544"/>
  <path id="Path_26619" data-name="Path 26619" d="M237.82,868.253c-.087.041-.047-.038-.043-.068l.039-.008c.028-.134-.114-.057-.166-.036a.053.053,0,0,1-.035.016c.008-.041.016-.085.028-.126a1.17,1.17,0,0,0-.071.118c-.02-.027-.051-.088-.008-.115-.079-.041-.043.052-.122.005-.012-.008-.008-.014,0-.019a.137.137,0,0,0-.039.047c0-.025-.028-.079-.008-.066-.028-.022-.028-.011-.043.008s-.063.036-.051-.019l.008-.005c-.1.005-.063.071-.205.129a.7.7,0,0,0,.036-.224l-.051.077c-.016-.008-.043-.027-.028-.06h0c-.083.06,0,.036-.055.093-.067-.074-.217.047-.237-.088-.02.066.075.047,0,.093-.016-.071-.039-.063-.071-.047s-.055.049-.1.019c0-.077.075-.044-.008-.1-.012.129-.138-.011-.189.019a.044.044,0,0,1-.02.055c0-.033.008-.047.02-.055a.188.188,0,0,0-.02-.052c-.016,0,0,.074,0,.109-.039.022-.118.014-.181.044,0-.022-.063-.03-.114-.044a.247.247,0,0,1-.067-.049l.008-.016c-.035.1-.134.057-.221.063a.112.112,0,0,1,.095-.1l-.091-.016a.144.144,0,0,1-.024.019.178.178,0,0,1-.083.044l.024-.077c-.158.016-.162.1-.339.063.024.066.126.172.059.23,0,0,0,.008-.012.014-.016-.033-.043-.088-.024-.115,0,0,0,0,0-.005l0,0c-.008.011-.024.036-.047.025a.558.558,0,0,1,.028-.074c-.067-.014-.008.06-.055.063-.028-.052-.047-.03-.063-.071,0-.005.051.011.059-.014a.22.22,0,0,1-.162-.047c.02.027.035.068.008.082-.075.025-.063-.055-.118-.068.008.038-.035.008-.008.088,0,0,0,0-.008,0a.177.177,0,0,1-.032-.055c0,.019-.039.022-.071.033s-.043.025-.028.068l.008.005,0,0a.168.168,0,0,1-.126.03A.523.523,0,0,1,234.7,868a.189.189,0,0,0-.1-.055l.02-.022c-.047-.008-.095-.022-.134-.033a.363.363,0,0,0-.189.03c-.028,0-.067-.06-.051-.09-.091.008-.087.036-.2-.011h-.02a.036.036,0,0,0,.012-.022c.036-.027-.047-.036.067-.014a.4.4,0,0,1-.075-.03.168.168,0,0,0-.162.1c0-.077-.114-.049-.162-.014-.008-.014-.016-.027-.024-.038a.061.061,0,0,1,.051-.049c-.106-.019-.2.123-.288-.079-.039.057.079.082.047.153a.291.291,0,0,1-.079-.093c-.039-.03-.071-.074-.087-.068-.1-.022-.091.186-.189.186a.179.179,0,0,1-.047.192h-.012c-.051-.047-.012-.156,0-.181a.042.042,0,0,1,0,.022v0c.024-.022.047-.047.02-.074l-.008.041-.012-.005v-.008c.016-.006.016-.011.008-.019a.032.032,0,0,0-.008.016.029.029,0,0,1,0-.019,1.455,1.455,0,0,1-.225-.1c.02.027.024.071,0,.063s-.032-.019-.043-.025c-.154-.006-.083.077-.205.1-.075-.046.012-.12-.107-.071-.067-.03-.02-.085,0-.115-.087.068-.177-.033-.229-.044l.047-.027a.132.132,0,0,1-.075.016l.032.066c-.028-.011-.051-.011-.055-.038-.028.044.032.107-.024.167-.028-.033-.146.038-.185-.047.2.025-.036-.085.134-.1a.28.28,0,0,1-.13,0c-.012-.008,0-.019.02-.025a.34.34,0,0,0-.059-.014c-.075,0-.083.033-.095.068s-.028.077-.067.085c-.016-.047-.043-.088-.043-.077a.168.168,0,0,1,.028.118c-.039-.03-.032.036-.055.038l.024.014c0,.03-.012.044-.028.052s-.024,0-.039.005c0-.038.032-.019.024-.041-.02.041-.043.011-.055-.019s.008-.055-.106-.052c-.067-.052.02-.093-.055-.134a.326.326,0,0,1-.138-.016c-.067.011-.126-.036-.233.044.071.049.063.033-.008.129l.221-.126c-.047.052-.087.1-.122.148.055-.016.106-.071.15-.088l.028.008c-.012.005-.02.008-.024.014-.039.049-.028.038,0,.082a.071.071,0,0,0-.1,0,.632.632,0,0,1-.229-.063l-.008-.016h-.016l-.012-.008.008.008a.224.224,0,0,0-.095.019.109.109,0,0,0-.051-.016c.024-.055-.008-.093-.024-.142,0,.022-.035.008-.071,0-.051.022-.11.052-.122.118a.66.66,0,0,0-.11-.047.225.225,0,0,0-.166.1c-.039.047-.008.079-.039.1a.04.04,0,0,1-.032.005c0-.055-.028-.088-.012-.126v-.014H230.3c-.016,0-.024,0-.02.03-.012-.033-.1.085-.11.033-.008.025-.008.082-.039.079a.059.059,0,0,1,0-.027c0,.027-.051.041-.032.1a.178.178,0,0,0-.02-.033.175.175,0,0,0-.043-.057c.028.005,0-.005-.012-.008l-.047-.014a.75.75,0,0,1-.245-.082.133.133,0,0,1-.075-.03c-.028.014-.059.025-.091.038.024-.005-.095.027-.067.022l-.008.005-.016.011-.024.016-.008.005a.431.431,0,0,0-.051.016s0,.005-.008.008c0-.016,0-.027,0-.022s0-.011,0-.005c-.024.019-.032.151-.106.088-.02-.1.055-.038.035-.077.012-.09,0-.088-.028-.077a.157.157,0,0,1-.162-.044l0,0h0l.028,0-.024-.016c-.118-.036-.2.068-.292.052a.044.044,0,0,0,0-.027.344.344,0,0,1-.13.068c-.091.049-.166.077-.213.1.016-.074.024-.041,0-.109-.028.014.035.112-.039.14a.226.226,0,0,1-.051-.077.15.15,0,0,1,0-.074l.016,0,.032-.005c-.008-.038-.016-.044-.024-.041s-.039.033-.051.019l.016-.041a.445.445,0,0,1-.3.041h-.008l0,.011,0,.025-.016.011c-.091.082-.067-.068-.162.011l-.028-.107-.17.1a.259.259,0,0,1-.079.027c.02-.033.063-.057.079-.082s.091-.06.122-.09a.309.309,0,0,0-.122.022c-.008.008-.035.022-.047.041.02-.008.043-.03.047-.022l0,0,0,.008a.236.236,0,0,1-.229.109c.028-.208-.233-.063-.319-.233a.913.913,0,0,1-.17.016,1.416,1.416,0,0,1-.17.036.785.785,0,0,1-.13.008c-.039,0-.079,0-.118.005s-.043,0-.055.008h0a.043.043,0,0,0,.012.011l.008.005-.016-.005h0c.075.134-.028.005.016.17-.028.019-.043.019-.047.011h0a.313.313,0,0,1-.083-.085v0a.04.04,0,0,0,0-.036s-.008,0-.008-.006a.181.181,0,0,1-.051-.071.2.2,0,0,0-.2-.112l.091-.025a.819.819,0,0,1-.122-.033c-.154.041-.383.088-.434.205-.024-.016-.071-.055-.02-.077-.15.019-.122.036-.166.066a.318.318,0,0,1-.1.079c-.016,0-.032-.011-.035-.038l.008-.016c0,.005,0,.011,0,.014.012-.014.039-.033.028-.038a.083.083,0,0,0-.02.006v0s0,0,0,.006a.168.168,0,0,1-.059.008.92.92,0,0,0-.106-.022.135.135,0,0,1-.055-.025l.075-.027a.568.568,0,0,0-.1-.047.844.844,0,0,0-.3.085c-.047.019-.032.036-.051.055a.179.179,0,0,1-.043.041l-.008,0c0-.129.067-.153-.146-.224l.008-.016a2.172,2.172,0,0,0-.264-.052c-.1.041-.185.082-.268.123-.012.011.071-.014.055,0l-.032.033-.032.033s-.012.005-.02.011a.016.016,0,0,1-.008,0c-.087-.033-.189-.063-.3-.093-.079.014-.154.025-.237.036-.039.006-.079.008-.122.011a.5.5,0,0,1-.067-.005c.039.016.032.09,0,.109-.063-.014-.051.1-.087-.011h.008c-.047-.1-.063-.071-.091-.068l-.008.153a.261.261,0,0,0-.039-.057c-.012-.036-.028-.036-.051-.033l-.02,0c-.016,0,.008.011-.051-.011-.087-.027-.162-.055-.229-.082a.073.073,0,0,1-.1-.047c-.043.052-.095.066-.142.118l.008-.047c-.036-.014-.071-.027-.114-.041l.087-.027c-.15-.071-.3.137-.383.1a1.166,1.166,0,0,0,0-.118c-.087.008-.17.005-.284.005a1.685,1.685,0,0,0-.284.008.394.394,0,0,0-.174.134c-.012-.014-.035-.044,0-.066-.15.063-.166-.022-.091.137-.016-.027-.024-.038-.032-.041-.024-.008,0,.049-.051.082l0-.077a.14.14,0,0,1-.079.145.04.04,0,0,1-.02,0c-.008-.016.02-.063.024-.038-.012-.052-.067.057-.091,0l.051-.036c-.02-.016-.067-.005-.154.025-.067,0-.138-.068-.174-.145a.069.069,0,0,1-.028-.027c-.028.052-.138.137-.185.126a.067.067,0,0,1-.008-.052c-.071-.033-.083.085-.138.063a.158.158,0,0,1-.012-.022.1.1,0,0,0,0-.049l.02.008c.035-.005.067-.008.063,0a.519.519,0,0,1-.039-.181.227.227,0,0,1-.02.107c-.012.033-.059.044-.043.03a.149.149,0,0,1,.016-.019.255.255,0,0,1-.02-.022l-.012-.008-.008,0-.035-.011c0-.011-.024-.03-.035-.038a.137.137,0,0,0-.035-.025.653.653,0,0,0-.106-.033.583.583,0,0,1-.059.006c-.008.079-.091.074-.02.131-.008-.005.012-.011.055-.016a.093.093,0,0,0,.028,0l0,.005c.02.005.043.011.067.019l.11.033c-.122,0-.138.036-.2-.033l-.012.016c-.039.047-.071.093-.087.115-.051-.1-.241-.145-.248-.213a.14.14,0,0,0-.059.03c0,.011-.075.019-.122.038a.238.238,0,0,0-.13.1c-.039.016-.039-.044-.051-.066.024-.014.047-.011.059-.03-.075.036-.217.008-.241.109-.091-.049.059-.093-.071-.079l.02-.03a.189.189,0,0,0-.11-.041.319.319,0,0,0-.185.049c-.079.03-.146.068-.213.088a.314.314,0,0,1-.118.068.241.241,0,0,1-.158,0,.088.088,0,0,1,.043.022.278.278,0,0,0-.114.019,1.163,1.163,0,0,0-.209.025.6.6,0,0,1-.126-.038,1.111,1.111,0,0,1-.193-.107c-.028-.008-.051-.016-.079-.027-.13-.036-.13.03-.193.077l-.012-.085a1.078,1.078,0,0,0-.122.09l-.012.005a.222.222,0,0,1-.2-.025c-.059-.03-.154-.049-.166-.011,0,.005-.008.014-.016.025l.024.055c-.035-.008-.177.041-.17-.022,0,.011-.012.06-.039.03l-.008-.044c-.028.019-.075.038-.11.057l-.047.033c-.13-.008-.051-.17-.217-.145-.051.027-.118.153-.087.178a.1.1,0,0,1,.091.055l-.043.033c.039.126.051.26.217.32l.063-.093.055.055-.075.019c.067.047.075-.008.091-.047a.3.3,0,0,0,.059.06.47.47,0,0,1-.008-.077c0-.016,0-.033,0-.049a.684.684,0,0,0,.024.126c.024-.057-.051-.11.008-.151.051.055.043.1.091.052a.054.054,0,0,1-.02.068c.051-.041.11-.022.154-.093a.13.13,0,0,0,.059.025c.106,0,.146-.049.181.047a.194.194,0,0,1,.083-.118c.008.1.039.066.051.077s.016.027.016.082a.183.183,0,0,1,.008-.06.18.18,0,0,1,.071-.019.11.11,0,0,0,.075-.025l.02-.014c-.008.008-.02.027-.02.022.012.016,0,.055-.016.079.063-.1.162-.09.276-.126.043.134-.13.1-.162.2.051-.079.245-.011.237-.1.016.027.028.041.028.049.039.019.039.019.059.085.043-.134.1-.025.185-.107.126.066.043.126.2.082.091.041-.047.09-.051.09.185,0,.055-.1.075-.159a.149.149,0,0,1,.087,0c.051,0,.043.085.107.1.095-.074.118-.194.166-.211.016.014.028.014.035.036-.016-.057.008-.049.028-.071.012-.006.02-.019.024-.055l.012.025a.845.845,0,0,1-.035-.14c.028,0,.051-.066.071,0-.024,0-.02.025-.028.047a.117.117,0,0,1,.032-.03c.02.047.008.055-.012.06s-.024.008-.02.044a.542.542,0,0,1,.166-.09.062.062,0,0,1,.035.005c0,.038-.028.049-.035.057s-.063.008-.008.057l-.1-.033c.079.145-.059-.008.016.148.043.011.1,0,.091,0a.17.17,0,0,1,.142-.014c.032-.052,0-.077.028-.129.189-.088.126.238.268.12.039-.06.059-.178.15-.112l-.039.1a.15.15,0,0,0,.083-.016.334.334,0,0,0,.055-.044.1.1,0,0,1,.13-.027c0,.041-.122.046-.095.057.146.071.059-.066.134-.074a.685.685,0,0,1,.024.093c.012-.008.028-.025.055-.044l.024-.011.016-.005s-.043-.022-.02-.016l.067.005.126.03c-.02.025-.087.033-.028.085a1.581,1.581,0,0,1,.189.044,2.274,2.274,0,0,1,.284-.052.12.12,0,0,0-.02.027c-.012,0-.008.006.008.008s.008-.006.012-.008l.012-.027h.008a.052.052,0,0,1,.043-.033.048.048,0,0,1,.032.025l.024,0c.012,0,.032-.006.016,0l-.035.016c0,.019-.016.036-.047.038.079.008.17.019.256.033a1.1,1.1,0,0,1,.556-.005l-.032.025a.487.487,0,0,0,.059,0c.1-.063.032-.2.177-.189l-.012.022.11-.036a.355.355,0,0,0,.047-.022c.008,0,.039-.005.028,0l.032,0c.008,0,.008,0,.012,0s.043.014.047.036a.1.1,0,0,1,0,.036c.028-.057.043-.036.055-.022s0,.008.035.011a.113.113,0,0,0,.114-.033c.083.085.122.137.177.189a.214.214,0,0,0,.13.038c.035,0,.071-.093.114-.142l0,0s0,0,.008,0,.012-.016.02-.019v.016c.02-.005.043-.019.047-.038a.043.043,0,0,0-.012-.011c.012.008.02.016.032.025l.012-.019,0,.011c0,.005-.008.008-.008.014l.035.03c.043.047.075.1.067.123l.213.033.107-.049c-.008.038-.059.06-.107.093.174-.129.024.088.185-.03-.02-.016.008-.055.012-.074a.573.573,0,0,0,.355-.046l.008.06a.593.593,0,0,0,.075-.011.261.261,0,0,0,.051-.014c0-.005.008-.014.02-.022a.036.036,0,0,1,.024,0c0-.03.024-.131.051-.134l-.028.088c.035-.049-.008-.038.047-.1,0,.006.043.044.02.066-.008.027-.079.041-.075.057,0-.005.032,0,.063,0l.087.006c0,.03-.039.033-.063.063.055-.022.154.047.268.09a.307.307,0,0,0,.189-.1l.024.022.071-.025.035-.014-.032.011-.051.016.02-.008c.024-.011.047-.022.067-.033.039-.016.079-.033.118-.047s0,0,0,0l-.024.005c-.028.005-.055.014-.087.019,0,0,0-.006,0-.008a.212.212,0,0,1,.035-.12c0,.005,0,.008.008.016l.063.03a1.343,1.343,0,0,0,.138.063,1.258,1.258,0,0,0,.248,0c.02-.041,0-.066.016-.112.008.055.028.063.024.09l.02,0c.008-.008.209.044.3.047-.024-.038-.047-.063-.024-.082.043,0,.095.066.083.1l-.012,0h.043a.927.927,0,0,1,.45-.038.106.106,0,0,1,.075.014.08.08,0,0,0,.028.011c.016,0,.028-.008.043-.049l0,.008a.293.293,0,0,1,.047-.055.21.21,0,0,1,.032-.025c.02.022-.032.049-.032.1.028-.036.051-.038.063-.033.1.047.193.088.284.131a.564.564,0,0,0,.2-.077.237.237,0,0,0,.193.044.9.9,0,0,0,.213-.055.968.968,0,0,1,.142-.047c.028-.005.024.008.039.038l-.012-.049v-.011c0-.022.012.041.016.052,0-.038-.012-.044-.008-.071.008,0,.012-.008.02-.008h.079c.051,0,.106.008.162.014.114.011.189.033.339.057.1.008.126.019.193.027.039.005.043.011.039.014s0,.011,0,.014a.025.025,0,0,1,0,.016c.012.011.1-.033.158-.071s.106-.066.221.027a.725.725,0,0,1-.1.071c.035,0,.071,0,.1.005a2.768,2.768,0,0,1,.3-.066l.087-.014.024,0c-.036,0,.241.019.225-.008l.02-.014c-.012.019-.024.046-.028.044,0,.016,0,.025,0,.027a.259.259,0,0,0,.075.008c.083,0,.154-.014.158-.041.063.019,0,.052.043.088a.242.242,0,0,0,.17.014c.075-.038.134-.066.181-.044.016.005-.032.033-.059.044a.579.579,0,0,1,.107-.044l.035-.011-.016,0-.039.011.028-.008c.047-.016.079-.033.055-.058l0,0h0l0,0s0-.005-.008-.008a.032.032,0,0,0,.016,0l.012-.011s.008,0,.012.008a.018.018,0,0,0,.012,0c0-.005,0-.008.008-.011.02,0,.043,0,.067-.038a.145.145,0,0,0-.02.041c.024.019.075.044.075.052a.306.306,0,0,0,.122.055.506.506,0,0,0,.209-.068c-.032.041.095.03.059.088.079-.008.083-.014.11-.033s.039-.038.02-.071a.287.287,0,0,0,.13.033.363.363,0,0,0,.122-.041.08.08,0,0,1,0-.03c0-.016.016-.022.024.063a.115.115,0,0,1,.008-.036.35.35,0,0,1,.2-.022l.327.033.028-.016.063-.036c.032.047,0,.068-.028.085l-.051.025.071,0c.087-.088.063-.14.134-.14.012.008.008.027.008.047l.039.011a1.645,1.645,0,0,0,.272.049.5.5,0,0,0,.091-.041c0,.011-.024.03-.047.047.047-.014.118-.006.1-.063l-.043.025c-.071-.071.138-.208.114-.249,0,.085.055.082.095.09s.055.027.083.126a.164.164,0,0,0-.012-.077c.02.008.024.03.028.074a.039.039,0,0,0,.008-.019.3.3,0,0,0,.016-.049c0-.014.012-.025.059-.025,0,.027-.02.038-.028.071.051-.055.1-.109.185-.088,0,.016.008.038-.02.038a.506.506,0,0,0,.193-.077c.047-.03.095-.055.142-.033v0h-.016a.127.127,0,0,0-.02.063c0,.016.024.019,0,.079.012-.005.028-.014.043-.019s.012-.033.016-.052c0,0,.193-.011.26.052a.944.944,0,0,1-.1.011l.185.049.028-.014-.028-.005-.071-.055c.087-.014.035-.1.071-.093a.055.055,0,0,1,.035-.008c-.016.019.067-.025.1.033h0c.032-.049.067-.1.114-.09.012.033-.008.134,0,.156a.166.166,0,0,1,.087-.1c.043.008.087.019.106-.027a.2.2,0,0,0-.008.1l.028-.068a.105.105,0,0,1,.032.1c.095.049-.032-.161.079-.055-.008,0,0,.016-.024.022a.266.266,0,0,0,.122.047c.106-.057.229-.134.26-.123.083.088-.035.044.047.112a.915.915,0,0,0,.075-.107.32.32,0,0,1,.075-.025.159.159,0,0,1,.079.005s-.008-.008-.016-.014c.043-.088.051-.033.071.005s.012.047.047.03c-.02,0-.071.066-.055.052a.969.969,0,0,0,.355.088l.083-.022-.035.038a2.063,2.063,0,0,0,.319.022c.024-.038.075-.036.032-.088l.032.016a.333.333,0,0,0,.134.019.213.213,0,0,0,.087-.016.256.256,0,0,0,.071-.041.512.512,0,0,1,.047-.041.179.179,0,0,1,.2.027c-.016,0-.047.035-.028.035.051-.014.063-.027.1-.038h.008v-.036c0-.022-.012-.016-.032-.052a.123.123,0,0,1,.043-.052.112.112,0,0,1,.059-.008c-.075.03-.02.1-.016.139a.354.354,0,0,1,.024-.057c.028.123.059-.12.142-.025l-.016.03c.047-.005.087-.033.126-.03a.071.071,0,0,1,.024,0c.012.041-.008.049-.028.057a.036.036,0,0,0-.035.033.077.077,0,0,0,.035,0c.075-.038.118-.134.181-.079-.024.022-.071.03-.1.052.087.079.106.052.154.063l0,0,.118.027-.032-.019c.036-.2.158-.052.237-.189-.079.129,0,.071.008.153.032.019.083.041.075.066.02-.036.043-.027.051-.016s.035.016.071-.036c.008.027.055,0,.047.068.028-.022-.008-.047-.016-.079.036-.049.079-.016.11.005s.024.049.126.022a.389.389,0,0,0,.241-.03c.047-.044.083-.082.118-.112.059.03.012.1,0,.1.106.016.1.011.154-.033-.008.027.008.044.024.071.02-.011.02-.057.035-.077s.016,0,.028.014c-.008.025-.02.06-.032.09l0,.016,0-.005a.351.351,0,0,1,.122-.071c-.008.047-.051.063-.067.09.024-.005.051-.014.075-.022a.216.216,0,0,0,.118-.052c-.012-.014-.024-.025-.032-.036C237.891,868.184,237.843,868.244,237.82,868.253Zm-17.66-.629-.008.008a.106.106,0,0,1,.032-.033c.047,0,.059.025.055.041C220.215,867.634,220.191,867.629,220.159,867.623Zm.016.569c-.035-.008-.063-.016-.083-.022l.083.022Zm.162.046-.028-.008c0-.03.008-.057.028-.049,0,.005,0,.011,0,.019s.047.014.071.025Zm10.794-.29-.043-.079.193.008C231.237,867.911,231.2,867.968,231.131,867.949Zm2.6-.057,0-.008-.024-.038.091.011A.229.229,0,0,1,233.73,867.891Z" transform="translate(-216.279 -836.607)" fill="#eb4544"/>
  <path id="Path_26620" data-name="Path 26620" d="M375.4,895.8s0,0,0,.005l.014.019,0-.027A.118.118,0,0,0,375.4,895.8Z" transform="translate(-369.151 -864.132)" fill="#eb4544"/>
  <path id="Path_26621" data-name="Path 26621" d="M376.3,895.066l.005.008a.312.312,0,0,0,.033-.068l-.005-.005Z" transform="translate(-370.013 -863.354)" fill="#eb4544"/>
  <path id="Path_26622" data-name="Path 26622" d="M599.505,897.4h0l-.005,0S599.5,897.4,599.505,897.4Z" transform="translate(-584.483 -865.688)" fill="#eb4544"/>
  <path id="Path_26623" data-name="Path 26623" d="M435.511,896.514h.014s.014,0-.019-.014a.084.084,0,0,1-.005.022C435.505,896.519,435.511,896.516,435.511,896.514Z" transform="translate(-426.897 -864.813)" fill="#eb4544"/>
  <path id="Path_26624" data-name="Path 26624" d="M373.6,873.9Z" transform="translate(-367.423 -842.832)" fill="#eb4544"/>
  <path id="Path_26625" data-name="Path 26625" d="M375.7,896.752l.016-.033-.014-.019Z" transform="translate(-369.439 -865.008)" fill="#eb4544"/>
  <path id="Path_26626" data-name="Path 26626" d="M557,898.211c0-.005,0-.008,0-.011l-.005,0S557,898.205,557,898.211Z" transform="translate(-543.646 -866.467)" fill="#eb4544"/>
  <path id="Path_26627" data-name="Path 26627" d="M319.2,874.36v.008a0,0,0,0,1,0,0h0C319.225,874.371,319.208,874.355,319.2,874.36Z" transform="translate(-316.369 -843.278)" fill="#eb4544"/>
  <path id="Path_26628" data-name="Path 26628" d="M557.314,898a.056.056,0,0,1-.014,0v0Z" transform="translate(-543.932 -866.272)" fill="#eb4544"/>
  <path id="Path_26629" data-name="Path 26629" d="M446.6,876.8Z" transform="translate(-437.567 -845.652)" fill="#eb4544"/>
  <path id="Path_26630" data-name="Path 26630" d="M435.657,896.357Z" transform="translate(-427.051 -864.673)" fill="#eb4544"/>
  <path id="Path_26631" data-name="Path 26631" d="M311.714,873.9c-.005,0-.008.005-.014.005l.008.008.005.011.014-.019Z" transform="translate(-309.074 -842.832)" fill="#eb4544"/>
  <path id="Path_26632" data-name="Path 26632" d="M688,886.9s0,.005,0,.011,0-.008,0-.011Z" transform="translate(-668.463 -855.476)" fill="#eb4544"/>
  <path id="Path_26633" data-name="Path 26633" d="M375.311,898.622V898.6l-.011.025Z" transform="translate(-369.055 -866.856)" fill="#eb4544"/>
  <path id="Path_26634" data-name="Path 26634" d="M731.5,893.433V893.4h0Z" transform="translate(-710.773 -861.798)" fill="#eb4544"/>
  <path id="Path_26635" data-name="Path 26635" d="M607.623,899.8l-.014.008C607.577,899.835,607.6,899.822,607.623,899.8Z" transform="translate(-592.252 -868.023)" fill="#eb4544"/>
  <path id="Path_26636" data-name="Path 26636" d="M644.13,892.5a.567.567,0,0,1-.03.057C644.116,892.555,644.13,892.549,644.13,892.5Z" transform="translate(-627.33 -860.923)" fill="#eb4544"/>
  <path id="Path_26637" data-name="Path 26637" d="M569.914,902.4v0l-.014,0Z" transform="translate(-556.039 -870.552)" fill="#eb4544"/>
  <path id="Path_26638" data-name="Path 26638" d="M642.544,894.6c-.014,0-.03,0-.044.022C642.516,894.63,642.53,894.619,642.544,894.6Z" transform="translate(-625.788 -862.965)" fill="#eb4544"/>
  <path id="Path_26639" data-name="Path 26639" d="M760.808,898.011c0-.006,0-.008.006-.011l-.014.005Z" transform="translate(-739.271 -866.272)" fill="#eb4544"/>
  <path id="Path_26640" data-name="Path 26640" d="M761.941,897.7l-.041.005C761.911,897.708,761.925,897.716,761.941,897.7Z" transform="translate(-740.341 -865.98)" fill="#eb4544"/>
  <path id="Path_26641" data-name="Path 26641" d="M750.634,897.411l-.008-.005-.03,0c-.041,0-.077-.008-.1.025.022,0,.052,0,.085,0a.26.26,0,0,0,.049,0s.005,0,.008-.005l-.005-.022C750.642,897.414,750.64,897.414,750.634,897.411Z" transform="translate(-729.253 -865.688)" fill="#eb4544"/>
  <path id="Path_26642" data-name="Path 26642" d="M737.8,878.379l.093.016c-.011-.03-.033-.068.016-.079C737.786,878.234,737.931,878.382,737.8,878.379Z" transform="translate(-716.9 -847.103)" fill="#eb4544"/>
  <path id="Path_26643" data-name="Path 26643" d="M727.38,878.7c-.022.03-.027.038.008.06C727.426,878.741,727.382,878.719,727.38,878.7Z" transform="translate(-706.748 -847.5)" fill="#eb4544"/>
  <path id="Path_26644" data-name="Path 26644" d="M669.836,875.671l.008-.071C669.792,875.6,669.842,875.63,669.836,875.671Z" transform="translate(-650.781 -844.485)" fill="#eb4544"/>
  <path id="Path_26645" data-name="Path 26645" d="M661.468,893.477a.366.366,0,0,0,0-.077l-.068.066A.4.4,0,0,0,661.468,893.477Z" transform="translate(-643.938 -861.798)" fill="#eb4544"/>
  <path id="Path_26646" data-name="Path 26646" d="M652.544,873.4l-.044.005h.03Z" transform="translate(-635.396 -842.345)" fill="#eb4544"/>
  <path id="Path_26647" data-name="Path 26647" d="M558.5,874.392l.005.1C558.536,874.485,558.557,874.387,558.5,874.392Z" transform="translate(-545.079 -843.31)" fill="#eb4544"/>
  <path id="Path_26648" data-name="Path 26648" d="M512.5,874.306a.118.118,0,0,0-.008-.022.054.054,0,0,0-.093-.008c.036,0,.068.027.088.027A.024.024,0,0,0,512.5,874.306Z" transform="translate(-500.769 -843.174)" fill="#eb4544"/>
  <path id="Path_26649" data-name="Path 26649" d="M388.614,874.4l-.008.014-.005.011,0,.008v0Z" transform="translate(-381.835 -843.318)" fill="#eb4544"/>
</svg>
