<svg xmlns="http://www.w3.org/2000/svg" width="78.321" height="78.357" viewBox="0 0 78.321 78.357">
  <g id="CzEGil.tif" transform="translate(-1533.051 -157.995)">
    <g id="Group_50" data-name="Group 50" transform="translate(1533.051 157.995)">
      <path id="Path_272" data-name="Path 272" d="M1553.1,157.995h38.237c.8.127,1.61.211,2.4.389,8.873,2,14.563,7.366,17,16.135.317,1.142.432,2.341.641,3.513v38.237c-.048.273-.079.551-.148.818a36.067,36.067,0,0,1-1.649,6.087c-3.9,8.448-10.6,12.962-19.917,13.092-11.622.163-23.248.048-34.871.034a20.85,20.85,0,0,1-12.351-3.835,21.289,21.289,0,0,1-9.366-18.191q-.045-17.13.009-34.26a20.89,20.89,0,0,1,.4-4.4c1.954-8.871,7.354-14.536,16.1-16.972C1550.724,158.319,1551.924,158.2,1553.1,157.995Zm51.331,39.167q0-8.487,0-16.974a15.583,15.583,0,0,0-.784-5.262,14.655,14.655,0,0,0-14.346-9.985c-11.393-.014-22.785-.036-34.176.031a16.562,16.562,0,0,0-5.1.784c-6.261,2.1-10.006,7.53-10.016,14.293q-.025,17.089,0,34.177a15.226,15.226,0,0,0,.8,5.183,14.611,14.611,0,0,0,14.217,9.945q17.2.045,34.406,0a14.479,14.479,0,0,0,12.305-6.235,14.687,14.687,0,0,0,2.7-8.908Q1604.421,205.687,1604.43,197.162Z" transform="translate(-1533.051 -157.995)" fill="#fff"/>
      <path id="Path_273" data-name="Path 273" d="M1619.037,223.766a20.181,20.181,0,1,1-20.209-20.173A20.268,20.268,0,0,1,1619.037,223.766Zm-6.963,0a13.218,13.218,0,1,0-13.21,13.227A13.234,13.234,0,0,0,1612.074,223.766Z" transform="translate(-1559.69 -184.619)" fill="#fff"/>
      <path id="Path_274" data-name="Path 274" d="M1670.665,189.507a5.072,5.072,0,1,1-5.208,4.992A5.1,5.1,0,0,1,1670.665,189.507Z" transform="translate(-1610.36 -176.393)" fill="#fff"/>
    </g>
  </g>
</svg>
