<svg width="100%" viewBox="0 0 116 20" fill="none" xmlns="http://www.w3.org/2000/svg">
  <path fill-rule="evenodd" clip-rule="evenodd" d="M59.0132 0.154696C59.1505 0.0534404 59.3166 -0.000781791 59.4868 8.51815e-06C59.5669 0.000473541 59.6465 0.0131163 59.7228 0.0375085C59.7228 0.0375085 61.4432 0.524243 61.8471 2.21251C62.0599 3.10042 62.5382 3.46355 63.1685 3.71251C63.5162 3.84984 63.8942 3.91657 64.2539 3.95469V3.20001C64.2539 2.31601 64.9654 1.60001 65.8439 1.60001C66.7225 1.60001 67.434 2.31601 67.434 3.20001V4.80001C67.434 5.01217 67.3502 5.21564 67.2011 5.36567C67.052 5.51569 66.8498 5.59998 66.639 5.60001C65.316 5.83761 65.0489 7.2688 65.0489 8C65.0489 10.0527 66.5898 12.7938 68.9325 12.7938C69.0448 12.7806 69.1587 12.7918 69.2664 12.8265C69.9298 13.0401 69.6797 13.7145 70.0225 14.1547C70.918 15.3046 72.2042 15.8414 72.2042 17.6C72.2042 18.558 71.591 19.3365 70.8936 19.6516C70.1963 19.9666 69.4508 20 68.7663 20C66.0173 20 64.2097 18.1128 63.4076 17.4625C60.5433 15.1387 58.2588 12.0268 55.521 9.5625C53.3836 7.63868 53.1281 4.88282 53.1281 4.88282C53.1093 4.70169 53.1524 4.51951 53.2503 4.36639C53.3483 4.21326 53.4953 4.09834 53.6669 4.04063L55.698 3.35938C55.8383 2.98986 56.0855 2.46949 56.6607 1.97345C57.36 1.37045 59.0132 0.154696 59.0132 0.154696ZM60.3005 2.58751C60.1938 2.14156 59.8475 1.89527 59.5707 1.74063C59.1567 2.04981 58.1481 2.79829 57.6949 3.18907C57.4955 3.36101 57.3394 3.62537 57.229 3.85001L58.4651 5.42032C59.1377 6.23066 57.8137 7.21349 57.2182 6.41251L56.0505 4.92813L54.8657 5.32657C55.0061 5.99656 55.3504 7.26063 56.5815 8.36876C59.2969 10.8128 61.5656 13.9128 64.4061 16.2172C65.2923 16.9358 66.4407 18.0916 68.1048 18.3453C65.7944 16.6569 62.2842 12.8361 61.0738 10.4C61.2765 10.6416 61.9753 11.0614 62.2353 10.875C62.5175 10.6718 62.5701 10.2934 62.3952 10.0094C62.2076 9.71067 61.8721 9.36986 61.5226 9.01495C60.9212 8.40413 60.2787 7.75154 60.2787 7.20001C60.2787 6.65281 60.6285 6.40001 61.0738 6.40001C61.519 6.40001 61.8998 7.19376 62.6638 7.19376C63.0001 7.19376 63.4589 6.98401 63.4589 6.40001C63.4589 5.93353 63.2061 5.3816 62.7229 5.24491C61.518 4.90409 60.5852 3.77541 60.3005 2.58751ZM68.771 15.1422C68.6165 14.9438 68.4797 14.7037 68.3812 14.4344C67.8906 14.4877 67.434 14.65 67.434 15.2047C67.434 16.8262 69.2384 17.7031 70.4154 18.1094C70.5717 18.0233 70.6141 17.9329 70.6141 17.6C70.6141 16.4538 69.3964 15.9452 68.771 15.1422Z" fill="#fff"></path>
  <path d="M68.5272 6.44736C69.2614 6.74622 69.056 7.71625 68.6623 8.21251C68.334 8.62627 67.6524 8.95514 67.1263 8.74239C66.6046 8.53145 66.4635 7.82818 66.8645 7.43028C67.0146 7.28141 67.2233 7.19701 67.434 7.20001C67.4265 6.64622 68.0052 6.23488 68.5272 6.44736Z" fill="#fff"></path>
  <path d="M68.4537 9.03166C68.7597 8.71454 69.2776 8.71325 69.5858 9.02276C70.0185 9.45742 69.79 10.1932 69.4573 10.6125C69.2032 10.9327 68.7431 11.2 68.229 11.2C67.9069 11.2046 67.6078 11.0059 67.4843 10.7088C67.2682 10.1891 67.663 9.59195 68.229 9.60001C68.2262 9.3881 68.3069 9.1837 68.4537 9.03166Z" fill="#fff"></path>
  <path d="M2.99261 13.4318H0C0 15.2012 0.488726 16.4978 1.46618 17.3216C2.45702 18.1455 3.95668 18.5575 5.96514 18.5575C6.64802 18.5575 7.33759 18.4697 8.03386 18.2941C8.73012 18.132 9.35275 17.8619 9.90173 17.4837C10.4641 17.1055 10.9194 16.6126 11.2675 16.0048C11.629 15.397 11.8098 14.6609 11.8098 13.7965C11.8098 13.1482 11.716 12.6012 11.5286 12.1555C11.3411 11.7098 11.0733 11.3316 10.7252 11.021C10.3905 10.7103 9.98876 10.4605 9.52012 10.2714C9.05148 10.0688 8.53597 9.89321 7.9736 9.74464C7.73259 9.69061 7.41793 9.62308 7.02963 9.54205C6.64132 9.4475 6.25971 9.32595 5.8848 9.17738C5.52328 9.0153 5.20862 8.81946 4.94082 8.58986C4.68642 8.34674 4.55921 8.04961 4.55921 7.69844C4.55921 7.36079 4.63286 7.07716 4.78015 6.84755C4.92743 6.61794 5.12158 6.43561 5.3626 6.30055C5.60362 6.15198 5.87141 6.05068 6.16599 5.99666C6.47395 5.92912 6.77522 5.89536 7.0698 5.89536C7.43132 5.89536 7.77276 5.93588 8.09411 6.01691C8.41547 6.08445 8.68996 6.206 8.91758 6.38158C9.1586 6.55716 9.33936 6.78677 9.45987 7.0704C9.59376 7.34053 9.65402 7.67818 9.64063 8.08337H12.6332C12.6332 7.24598 12.486 6.53691 12.1914 5.95614C11.9102 5.36186 11.5219 4.87564 11.0265 4.49746C10.5444 4.11929 9.97537 3.84916 9.31927 3.68709C8.67657 3.51151 7.98699 3.42372 7.25056 3.42372C6.55429 3.42372 5.86472 3.51151 5.18184 3.68709C4.51235 3.84916 3.90981 4.11253 3.37422 4.4772C2.83863 4.82837 2.40346 5.28758 2.06872 5.85484C1.73397 6.4221 1.5666 7.11092 1.5666 7.9213C1.5666 8.54258 1.66703 9.06933 1.86787 9.50153C2.08211 9.93373 2.3566 10.2984 2.69134 10.5955C3.03948 10.8927 3.42778 11.1358 3.85625 11.3249C4.28472 11.514 4.72659 11.676 5.18184 11.8111C5.6237 11.9462 6.05887 12.0745 6.48734 12.196C6.9292 12.3176 7.31751 12.4594 7.65225 12.6215C8.00038 12.7835 8.28157 12.9794 8.4958 13.209C8.71004 13.4251 8.81716 13.7087 8.81716 14.0599C8.81716 14.4246 8.73013 14.7352 8.55606 14.9918C8.39538 15.2484 8.18115 15.4578 7.91335 15.6199C7.65894 15.7819 7.37106 15.9035 7.04971 15.9845C6.72836 16.0656 6.407 16.1061 6.08565 16.1061C5.6304 16.1061 5.20862 16.0656 4.82031 15.9845C4.43201 15.89 4.09727 15.7414 3.81608 15.5388C3.5349 15.3362 3.32066 15.0661 3.17337 14.7284C3.02609 14.3773 2.96583 13.9451 2.99261 13.4318Z" fill="#fff"></path>
  <path d="M18.5067 6.44236L16.0564 18.2333H19.2298L21.6801 6.44236H25.9782L26.5406 3.76812H14.5702L14.0078 6.44236H18.5067Z" fill="#fff"></path>
  <path d="M25.1413 18.2333L28.1339 3.76812H39.08L38.5377 6.44236H30.7449L30.1022 9.54205H37.3126L36.7904 12.0137H29.58L28.8368 15.5591H36.7502L36.1878 18.2333H25.1413Z" fill="#fff"></path>
  <path fill-rule="evenodd" clip-rule="evenodd" d="M41.5101 3.76812L38.5376 18.2333H41.6708L42.7553 13.0469H46.6518C47.4016 13.0469 48.1112 12.9321 48.7807 12.7025C49.4502 12.4729 50.0394 12.142 50.5482 11.7098C51.0704 11.2776 51.4788 10.7509 51.7733 10.1296C52.0813 9.49477 52.2353 8.77894 52.2353 7.98207C52.2353 7.18521 52.1081 6.51665 51.8537 5.9764C51.6127 5.43615 51.2712 5.00395 50.8294 4.6798C50.3875 4.35565 49.8586 4.12604 49.2427 3.99098C48.6401 3.84241 47.9774 3.76812 47.2543 3.76812H41.5101ZM43.2775 10.5753L44.1613 6.23977H46.8526C47.1338 6.23977 47.4016 6.26678 47.656 6.32081C47.9238 6.37483 48.1648 6.46937 48.379 6.60444C48.5933 6.72599 48.7607 6.90833 48.8812 7.15144C49.0151 7.38105 49.082 7.67818 49.082 8.04285C49.082 8.90725 48.8477 9.5488 48.379 9.96749C47.9238 10.3727 47.2945 10.5753 46.4911 10.5753H43.2775Z" fill="#fff"></path>
  <path fill-rule="evenodd" clip-rule="evenodd" d="M73.6904 18.2337L82.1461 3.76846H85.3797L87.7698 18.2337H84.6366L84.1746 15.0124H78.812L77.0044 18.2337H73.6904ZM83.1503 6.88841L80.0573 12.6421H83.8934L83.1905 6.88841H83.1503Z" fill="#fff"></path>
  <path fill-rule="evenodd" clip-rule="evenodd" d="M88.906 18.2337L91.8785 3.76846H97.6227C98.3458 3.76846 99.0085 3.84275 99.6111 3.99131C100.227 4.12638 100.756 4.35598 101.198 4.68013C101.64 5.00428 101.981 5.43648 102.222 5.97673C102.476 6.51698 102.604 7.18554 102.604 7.98241C102.604 8.77928 102.45 9.49511 102.142 10.1299C101.847 10.7512 101.439 11.2779 100.917 11.7101C100.408 12.1423 99.8186 12.4732 99.1491 12.7028C98.4796 12.9325 97.77 13.0473 97.0202 13.0473H93.1237L92.0392 18.2337H88.906ZM94.5297 6.24011L93.6459 10.5756H96.8595C97.6629 10.5756 98.2922 10.373 98.7474 9.96783C99.2161 9.54914 99.4504 8.90759 99.4504 8.04319C99.4504 7.67852 99.3835 7.38138 99.2496 7.15178C99.1291 6.90867 98.9617 6.72633 98.7474 6.60478C98.5332 6.46971 98.2922 6.37517 98.0244 6.32114C97.77 6.26712 97.5022 6.24011 97.221 6.24011H94.5297Z" fill="#fff"></path>
  <path fill-rule="evenodd" clip-rule="evenodd" d="M105.275 3.76846L102.302 18.2337H105.435L106.52 13.0473H110.416C111.166 13.0473 111.876 12.9325 112.545 12.7028C113.215 12.4732 113.804 12.1423 114.313 11.7101C114.835 11.2779 115.243 10.7512 115.538 10.1299C115.846 9.49511 116 8.77928 116 7.98241C116 7.18554 115.873 6.51698 115.618 5.97673C115.377 5.43648 115.036 5.00428 114.594 4.68013C114.152 4.35598 113.623 4.12638 113.007 3.99131C112.405 3.84275 111.742 3.76846 111.019 3.76846H105.275ZM107.042 10.5756L107.926 6.24011H110.617C110.899 6.24011 111.166 6.26712 111.421 6.32114C111.688 6.37517 111.93 6.46971 112.144 6.60478C112.358 6.72633 112.525 6.90867 112.646 7.15178C112.78 7.38138 112.847 7.67852 112.847 8.04319C112.847 8.90759 112.612 9.54914 112.144 9.96783C111.688 10.373 111.059 10.5756 110.256 10.5756H107.042Z" fill="#fff"></path>
</svg>