<svg width="100%" viewBox="0 0 375 36" fill="#fff" xmlns="http://www.w3.org/2000/svg">
<path d="M28.9769 11.966H22.1588C22.036 10.1232 21.5292 8.83331 20.6386 8.09622C19.7479 7.32841 18.3045 6.94451 16.3082 6.94451C14.5883 6.94451 13.2062 7.31306 12.162 8.05015C11.1485 8.78724 10.6418 9.77003 10.6418 10.9985C10.6418 11.3056 10.6725 11.5974 10.7339 11.8738C10.826 12.1502 10.9489 12.3959 11.1024 12.6109C11.2867 12.8259 11.4556 13.0255 11.6092 13.2098C11.7628 13.3634 11.9777 13.5323 12.2541 13.7166C12.5613 13.8701 12.807 13.993 12.9912 14.0851C13.1755 14.1772 13.4519 14.2847 13.8205 14.4076C14.2197 14.5304 14.4961 14.6226 14.6497 14.684C14.834 14.7147 15.1257 14.7915 15.525 14.9143C15.9243 15.0065 16.17 15.0679 16.2621 15.0986C19.7326 16.0507 22.0974 16.9106 23.3566 17.6784C25.9364 19.2447 27.2264 21.6557 27.2264 24.9112C27.2264 27.3681 26.52 29.4412 25.1072 31.1304C23.6944 32.7888 21.9746 33.9559 19.9476 34.6316C17.9513 35.3072 15.74 35.6451 13.3137 35.6451C11.471 35.6451 9.78182 35.4454 8.24621 35.0462C6.74131 34.6776 5.35926 34.0941 4.10006 33.2956C2.84086 32.4971 1.85807 31.3761 1.15169 29.9326C0.476018 28.4891 0.138184 26.8 0.138184 24.8651V24.0819H7.18664V24.5426C7.18664 28.2895 9.45934 30.1629 14.0047 30.1629C15.9089 30.1629 17.4292 29.7483 18.5655 28.9191C19.7019 28.0899 20.27 26.9689 20.27 25.5561C20.27 25.0033 20.1472 24.5119 19.9015 24.0819C19.6865 23.6519 19.4408 23.3141 19.1644 23.0684C18.9187 22.792 18.5194 22.531 17.9666 22.2853C17.4445 22.0396 17.0299 21.8706 16.7228 21.7785C16.4157 21.6864 15.9396 21.5482 15.2947 21.3639C11.8242 20.3811 9.47469 19.5519 8.24621 18.8762C5.26712 17.2792 3.77758 14.8836 3.77758 11.6895C3.77758 8.64904 4.94464 6.20742 7.27877 4.36468C9.6129 2.52195 12.6995 1.60059 16.5385 1.60059C20.5618 1.60059 23.633 2.46053 25.7522 4.18041C27.902 5.86958 28.9769 8.29585 28.9769 11.4592V11.966Z" fill="#fff"></path>
<path d="M61.1067 2.19947L59.8629 8.14229H49.866L44.1536 35.0001H36.9669L42.6794 8.14229H32.4062L33.65 2.19947H61.1067Z" fill="#fff"></path>
<path d="M89.9606 2.19947L88.7628 8.05015H70.9344L69.4141 15.2829H85.9526L84.7549 20.9032H68.2163L66.4658 29.0112H84.6627L83.3728 35.0001H58.0813L65.0376 2.19947H89.9606Z" fill="#fff"></path>
<path d="M95.0738 2.19947H107.835C110.138 2.19947 112.058 2.41446 113.593 2.84443C115.375 3.36654 116.787 4.42611 117.832 6.02314C118.906 7.58947 119.444 9.41684 119.444 11.5053C119.444 13.5323 118.983 15.4364 118.062 17.2177C117.141 18.9683 115.897 20.335 114.33 21.3178C112.334 22.577 109.171 23.2066 104.84 23.2066H97.7918L95.2581 35.0001H88.1175L95.0738 2.19947ZM100.971 8.05015L98.9896 17.5402H106.314C108.157 17.5402 109.631 17.1103 110.737 16.2503C111.873 15.3904 112.442 14.039 112.442 12.1963C112.442 11.2749 112.273 10.5225 111.935 9.93895C111.628 9.35542 111.152 8.9408 110.507 8.6951C109.862 8.41869 109.232 8.24978 108.618 8.18835C108.004 8.09622 107.22 8.05015 106.268 8.05015H100.971Z" fill="#fff"></path>
<path d="M191.097 2.19925L185.431 28.9189H201.462L200.173 34.9999H176.954L183.91 2.19925H191.097Z" fill="#fff"></path>
<path d="M226.764 2.19925L232.246 34.9999H225.059L223.954 27.675H211.746L207.554 34.9999H199.906L219.347 2.19925H226.764ZM214.556 22.3772H223.355L221.558 9.93873L214.556 22.3772Z" fill="#fff"></path>
<path d="M269.588 2.19925L265.58 21.3176C265.058 23.7746 264.443 25.8323 263.737 27.4908C263.061 29.1185 262.14 30.5773 260.973 31.8672C259.806 33.1572 258.332 34.1092 256.55 34.7235C254.769 35.307 252.604 35.5988 250.055 35.5988C248.366 35.5988 246.784 35.4299 245.31 35.092C243.836 34.7542 242.438 34.2321 241.118 33.5257C239.828 32.8193 238.799 31.8058 238.031 30.4852C237.263 29.1339 236.879 27.5675 236.879 25.7862C236.879 24.7113 237.11 23.0836 237.57 20.903L241.532 2.19925H248.673L244.849 20.3502C244.388 22.4693 244.158 23.9742 244.158 24.8649C244.158 26.3698 244.696 27.5675 245.77 28.4582C246.845 29.3181 248.335 29.7481 250.239 29.7481C250.945 29.7481 251.59 29.6867 252.174 29.5638C252.788 29.441 253.31 29.3028 253.74 29.1492C254.201 28.9957 254.631 28.7346 255.03 28.3661C255.429 27.9975 255.752 27.6904 255.998 27.4447C256.274 27.199 256.535 26.7997 256.781 26.2469C257.057 25.6634 257.257 25.2334 257.38 24.957C257.503 24.6806 257.656 24.1738 257.84 23.4367C258.055 22.6997 258.178 22.2083 258.209 21.9626C258.27 21.6861 258.393 21.118 258.577 20.258C258.67 19.8588 258.731 19.567 258.762 19.3827L262.447 2.19925H269.588Z" fill="#fff"></path>
<path d="M268.814 34.9999L275.817 2.19925H283.28L292.263 25.5098L297.008 2.19925H303.78L296.686 34.9999H289.453L280.377 11.9197L275.632 34.9999H268.814Z" fill="#fff"></path>
<path d="M334.932 23.2525C334.226 27.1529 332.46 30.2241 329.634 32.4661C326.809 34.6774 323.354 35.7831 319.269 35.7831C314.877 35.7831 311.453 34.5085 308.996 31.9594C306.539 29.4103 305.31 25.863 305.31 21.3176C305.31 15.7587 306.923 11.0597 310.147 7.2207C313.403 3.38167 317.764 1.46216 323.231 1.46216C327.162 1.46216 330.31 2.50637 332.675 4.5948C335.07 6.68323 336.268 9.44733 336.268 12.8871V13.5781H329.312C329.22 11.4283 328.651 9.84659 327.607 8.83309C326.563 7.81959 324.951 7.31284 322.77 7.31284C321.081 7.31284 319.545 7.75816 318.163 8.64882C316.812 9.50876 315.737 10.6451 314.938 12.0579C314.14 13.4399 313.526 14.9295 313.096 16.5265C312.696 18.0928 312.497 19.6745 312.497 21.2715C312.497 24.0049 313.126 26.1394 314.386 27.675C315.676 29.2106 317.457 29.9784 319.73 29.9784C321.757 29.9784 323.461 29.3949 324.843 28.2278C326.256 27.0608 327.223 25.4023 327.745 23.2525H334.932Z" fill="#fff"></path>
<path d="M371.935 2.19925L364.978 34.9999H357.792L360.786 20.8569H347.426L344.432 34.9999H337.245L344.202 2.19925H351.388L348.716 14.7759H362.076L364.748 2.19925H371.935Z" fill="#fff"></path>

<path d="M160.283 0.11792C154.42 0.11792 146.559 4.13865 141.278 11.0513H136.899C133.737 11.0513 131.925 13.4129 130.676 15.9084L129 19.2513H136.899L140.999 23.3513L145.099 27.4513V35.3479L148.442 33.6751C150.938 32.4287 153.299 30.6137 153.299 27.4513V23.0725C160.212 17.7917 164.233 9.92785 164.233 4.06759V0.11792H160.283ZM153.299 8.31792C154.024 8.31792 154.719 8.6059 155.232 9.11849C155.745 9.63109 156.033 10.3263 156.033 11.0513C156.033 11.7762 155.745 12.4714 155.232 12.984C154.719 13.4966 154.024 13.7846 153.299 13.7846C152.574 13.7846 151.879 13.4966 151.367 12.984C150.854 12.4714 150.566 11.7762 150.566 11.0513C150.566 10.3263 150.854 9.63109 151.367 9.11849C151.879 8.6059 152.574 8.31792 153.299 8.31792ZM135.533 24.7179L134.166 26.0846C132.193 28.0581 131.433 32.9179 131.433 32.9179C131.433 32.9179 136.074 32.3767 138.266 30.1846L139.633 28.8179L135.533 24.7179Z" fill="#fff"></path>
</svg>