<svg xmlns="http://www.w3.org/2000/svg" width="167.935" height="38.641" viewBox="0 0 167.935 38.641">
  <g id="Group_517" data-name="Group 517" transform="translate(0 0)">
    <path id="Path_1727" data-name="Path 1727" d="M4951.2,24.841c-.016.09.037.125.113.146a3.931,3.931,0,0,1,1.732,1.1q4.58,4.547,9.146,9.108a3.2,3.2,0,0,1,.9,2.772,3.339,3.339,0,0,1-2.743,2.792,3.277,3.277,0,0,1-3.017-1.087c-.461-.484-.922-.966-1.42-1.412-.1-.094-.2-.194-.3-.293q-2.442-2.432-4.885-4.864c-.337-.335-.295-.358-.65,0l-10.735,10.7c-.356.355-.358.357-.007.707l10.786,10.751c.041.041.085.081.125.123a.181.181,0,0,0,.3.009c.081-.084.167-.164.25-.247q2.751-2.745,5.5-5.489.673-.669,1.372-1.312a3.286,3.286,0,0,1,4.468,4.817c-.862.894-1.755,1.759-2.635,2.636q-3.289,3.277-6.577,6.554a3.747,3.747,0,0,1-1.674.994,3.183,3.183,0,0,1-3.24-.853c-1.4-1.365-2.778-2.759-4.165-4.141l-8.568-8.541c-.216-.215-.425-.437-.643-.65-.08-.078-.137-.193-.289-.2a1.064,1.064,0,0,0-.035.443q0,3.776,0,7.551a3.041,3.041,0,0,1-1.041,2.376,3.253,3.253,0,0,1-5.122-.8,3.942,3.942,0,0,1-.458-1.96c-.009-1.592,0-3.184,0-4.776q0-9.939,0-19.878a6.215,6.215,0,0,1,.119-1.255,3.325,3.325,0,0,1,2.817-2.54,3.4,3.4,0,0,1,3.468,2.049,3.541,3.541,0,0,1,.223,1.236q-.006,3.74,0,7.481v.441c.133.06.177-.031.23-.083.335-.328.666-.66,1-.991q6.015-6,12.035-11.988a4.759,4.759,0,0,1,1.347-1.061c.139-.063.28-.12.422-.176.1-.039.2-.07.244-.184Z" transform="translate(-4927.676 -24.841)" fill="#23af91"/>
    <path id="Path_1728" data-name="Path 1728" d="M6005.928,93.662a8.3,8.3,0,0,0,.035-2.665V87.51c0-2.066,0-4.132,0-6.2,0-.9-.057-1.352.937-1.382.521-.016,1.044-.006,1.565-.005.422,0,1.408-.189,1.765.036.515.324.254,1.653.254,2.174q0,1.566,0,3.132,0,6.557,0,13.114v2.936c0,.645.229,1.377-.509,1.522a13.717,13.717,0,0,1-2.724,0c-1.073-.023-1.346-.93-1.882-1.761-2.6-4.034-5.18-8.09-7.841-12.086-.349.3-.084,1.969-.084,2.415q0,1.669,0,3.339,0,3.24,0,6.481c0,.713.209,1.453-.61,1.612a14.44,14.44,0,0,1-3.126,0c-.847-.041-.832-.453-.84-1.222-.013-1.1,0-2.2,0-3.3q0-6.406,0-12.811V82.4c0-.611-.276-1.96.255-2.392.473-.385,2.116-.084,2.707-.086a2.1,2.1,0,0,1,1.2.142,5.375,5.375,0,0,1,.979,1.458q3.844,5.927,7.7,11.849a.731.731,0,0,0,.229.288" transform="translate(-5842.615 -72.065)" fill="#23af91"/>
    <path id="Path_1729" data-name="Path 1729" d="M5274.862,89.468c2.494-3.006,4.961-6.045,7.518-9,.647-.747,1.287-.572,2.239-.571a11.64,11.64,0,0,1,3.127.016c.783.259-.276,1.1-.616,1.509l-2.035,2.43c-1.247,1.489-2.473,3-3.736,4.473-.635.742-.52.814-.021,1.652q.776,1.307,1.552,2.615l3.144,5.3,1.474,2.487c.192.324,1.449,1.936,1.232,2.313-.208.361-1.871.119-2.218.119-.7,0-2.034.268-2.624-.151-.618-.439-1.03-1.628-1.416-2.28q-.847-1.431-1.7-2.861-.749-1.261-1.5-2.523-.374-.63-.745-1.262c-.142-.241-.461-1.087-.743-1.175-.344-.107-1.292,1.354-1.521,1.628-.526.63-1.371,1.307-1.47,2.155-.224,1.913.322,3.956,0,5.855-.09.53-.206.579-.745.613a27.769,27.769,0,0,1-3.008,0c-.808-.038-.791-.393-.817-1.146-.038-1.089,0-2.184,0-3.273q0-3.035,0-6.071,0-3.427,0-6.854V81.95c0-.792-.258-1.907.7-2.051a14.716,14.716,0,0,1,3.169,0c1.026.089.706,1.229.706,2.024q0,3.536,0,7.073a1.133,1.133,0,0,0,.047.471" transform="translate(-5221.91 -72.04)" fill="#23af91"/>
    <path id="Path_1730" data-name="Path 1730" d="M5744.4,90.827c0-2.377-.147-4.879.832-7.11a7.887,7.887,0,0,1,4.719-4.122c3.993-1.353,9.056.257,10.712,4.341.838,2.068.763,4.449.763,6.64,0,2.24.166,4.72-.688,6.84-1.616,4.015-6.332,5.888-10.4,4.713a8.166,8.166,0,0,1-4.861-3.8c-1.245-2.284-1.081-4.985-1.081-7.5Zm12.464.189a30.416,30.416,0,0,0-.215-4.565,3.86,3.86,0,0,0-6.426-2.241c-1.131,1.079-1.2,2.739-1.253,4.2a54.149,54.149,0,0,0,.029,5.43,4.827,4.827,0,0,0,1.446,3.718,4.152,4.152,0,0,0,3.785.622c2.874-.936,2.742-4.721,2.634-7.166" transform="translate(-5629.239 -71.471)" fill="#23af91"/>
    <path id="Path_1731" data-name="Path 1731" d="M5450.181,88.039c0,1.958.015,3.916,0,5.874a9.959,9.959,0,0,1-.885,4.823,8.5,8.5,0,0,1-7.8,4.365,8.237,8.237,0,0,1-7.652-5.053,14.568,14.568,0,0,1-.643-5.517q0-2.991,0-5.982c0-1.889-.046-3.783.043-5.671.042-.882.26-.891,1.115-.895a11.719,11.719,0,0,1,2.956.014c.7.211.467,1.123.467,1.731q0,1.538,0,3.075,0,2.979,0,5.958c0,2.9-.632,7.235,3.1,8.185a3.815,3.815,0,0,0,4.049-1.746c1-1.521.729-3.426.729-5.156q0-3.259,0-6.518V82.266c0-.532-.266-1.9.29-2.234.292-.174.983-.05,1.282-.05h1.6c1.22,0,1.356.1,1.356,1.361v6.7h-.005" transform="translate(-5361.915 -72.122)" fill="#23af91"/>
    <path id="Path_1732" data-name="Path 1732" d="M5601.062,90.93c0,2.841-.319,7.206,3.56,7.513a3.771,3.771,0,0,0,3.665-1.814c.212-.365.32-1.133.667-1.377.2-.138.715-.036.918-.036h1.664c.367,0,1.672-.228,1.876.143.246.447-.5,1.975-.7,2.4a8.075,8.075,0,0,1-2.981,3.491,9.26,9.26,0,0,1-9.629-.119c-2.82-1.811-3.425-4.782-3.581-7.912a44.419,44.419,0,0,1,.083-5.94,9.137,9.137,0,0,1,1.322-4.551,8.823,8.823,0,0,1,8.364-3.439,8.1,8.1,0,0,1,6.891,5.97c.063.215.369.933.211,1.175-.143.219-.857.075-1.081.075h-1.727a4.813,4.813,0,0,1-1.457-.016c-.612-.223-.8-1.47-1.256-2a3.484,3.484,0,0,0-1.879-1.108,3.862,3.862,0,0,0-4.263,1.663c-.958,1.675-.676,4.03-.676,5.884h.013" transform="translate(-5502.161 -71.543)" fill="#23af91"/>
    <path id="Path_1733" data-name="Path 1733" d="M5914.9,92.033v10.638c0,.724-.083.807-.806.807H5911.1c-.105,0-.211,0-.316-.008a.449.449,0,0,1-.422-.362,1.764,1.764,0,0,1-.04-.488q0-10.586,0-21.171c0-.913.325-.9.908-.893.938.01,1.877,0,2.816,0,.07,0,.141,0,.211,0,.5.01.637.148.645.659,0,.117,0,.234,0,.351q0,5.231,0,10.463" transform="translate(-5771.77 -72.7)" fill="#23af91"/>
    <path id="Path_1734" data-name="Path 1734" d="M5072.193,141.832a3.284,3.284,0,1,1-3.25-3.278,3.225,3.225,0,0,1,3.25,3.278" transform="translate(-5046.192 -122.521)" fill="#23af91"/>
  </g>
</svg>
