<svg xmlns="http://www.w3.org/2000/svg" width="142.758" height="26.905" viewBox="0 0 142.758 26.905">
  <g id="Group_515" data-name="Group 515" transform="translate(0)">
    <path id="Path_1708" data-name="Path 1708" d="M2632.149,109.2c-.5.692-1.009,1.381-1.508,2.076q-2.59,3.607-5.178,7.215a.922.922,0,0,1-1.549-.008l-6.716-9.351c-.062-.087-.127-.172-.193-.262-.137.1-.086.219-.086.317q0,5.578,0,11.156c0,.494,0,.5-.493.5l-3.277,0c-.406,0-.414-.009-.414-.425q0-8.218-.01-16.436c0-.275.092-.365.365-.363q1.969.015,3.938,0a.611.611,0,0,1,.557.314c1.057,1.51,2.131,3.01,3.2,4.512,1.232,1.729,2.468,3.455,3.693,5.189.146.206.211.23.366.007q2.835-4.074,5.684-8.139c.383-.547.766-1.094,1.139-1.648a.461.461,0,0,1,.418-.232q2.03,0,4.059,0c.182,0,.259.071.254.245,0,.07,0,.139,0,.209q0,8.159,0,16.317c0,.452,0,.454-.444.454l-3.337,0c-.389,0-.4-.014-.4-.406q0-5.444,0-10.888v-.32l-.072-.022" transform="translate(-2562.326 -97.072)"/>
    <path id="Path_1709" data-name="Path 1709" d="M2815.81,120.852h-8.928c-.469,0-.467,0-.467-.457q0-8.188,0-16.376c0-.369.013-.387.387-.387q8.929,0,17.857,0c.284,0,.387.081.382.372-.016.815-.005,1.63-.006,2.446,0,.445,0,.446-.468.446h-13.347c-.09,0-.181,0-.271,0-.167-.006-.232.079-.232.238q0,1.506,0,3.013c0,.167.082.231.241.229.22,0,.441,0,.661,0l11.784,0c.484,0,.479,0,.477.474,0,.8,0,1.591,0,2.386,0,.366-.019.387-.393.387q-6.027,0-12.055,0c-.834,0-.713-.093-.72.715-.007.945,0,1.889,0,2.834,0,.414,0,.415.413.415h13.618c.572,0,.523-.049.524.508,0,.756,0,1.511,0,2.267,0,.484,0,.485-.474.485h-8.989Z" transform="translate(-2728.703 -97.085)"/>
    <path id="Path_1710" data-name="Path 1710" d="M2962.27,103.159c.761,0,1.523.006,2.284,0a.663.663,0,0,1,.546.239q2.446,2.67,4.909,5.325c.262.284.257.268.516-.014,1.011-1.1,2.031-2.2,3.044-3.3q.951-1.035,1.887-2.085a.424.424,0,0,1,.337-.159l4.87,0c.059,0,.129-.013.158.055s-.027.129-.075.179c-.3.317-.607.634-.913.949q-3.189,3.287-6.379,6.573c-.547.563-.541.554-.009,1.1q3,3.1,5.982,6.206c.637.661,1.281,1.315,1.92,1.975.05.052.159.087.108.186-.037.071-.124.051-.192.051l-4.84,0a.474.474,0,0,1-.361-.176q-2.584-2.706-5.174-5.407a7.76,7.76,0,0,1-.544-.6c-.169-.218-.285-.167-.444.009-.715.792-1.441,1.575-2.16,2.364q-1.644,1.8-3.282,3.609a.565.565,0,0,1-.448.2q-2.345,0-4.689,0c-.085,0-.2.036-.239-.07s.073-.152.131-.212q3.816-3.951,7.633-7.9c.187-.194.359-.4.555-.587.15-.14.157-.24.01-.391q-1.549-1.583-3.087-3.177-2.009-2.076-4.015-4.154c-.18-.186-.369-.364-.553-.548-.056-.056-.129-.116-.083-.2s.126-.039.192-.04h2.405Z" transform="translate(-2859.838 -96.672)"/>
    <path id="Path_1711" data-name="Path 1711" d="M3146.571,103.225q3.8,0,7.6,0c.413,0,.414.006.415.418q0,1.253,0,2.505c0,.392,0,.393-.4.393h-13.226a.868.868,0,0,0-.522.1.665.665,0,0,0-.288.614c.007,2.187,0,4.375,0,6.562q0,1.327,0,2.655c0,.537.17.715.721.718,1.032.006,2.064,0,3.1,0l10.04,0c.575,0,.575,0,.575.566,0,.815-.008,1.631,0,2.446,0,.27-.084.363-.362.363-4.99-.006-9.98.005-14.97-.009a3.131,3.131,0,0,1-3.225-3.166q-.036-5.547,0-11.1a3.091,3.091,0,0,1,3.17-3.071q3.682,0,7.365,0Z" transform="translate(-3011.838 -96.736)"/>
    <path id="Path_1712" data-name="Path 1712" d="M2274.254,84.08h-13.271a7.742,7.742,0,0,1-2.5-.2,4.8,4.8,0,0,1-2.488-7.09c.744-1.38,1.557-2.738,2.354-4.088,1.6-2.7,3.122-5.448,4.7-8.16.795-1.369,1.574-2.747,2.364-4.118a5.752,5.752,0,0,1,3.017-2.954,4.776,4.776,0,0,1,4.233.612c1.24.867,1.873,2.334,2.606,3.608,1.547,2.687,3.11,5.368,4.625,8.075,1.555,2.779,3.276,5.475,4.77,8.288a24.066,24.066,0,0,0,2.908,4.324,8.756,8.756,0,0,0,1.051,1.042c.167.139.623.338.426.6-.15.2-1.083.06-1.307.06h-13.484" transform="translate(-2255.256 -57.223)" fill="#75fbb2"/>
    <path id="Path_1713" data-name="Path 1713" d="M2432.645,84.04c-2.369.184-4.449-1.389-5.769-3.206-1.4-1.932-2.509-4.062-3.71-6.121-1.179-2.022-2.371-4.043-3.514-6.086q-.864-1.542-1.762-3.059c-.263-.445-.518-.9-.774-1.346-.225-.394-.681-.913-.519-1.36a10.264,10.264,0,0,1,.828-1.436c.291-.515.574-1.033.878-1.54a5.374,5.374,0,0,1,2.382-2.255,4.7,4.7,0,0,1,5.589,1.412,24.147,24.147,0,0,1,1.694,2.867c.568.992,1.117,2,1.719,2.975,1.231,1.989,2.3,4.081,3.513,6.084.678,1.123,1.286,2.289,1.943,3.425a26.971,26.971,0,0,1,1.789,3.228,4.74,4.74,0,0,1-2.675,6.215,5.413,5.413,0,0,1-1.612.2" transform="translate(-2393.819 -57.224)" fill="#00b798"/>
  </g>
</svg>
