<svg xmlns="http://www.w3.org/2000/svg" width="157.632" height="36.195" viewBox="0 0 157.632 36.195">
  <g id="Group_514" data-name="Group 514" transform="translate(0)">
    <path id="Path_1714" data-name="Path 1714" d="M3694.471,91.07a1.03,1.03,0,0,0,.1.535V82.2h-.164a2.234,2.234,0,0,1,.083.834c0,2.678.017,5.356-.014,8.033" transform="translate(-3666.299 -73.908)" fill="#1a4fef"/>
    <path id="Path_1715" data-name="Path 1715" d="M3634.08,42.654c-.11-.232-.368-.248-.974-.248q-3.946,0-7.892,0c-1.03,0-1.032,0-1.034-1q0-2.607,0-5.214v6.469Z" transform="translate(-3605.976 -34.359)" fill="#1a4fef"/>
    <path id="Path_1716" data-name="Path 1716" d="M3624.182,91.892a.534.534,0,0,0,.15.112h9.915v-.4a1.032,1.032,0,0,1-.1-.535c.032-2.677.016-5.355.015-8.033a2.233,2.233,0,0,0-.083-.834h-9.9Z" transform="translate(-3605.979 -73.908)" fill="#00eb9a"/>
    <path id="Path_1717" data-name="Path 1717" d="M3523.344,51.48V41.464h-9.915a1.183,1.183,0,0,0,.544.1c2.678-.019,5.357-.008,8.035-.005.955,0,1.056.121.939,1.065a9.827,9.827,0,1,1-10.454-10.954c.481-.026.625.11.62.568-.016,1.433-.006,2.866-.006,4.3h0c0,1.386.02,2.773-.009,4.159a.906.906,0,0,0,.178.659V31.663h0V25.172c0-1.923-.008-1.923-1.944-1.712A18.007,18.007,0,0,0,3495.8,36.422a34.765,34.765,0,0,0-.721,3.725v2.679a3.905,3.905,0,0,1,.107.477,18.117,18.117,0,0,0,36.12-1.066c.02-.4,0-.637-.123-.773h-7.836Z" transform="translate(-3495.076 -23.368)" fill="#1a4fef"/>
    <path id="Path_1718" data-name="Path 1718" d="M3702.623,149.11c-2.137-.007-4.275-.021-6.412.008-.347,0-.544-.06-.647-.231v.4h7.836c-.126-.139-.362-.174-.777-.175" transform="translate(-3667.296 -131.189)" fill="#1a4fef"/>
    <path id="Path_1719" data-name="Path 1719" d="M4477.181,94.758a10.258,10.258,0,0,0-.057,20.5c5.5.214,9.8-3.86,10.669-9.147V103.86c-1.157-5.206-4.939-9.346-10.613-9.1m-3.823,14.35a5.945,5.945,0,0,1,4.267-9.987,5.864,5.864,0,0,1,5.792,5.952c-.054,5.084-6.506,7.767-10.06,4.035" transform="translate(-4330.162 -84.684)" fill="#fff"/>
    <path id="Path_1720" data-name="Path 1720" d="M3803.737,77.6c-1.644,0-3.289,0-4.933,0s-3.289.015-4.933-.007c-.575-.008-.807.215-.8.786.02,1.033,0,2.067,0,3.1,0,.908.064.968.952.97,1.527,0,3.054.013,4.58,0,.568-.006.713.2.507.726a7.171,7.171,0,0,1-3.1,3.708,7.861,7.861,0,1,1,1.618-12.478c.44.423.726.435,1.17.045.811-.713,1.647-1.4,2.51-2.048.5-.379.528-.656.081-1.109a12.843,12.843,0,0,0-6.538-3.671,12.687,12.687,0,1,0-1.292,25A11.666,11.666,0,0,0,3803.219,86c1.29-2.474,1.379-5.134,1.3-7.83-.016-.539-.373-.568-.778-.567" transform="translate(-3739.35 -61.129)" fill="#fff"/>
    <path id="Path_1721" data-name="Path 1721" d="M4227.587,94.775a10.318,10.318,0,0,0-8.935,11.763,10.11,10.11,0,0,0,9.542,8.656,9.946,9.946,0,0,0,9.343-4.844c.281-.427.194-.66-.253-.863-.876-.4-1.758-.79-2.6-1.255-.543-.3-.815-.2-1.2.284a5.866,5.866,0,0,1-10.016-1.071c-.32-.734-.288-.791.494-.792q3.524,0,7.047,0,3.453,0,6.906,0c1.026,0,1.1-.083,1.146-1.121a10.319,10.319,0,0,0-11.473-10.755m5.948,7.926c-1.6-.01-3.194,0-4.791,0-1.55,0-3.1-.014-4.65.007-.584.008-.654-.194-.381-.656a5.616,5.616,0,0,1,5.125-2.935,5.7,5.7,0,0,1,5.1,3c.3.513.059.592-.4.589" transform="translate(-4116.513 -84.649)" fill="#fff"/>
    <path id="Path_1722" data-name="Path 1722" d="M3986.76,96.579c-.351-.36-3.393-.43-3.846-.159-.936.56.036,1.29-1.36.687-4.63-2-9.842-1.515-13.092,2.739a10.257,10.257,0,0,0,7.332,16.461,10.221,10.221,0,0,0,3.848-.428c.621-.194,2.317-1.365,2.843-1.095.119.061.117.777.469.983.387.227,1.49.018,1.943.018,1.033,0,1.728.275,2.012-.734.366-1.3.009-3.23.009-4.591q0-2.184,0-4.369,0-2.642,0-5.284c0-.867.452-3.6-.158-4.227m-10.15,15.35a5.877,5.877,0,1,1,5.895-5.838,5.912,5.912,0,0,1-5.895,5.838" transform="translate(-3899.931 -85.736)" fill="#fff"/>
    <path id="Path_1723" data-name="Path 1723" d="M4136.014,87.3c-1.236.12-2.592.6-3.558-.5-.949-1.081-.548-3.206-.549-4.514,0-1.752-.032-3.508,0-5.26.033-1.986,1.2-1.474,2.934-1.475,2.11,0,2.134,0,2.136-2.1,0-2.3-.337-2.058-2.575-2.082-1.6-.017-2.471.392-2.492-1.4-.025-2.1.5-3.066-1.827-3.051-1.387.009-2.461-.482-2.591,1.08-.064.771.4,2.476-.061,3.137-.409.592-1.338,0-1.9.258-.953.437-1.021,3.724.05,4.162.962.394,1.558-.474,1.917.842.369,1.352-.011,3.517-.011,4.931h.016c0,3.054-.868,7.646,2.462,9.336,1.542.782,6.105,1.362,6.983-.628a7.124,7.124,0,0,0,0-2.556c-.35-.455-.319-.243-.94-.183" transform="translate(-4036.01 -60.724)" fill="#fff"/>
    <path id="Path_1724" data-name="Path 1724" d="M4423.069,112.423c-1.032.015-2.064,0-3.1.005-.884.005-.939.061-.94.979q-.006,3.871,0,7.742c0,2.628.015,5.255-.01,7.883-.006.672.237.919.906.894,1.031-.039,2.064-.028,3.1,0,.562.013.809-.191.808-.774q-.015-7.989,0-15.977c0-.547-.232-.756-.762-.748" transform="translate(-4288.749 -99.866)" fill="#fff"/>
    <path id="Path_1725" data-name="Path 1725" d="M4420.927,66.859c-.579,0-1.906-.282-2.341.27-.339.43-.067,1.883-.067,2.413,0,2.123.369,2.008,2.377,2.008.517,0,1.82.231,2.231-.154s.172-1.652.172-2.187c0-2.3-.079-2.349-2.373-2.349" transform="translate(-4288.229 -60.665)" fill="#fff"/>
    <path id="Path_1726" data-name="Path 1726" d="M4372.919,202.794c-.521,0-1.782-.222-2.189.164s-.167,1.655-.167,2.188c0,2.278.045,2.337,2.333,2.337.57,0,1.868.278,2.3-.259.334-.42.054-1.913.055-2.436,0-2.119-.314-1.995-2.328-1.995" transform="translate(-4247.059 -177.441)" fill="#fff"/>
  </g>
</svg>
