<svg id="Group_518" data-name="Group 518" xmlns="http://www.w3.org/2000/svg" width="112.667" height="38.639" viewBox="0 0 112.667 38.639">
  <path id="Path_1735" data-name="Path 1735" d="M7007.173,67.7c-.352,0-.7,0-1.055,0h-6.389c-.3,0-.3,0-.3.294q0,11.641,0,23.283c0,.274,0,.549,0,.823a.134.134,0,0,1-.146.156c-.152.007-.3.025-.456.025q-2.481,0-4.963,0c-.322,0-.318,0-.318-.32q0-2.362,0-4.723,0-9.657,0-19.315c0-.247,0-.252-.239-.252q-3.678,0-7.357.006c-.163,0-.194-.051-.193-.2q.007-2.353,0-4.706c0-.318,0-.319.313-.319h20.047c.352,0,.7.005,1.056.008Z" transform="translate(-6894.506 -53.653)" fill="#15192a"/>
  <path id="Path_1736" data-name="Path 1736" d="M6913.834,0V25.931q0,1.614,0,3.228c0,.419.083.615-.394.622-.559.009-1.118,0-1.677,0-1.048,0-2.1.017-3.146,0-.484-.009-.668.038-.662-.489.007-.546,0-1.093,0-1.64q0-6.545,0-13.091c0-4.853.04-9.708,0-14.561Z" transform="translate(-6827.677 0)" fill="#f7a700"/>
  <path id="Path_1737" data-name="Path 1737" d="M6709.609,77.334q0-7.34,0-14.679c0-.173.06-.222.224-.221,4,0,8-.011,12,.013a10.915,10.915,0,0,1,4.209.795,7.343,7.343,0,0,1,4.388,4.778,9.335,9.335,0,0,1,.385,3.242,6.8,6.8,0,0,1-1.94,4.419A5.894,5.894,0,0,1,6727.3,76.9c-.129.067-.061.111.015.15a9.4,9.4,0,0,1,.91.532,6.7,6.7,0,0,1,2.887,4.462,8.161,8.161,0,0,1,.153,1.621,8.651,8.651,0,0,1-2.058,5.863,7.321,7.321,0,0,1-1.765,1.409,9.581,9.581,0,0,1-3.512,1.171,14.76,14.76,0,0,1-2.312.16q-5.87,0-11.739,0c-.246,0-.267-.018-.267-.235v-14.7Zm5.866,6.046v3.266c0,.369,0,.371.379.371q2.684,0,5.368,0a7.005,7.005,0,0,0,1.122-.071,3.368,3.368,0,0,0,2.488-1.54,3.923,3.923,0,0,0,.429-3.062,3.072,3.072,0,0,0-1.71-2.149,4.461,4.461,0,0,0-1.993-.435c-1.948-.006-3.9,0-5.844,0-.239,0-.24,0-.24.248q0,1.686,0,3.371m0-12.312v3.125c0,.281,0,.285.276.285,1.842,0,3.684.008,5.526,0a4.428,4.428,0,0,0,1.845-.392,2.95,2.95,0,0,0,1.485-1.366,3.845,3.845,0,0,0,.314-2.278,2.933,2.933,0,0,0-1.622-2.282,4.289,4.289,0,0,0-2-.471c-1.865-.014-3.73,0-5.6-.008-.175,0-.23.048-.229.228.008,1.053,0,2.107,0,3.16" transform="translate(-6657.294 -53.63)" fill="#15192a"/>
  <path id="Path_1738" data-name="Path 1738" d="M6338.585,77.337V62.729c0-.289,0-.291.292-.291,3.924,0,7.85-.014,11.774.006a11.33,11.33,0,0,1,3.988.657,7.389,7.389,0,0,1,4.886,5.422,9.355,9.355,0,0,1,.266,2.732,6.852,6.852,0,0,1-1.31,3.652,6.623,6.623,0,0,1-2.021,1.875c-.055.033-.115.058-.171.089s-.132.02-.126.1c0,.057.07.073.117.1a6.653,6.653,0,0,1,3.785,4.974,9.321,9.321,0,0,1-.3,4.662,7.261,7.261,0,0,1-2.5,3.638,8.593,8.593,0,0,1-3.535,1.617,13.729,13.729,0,0,1-2.807.314q-5.772-.008-11.545,0a6.1,6.1,0,0,1-.65-.026c-.1-.011-.149-.052-.146-.154,0-.064,0-.129,0-.193Zm5.863,6.043c0,1.135,0,2.271,0,3.406,0,.148.038.217.194.213s.3.017.457.017c1.784,0,3.567,0,5.351,0a5.054,5.054,0,0,0,1.237-.141,3.282,3.282,0,0,0,2.443-2.161,4.234,4.234,0,0,0,.159-2.111,3.085,3.085,0,0,0-1.89-2.464,4.544,4.544,0,0,0-1.883-.379q-2.913,0-5.826,0c-.234,0-.238,0-.238.232q0,1.694,0,3.389m0-12.31c0,1.059,0,2.118,0,3.177,0,.148.036.217.194.213s.292.019.439.019q2.5,0,5,0a5.168,5.168,0,0,0,1.272-.143,3.125,3.125,0,0,0,2.468-2.311,3.967,3.967,0,0,0,.087-1.462,2.936,2.936,0,0,0-1.559-2.36,4.291,4.291,0,0,0-2.113-.518c-1.853-.013-3.707,0-5.56-.008-.183,0-.227.059-.226.232.007,1.053,0,2.106,0,3.16" transform="translate(-6338.585 -53.63)" fill="#15192a"/>
  <path id="Path_1739" data-name="Path 1739" d="M6522.259,86.061q0-2.967,0-5.935a.679.679,0,0,0-.083-.318q-2.084-4.083-4.166-8.166-2.035-3.989-4.072-7.978c-.178-.349-.362-.7-.547-1.041-.092-.173-.082-.2.113-.2h3.713c.734,0,1.467,0,2.2,0a.309.309,0,0,1,.32.212q1.609,3.483,3.226,6.962,1.071,2.31,2.137,4.622c.023.051.031.129.1.124s.081-.079.1-.13q.724-1.57,1.446-3.142c.724-1.581,1.45-3.16,2.167-4.744.558-1.232,1.153-2.446,1.662-3.7a.293.293,0,0,1,.316-.209q2.948.009,5.9.005c.254,0,.261.015.14.237-.55,1.008-1.055,2.038-1.577,3.06L6529.6,77.013q-.708,1.384-1.419,2.766a.952.952,0,0,0-.107.454q.006,5.83.006,11.659c0,.053,0,.105,0,.158,0,.142-.064.189-.207.192-1.754.03-3.508,0-5.262.011-.053,0-.106,0-.159,0-.146,0-.2-.067-.2-.218.006-1.235.006-2.47.007-3.7q0-1.133,0-2.265h0" transform="translate(-6488.697 -53.617)" fill="#15192a"/>
</svg>
