<?xml version="1.0" standalone="yes"?>
<svg xmlns="http://www.w3.org/2000/svg" width="1536" height="464">
<path style="fill:#010101; stroke:none;" d="M0 0L0 464L1536 464L1536 0L0 0z"/>
<path style="fill:#3b2a1b; stroke:none;" d="M369 34L369 35L379 34L372 45L373 45L380 33L369 34z"/>
<path style="fill:#6c4b30; stroke:none;" d="M360 37L360 38L363 38C346.57 69.1807 355.993 109.584 378.286 135C399.977 159.729 428 175.981 428 212C431.038 212.696 435.682 215.017 438.725 213.672C442.118 212.173 443.322 206.191 444.279 203C447.466 192.363 447.17 179.444 440.895 170C430.435 154.258 408.914 146.353 395 133.829C366.632 108.296 357.64 66.4326 379 34L360 37z"/>
<path style="fill:#3b2a1b; stroke:none;" d="M365 35L365 36L368 36L365 35M361 36L361 37L364 37L361 36M353 39L353 40L360 38L353 39z"/>
<path style="fill:#6c4b30; stroke:none;" d="M357.667 38.3333L358.333 38.6667L357.667 38.3333z"/>
<path style="fill:#855e3a; stroke:none;" d="M263 138C273.09 138.803 303.893 143.787 298.092 159.999C292.156 176.586 266.322 158.616 255 158.104C234.833 157.193 221.512 176.799 216.745 194C214.411 202.422 212.884 225.631 224.105 229.306C230.237 231.315 238.381 225.89 245 226.63C254.534 227.694 276.25 231.887 272.562 245.999C271.441 250.293 267.48 253.534 263 253.346C257.428 253.113 252.386 249.664 247 248.518C239.618 246.946 231.703 249.456 225 252.439C199.493 263.79 186.259 295.304 201.468 320C209.304 332.724 223.064 340.896 237 345.385C283.903 360.495 338.553 362.165 387 354.246C399.495 352.204 422.915 351.919 432.815 343.57C463.809 317.432 452.594 265.472 430.076 239.015C422.989 230.688 407.085 232.983 403.668 220.999C399.217 205.388 420.112 208.434 428 211C428 171.712 394.066 155.245 372.503 127C352.501 100.801 351.516 67.7688 363 38C351.677 38.9886 340.443 46.0352 331 51.9499C303.398 69.2384 263.294 102.435 263 138z"/>
<path style="fill:#6c4b30; stroke:none;" d="M355 39L356 40L355 39z"/>
<path style="fill:#3b2a1b; stroke:none;" d="M351 40L352 41L351 40z"/>
<path style="fill:#6c4b30; stroke:none;" d="M352 40L353 41L352 40z"/>
<path style="fill:#3b2a1b; stroke:none;" d="M348 41L349 42L348 41z"/>
<path style="fill:#6c4b30; stroke:none;" d="M349.667 41.3333L350.333 41.6667L349.667 41.3333z"/>
<path style="fill:#3b2a1b; stroke:none;" d="M346 42L344 43L344 44L346 42z"/>
<path style="fill:#6c4b30; stroke:none;" d="M347.667 42.3333L348.333 42.6667L347.667 42.3333M346 43L347 44L346 43z"/>
<path style="fill:#3b2a1b; stroke:none;" d="M342 44L343 45L342 44z"/>
<path style="fill:#6c4b30; stroke:none;" d="M343.667 44.3333L344.333 44.6667L343.667 44.3333z"/>
<path style="fill:#3b2a1b; stroke:none;" d="M340 45L341 46L340 45z"/>
<path style="fill:#6c4b30; stroke:none;" d="M341 45L342 46L341 45z"/>
<path style="fill:#3b2a1b; stroke:none;" d="M338 46L335 48L335 49L339 47L338 46z"/>
<path style="fill:#6c4b30; stroke:none;" d="M339.667 46.3333L340.333 46.6667L339.667 46.3333z"/>
<path style="fill:#3b2a1b; stroke:none;" d="M371 46L372 47L371 46z"/>
<path style="fill:#6c4b30; stroke:none;" d="M338 47L339 48L338 47M336 48L337 49L336 48z"/>
<path style="fill:#3b2a1b; stroke:none;" d="M332 51L335 50L332 51M370.333 49.6667L370.667 50.3333L370.333 49.6667z"/>
<path style="fill:#6c4b30; stroke:none;" d="M333 50L334 51L333 50z"/>
<path style="fill:#3b2a1b; stroke:none;" d="M330 51L331 52L330 51z"/>
<path style="fill:#6c4b30; stroke:none;" d="M331 51L332 52L331 51z"/>
<path style="fill:#3b2a1b; stroke:none;" d="M328 52L327 54L328 52z"/>
<path style="fill:#6c4b30; stroke:none;" d="M329.667 52.3333L330.333 52.6667L329.667 52.3333z"/>
<path style="fill:#3b2a1b; stroke:none;" d="M369 52L369 55L370 55L369 52z"/>
<path style="fill:#6c4b30; stroke:none;" d="M328 53L329 54L328 53z"/>
<path style="fill:#3b2a1b; stroke:none;" d="M324 56L327 55L324 56z"/>
<path style="fill:#6c4b30; stroke:none;" d="M325 55L326 56L325 55z"/>
<path style="fill:#3b2a1b; stroke:none;" d="M323 56L324 57L323 56M368 56L368 61L369 61L368 56M321 57L319 60L321 57z"/>
<path style="fill:#6c4b30; stroke:none;" d="M322 57L323 58L322 57M321 58L322 59L321 58M320 59L321 60L320 59M318 60L319 61L318 60z"/>
<path style="fill:#3b2a1b; stroke:none;" d="M316 61L314 64L316 61z"/>
<path style="fill:#6c4b30; stroke:none;" d="M317 61L318 62L317 61M316 62L317 63L316 62z"/>
<path style="fill:#3b2a1b; stroke:none;" d="M367 62L367 82L368 82L367 62z"/>
<path style="fill:#6c4b30; stroke:none;" d="M315 63L316 64L315 63z"/>
<path style="fill:#3b2a1b; stroke:none;" d="M313 64L314 65L313 64z"/>
<path style="fill:#6c4b30; stroke:none;" d="M312 65L313 66L312 65z"/>
<path style="fill:#3b2a1b; stroke:none;" d="M310 66L308 69L310 66z"/>
<path style="fill:#6c4b30; stroke:none;" d="M311 66L312 67L311 66M310 67L311 68L310 67M309 68L310 69L309 68z"/>
<path style="fill:#3b2a1b; stroke:none;" d="M307 69L308 70L307 69M306 70L307 71L306 70M305 71L306 72L305 71M303 72L301 75L303 72z"/>
<path style="fill:#6c4b30; stroke:none;" d="M304 72L305 73L304 72M303 73L304 74L303 73M302 74L303 75L302 74M301 75L302 76L301 75z"/>
<path style="fill:#3b2a1b; stroke:none;" d="M299 76L288 88L299 76z"/>
<path style="fill:#6c4b30; stroke:none;" d="M300 76L301 77L300 76M299 77L300 78L299 77M298 78L299 79L298 78M297 79L298 80L297 79M296 80L297 81L296 80M295 81L296 82L295 81M294 82L295 83L294 82M293 83L294 84L293 83M292 84L293 85L292 84z"/>
<path style="fill:#3b2a1b; stroke:none;" d="M368 84L368 89L369 89L368 84z"/>
<path style="fill:#6c4b30; stroke:none;" d="M291 85L292 86L291 85M290 86L291 87L290 86M289 87L290 88L289 87M288 88L289 89L288 88M287 89L288 90L287 89M286 90L287 91L286 90z"/>
<path style="fill:#3b2a1b; stroke:none;" d="M369 90L369 93L370 93L369 90M285 91L286 92L285 91M284 92L285 93L284 92M283 93L284 94L283 93M282 94L279 98L282 94z"/>
<path style="fill:#6c4b30; stroke:none;" d="M282 95L283 96L282 95z"/>
<path style="fill:#3b2a1b; stroke:none;" d="M370.333 95.6667L370.667 96.3333L370.333 95.6667z"/>
<path style="fill:#6c4b30; stroke:none;" d="M281 96L282 97L281 96M280 97L281 98L280 97M279 98L280 99L279 98z"/>
<path style="fill:#3b2a1b; stroke:none;" d="M371.333 98.6667L371.667 99.3333L371.333 98.6667z"/>
<path style="fill:#6c4b30; stroke:none;" d="M278 99L279 100L278 99z"/>
<path style="fill:#3b2a1b; stroke:none;" d="M277 100L278 101L277 100M276 101L275 103L276 101M372.333 101.667L372.667 102.333L372.333 101.667z"/>
<path style="fill:#6c4b30; stroke:none;" d="M276 102L277 103L276 102M275 103L276 104L275 103z"/>
<path style="fill:#3b2a1b; stroke:none;" d="M274 104L275 105L274 104M373.333 104.667L373.667 105.333L373.333 104.667M273 105L274 106L273 105z"/>
<path style="fill:#6c4b30; stroke:none;" d="M273 106L274 107L273 106z"/>
<path style="fill:#3b2a1b; stroke:none;" d="M374.333 106.667L374.667 107.333L374.333 106.667M272 107L271 109L272 107z"/>
<path style="fill:#6c4b30; stroke:none;" d="M272 108L273 109L272 108z"/>
<path style="fill:#3b2a1b; stroke:none;" d="M375.333 108.667L375.667 109.333L375.333 108.667z"/>
<path style="fill:#6c4b30; stroke:none;" d="M271 109L272 110L271 109z"/>
<path style="fill:#3b2a1b; stroke:none;" d="M270 110L269 112L270 110M376 110L377 111L376 110z"/>
<path style="fill:#6c4b30; stroke:none;" d="M270 111L271 112L270 111M269 112L270 113L269 112z"/>
<path style="fill:#3b2a1b; stroke:none;" d="M377 112L378 113L377 112M268 113L269 114L268 113M378.333 113.667L378.667 114.333L378.333 113.667z"/>
<path style="fill:#6c4b30; stroke:none;" d="M268 114L269 115L268 114z"/>
<path style="fill:#3b2a1b; stroke:none;" d="M267 115L268 116L267 115M379 115L380 116L379 115z"/>
<path style="fill:#6c4b30; stroke:none;" d="M267 116L268 117L267 116z"/>
<path style="fill:#3b2a1b; stroke:none;" d="M380 117L381 118L380 117M266 118L267 119L266 118M381 118L382 119L381 118z"/>
<path style="fill:#6c4b30; stroke:none;" d="M266 119L267 120L266 119z"/>
<path style="fill:#3b2a1b; stroke:none;" d="M382.333 119.667L382.667 120.333L382.333 119.667M265 120L266 121L265 120z"/>
<path style="fill:#6c4b30; stroke:none;" d="M265 121L266 122L265 121z"/>
<path style="fill:#3b2a1b; stroke:none;" d="M383 121L384 122L383 121M384 122L385 123L384 122M264.333 123.667L264.667 124.333L264.333 123.667M385 123L388 127L385 123z"/>
<path style="fill:#6c4b30; stroke:none;" d="M264 125L265 126L264 125z"/>
<path style="fill:#3b2a1b; stroke:none;" d="M263 126L263 129L264 129L263 126M388 127L389 128L388 127M389 128L390 129L389 128z"/>
<path style="fill:#6c4b30; stroke:none;" d="M263.333 129.667L263.667 130.333L263.333 129.667z"/>
<path style="fill:#3b2a1b; stroke:none;" d="M390 129L391 130L390 129M262 130L262 138L263 138L262 130M391 130L392 131L391 130M392 131L393 132L392 131M393 132L394 133L393 132M394 133L398 136L394 133M398 136L399 137L398 136M399 137L400 138L399 137M263 138L263 139L266 139L263 138z"/>
<path style="fill:#6c4b30; stroke:none;" d="M266.667 138.333L267.333 138.667L266.667 138.333z"/>
<path style="fill:#3b2a1b; stroke:none;" d="M400 138L401 139L400 138M267 139L267 140L270 140L267 139z"/>
<path style="fill:#6c4b30; stroke:none;" d="M270 139L270 140L273 140L270 139z"/>
<path style="fill:#3b2a1b; stroke:none;" d="M401.667 139.333L402.333 139.667L401.667 139.333M271 140L271 141L274 141L271 140z"/>
<path style="fill:#6c4b30; stroke:none;" d="M274 140L274 141L277 141L274 140z"/>
<path style="fill:#3b2a1b; stroke:none;" d="M403 140L404 141L403 140M277.667 141.333L278.333 141.667L277.667 141.333z"/>
<path style="fill:#6c4b30; stroke:none;" d="M279.667 141.333L280.333 141.667L279.667 141.333z"/>
<path style="fill:#3b2a1b; stroke:none;" d="M404 141L405 142L404 141M281 142L281 143L292 147L292 146L281 142z"/>
<path style="fill:#6c4b30; stroke:none;" d="M284 142L285 143L284 142z"/>
<path style="fill:#3b2a1b; stroke:none;" d="M405 142L406 143L405 142z"/>
<path style="fill:#6c4b30; stroke:none;" d="M287 143L288 144L287 143z"/>
<path style="fill:#3b2a1b; stroke:none;" d="M406.667 143.333L407.333 143.667L406.667 143.333z"/>
<path style="fill:#6c4b30; stroke:none;" d="M289 144L290 145L289 144z"/>
<path style="fill:#3b2a1b; stroke:none;" d="M408 144L409 145L408 144z"/>
<path style="fill:#6c4b30; stroke:none;" d="M291 145L292 146L291 145z"/>
<path style="fill:#3b2a1b; stroke:none;" d="M409.667 145.333L410.333 145.667L409.667 145.333z"/>
<path style="fill:#6c4b30; stroke:none;" d="M292 146L293 147L292 146z"/>
<path style="fill:#3b2a1b; stroke:none;" d="M411 146L412 147L411 146M293 147L294 148L293 147M412 147L413 148L412 147M294 148L296 150L294 148z"/>
<path style="fill:#6c4b30; stroke:none;" d="M295 148L296 149L295 148z"/>
<path style="fill:#3b2a1b; stroke:none;" d="M414 148L415 149L414 148M415.667 149.333L416.333 149.667L415.667 149.333z"/>
<path style="fill:#6c4b30; stroke:none;" d="M296 150L297 151L296 150z"/>
<path style="fill:#3b2a1b; stroke:none;" d="M417 150L418 151L417 150z"/>
<path style="fill:#6c4b30; stroke:none;" d="M297 151L298 152L297 151z"/>
<path style="fill:#3b2a1b; stroke:none;" d="M418 151L419 152L418 151M297 152L298 153L297 152M420 152L421 153L420 152M421.667 153.333L422.333 153.667L421.667 153.333z"/>
<path style="fill:#6c4b30; stroke:none;" d="M298 154L299 155L298 154z"/>
<path style="fill:#3b2a1b; stroke:none;" d="M423 154L424 155L423 154M298 155L298 159L299 159L298 155M424.667 155.333L425.333 155.667L424.667 155.333M426 156L427 157L426 156M250 157L250 158L258 158L250 157M427.667 157.333L428.333 157.667L427.667 157.333M245.667 158.333L246.333 158.667L245.667 158.333z"/>
<path style="fill:#6c4b30; stroke:none;" d="M247 158L247 159L250 159L247 158M258 158L258 159L261 159L258 158z"/>
<path style="fill:#3b2a1b; stroke:none;" d="M261 158L261 159L264 159L261 158M429 158L430 159L429 158M239 161L239 162L244 160L239 161z"/>
<path style="fill:#6c4b30; stroke:none;" d="M244.667 159.333L245.333 159.667L244.667 159.333M263.667 159.333L264.333 159.667L263.667 159.333z"/>
<path style="fill:#3b2a1b; stroke:none;" d="M265 159L265 160L270 161L270 160L265 159z"/>
<path style="fill:#6c4b30; stroke:none;" d="M298 159L299 160L298 159z"/>
<path style="fill:#3b2a1b; stroke:none;" d="M430 159L433 161L430 159z"/>
<path style="fill:#6c4b30; stroke:none;" d="M242 160L243 161L242 160M266.667 160.333L267.333 160.667L266.667 160.333M240 161L241 162L240 161M269.667 161.333L270.333 161.667L269.667 161.333z"/>
<path style="fill:#3b2a1b; stroke:none;" d="M271 161L272 162L271 161M297 161L298 162L297 161M433 161L434 162L433 161M237 162L238 163L237 162z"/>
<path style="fill:#6c4b30; stroke:none;" d="M238 162L239 163L238 162M272 162L273 163L272 162z"/>
<path style="fill:#3b2a1b; stroke:none;" d="M273.667 162.333L274.333 162.667L273.667 162.333z"/>
<path style="fill:#6c4b30; stroke:none;" d="M297 162L298 163L297 162z"/>
<path style="fill:#3b2a1b; stroke:none;" d="M434 162L435 163L434 162M235 163L233 166L235 163z"/>
<path style="fill:#6c4b30; stroke:none;" d="M236 163L237 164L236 163M274.667 163.333L275.333 163.667L274.667 163.333z"/>
<path style="fill:#3b2a1b; stroke:none;" d="M276.667 163.333L277.333 163.667L276.667 163.333z"/>
<path style="fill:#6c4b30; stroke:none;" d="M296 163L297 164L296 163z"/>
<path style="fill:#3b2a1b; stroke:none;" d="M435 163L436 164L435 163z"/>
<path style="fill:#6c4b30; stroke:none;" d="M235 164L236 165L235 164M277 164L277 165L281 166L281 165L277 164z"/>
<path style="fill:#3b2a1b; stroke:none;" d="M279.667 164.333L280.333 164.667L279.667 164.333M291 166L291 167L296 165L291 166M436 164L437 165L436 164z"/>
<path style="fill:#6c4b30; stroke:none;" d="M234 165L235 166L234 165z"/>
<path style="fill:#3b2a1b; stroke:none;" d="M281 165L281 166L287 167L287 166L281 165z"/>
<path style="fill:#6c4b30; stroke:none;" d="M294 165L295 166L294 165z"/>
<path style="fill:#3b2a1b; stroke:none;" d="M437 165L438 166L437 165M232 166L233 167L232 166z"/>
<path style="fill:#6c4b30; stroke:none;" d="M283 166L284 167L283 166M293 166L294 167L293 166z"/>
<path style="fill:#3b2a1b; stroke:none;" d="M438 166L439 167L438 166M231 167L232 168L231 167z"/>
<path style="fill:#6c4b30; stroke:none;" d="M287 167L287 168L291 168L287 167z"/>
<path style="fill:#3b2a1b; stroke:none;" d="M439 167L440 168L439 167M230 168L231 169L230 168M440.333 168.667L440.667 169.333L440.333 168.667M229 169L230 170L229 169M228 170L229 171L228 170M441 170L442 171L441 170M227 171L228 172L227 171M442.333 171.667L442.667 172.333L442.333 171.667M226 172L227 173L226 172z"/>
<path style="fill:#6c4b30; stroke:none;" d="M226 173L227 174L226 173z"/>
<path style="fill:#3b2a1b; stroke:none;" d="M443.333 173.667L443.667 174.333L443.333 173.667M225 174L226 175L225 174M224 175L225 176L224 175M444.333 175.667L444.667 176.333L444.333 175.667z"/>
<path style="fill:#6c4b30; stroke:none;" d="M223 177L224 178L223 177z"/>
<path style="fill:#3b2a1b; stroke:none;" d="M222 178L223 179L222 178M445 178L445 181L446 181L445 178z"/>
<path style="fill:#6c4b30; stroke:none;" d="M222 179L223 180L222 179z"/>
<path style="fill:#3b2a1b; stroke:none;" d="M221 180L219 185L220 185L221 180z"/>
<path style="fill:#6c4b30; stroke:none;" d="M221 181L222 182L221 181z"/>
<path style="fill:#3b2a1b; stroke:none;" d="M446 182L446 197L447 197L446 182z"/>
<path style="fill:#6c4b30; stroke:none;" d="M220 183L221 184L220 183M219 185L220 186L219 185z"/>
<path style="fill:#3b2a1b; stroke:none;" d="M218 186L219 187L218 186z"/>
<path style="fill:#6c4b30; stroke:none;" d="M218.333 187.667L218.667 188.333L218.333 187.667z"/>
<path style="fill:#3b2a1b; stroke:none;" d="M217.333 188.667L217.667 189.333L217.333 188.667z"/>
<path style="fill:#6c4b30; stroke:none;" d="M217.333 190.667L217.667 191.333L217.333 190.667z"/>
<path style="fill:#3b2a1b; stroke:none;" d="M216.333 191.667L216.667 192.333L216.333 191.667z"/>
<path style="fill:#6c4b30; stroke:none;" d="M216.333 193.667L216.667 194.333L216.333 193.667z"/>
<path style="fill:#3b2a1b; stroke:none;" d="M215 195L215 198L216 198L215 195z"/>
<path style="fill:#6c4b30; stroke:none;" d="M215.333 198.667L215.667 199.333L215.333 198.667z"/>
<path style="fill:#3b2a1b; stroke:none;" d="M445 198L445 201L446 201L445 198M214 201L214 212L215 212L214 201z"/>
<path style="fill:#ffffff; stroke:none;" d="M1156 201L1156 227L1194 227L1194 201L1156 201z"/>
<path style="fill:#3b2a1b; stroke:none;" d="M444.333 202.667L444.667 203.333L444.333 202.667M443.333 205.667L443.667 206.333L443.333 205.667z"/>
<path style="fill:#6c4b30; stroke:none;" d="M306.667 206.333L307.333 206.667L306.667 206.333M366 206L367 207L366 206z"/>
<path style="fill:#ffffff; stroke:none;" d="M1013 283L974 283C973.738 314.221 929.42 312.405 928.039 282C927.489 269.88 925.76 253.45 935.105 244.105C950.126 229.084 972.17 241.964 973 261L1013 261C1012.99 209.027 947.21 189.161 908 216.57C887.685 230.771 884.891 255.209 885.001 278C885.078 294.05 890.676 312.69 903.039 323.56C925.831 343.599 975.329 345.262 997.985 323.907C1009.47 313.082 1013 298.231 1013 283z"/>
<path style="fill:#6c4b30; stroke:none;" d="M302.667 207.333L303.333 207.667L302.667 207.333z"/>
<path style="fill:#3b2a1b; stroke:none;" d="M304 207L304 208L309 208L304 207z"/>
<path style="fill:#6c4b30; stroke:none;" d="M309.667 207.333L310.333 207.667L309.667 207.333M363 207L364 208L363 207z"/>
<path style="fill:#3b2a1b; stroke:none;" d="M364 207L364 208L369 208L364 207z"/>
<path style="fill:#6c4b30; stroke:none;" d="M369.667 207.333L370.333 207.667L369.667 207.333M300 208L296 213L300 208z"/>
<path style="fill:#3b2a1b; stroke:none;" d="M296 214L303 209L296 214z"/>
<path style="fill:#010101; stroke:none;" d="M303.001 208.742C288.416 214.326 294.817 245.372 310.999 238.987C326.535 232.857 320.198 202.159 303.001 208.742z"/>
<path style="fill:#3b2a1b; stroke:none;" d="M311 208L312 209L311 208z"/>
<path style="fill:#6c4b30; stroke:none;" d="M312 208L313 209L312 208M361 208L362 209L361 208z"/>
<path style="fill:#3b2a1b; stroke:none;" d="M362 208L363 209L362 208z"/>
<path style="fill:#010101; stroke:none;" d="M363.004 208.742C348.645 214.281 354.713 245.155 370.999 239.103C387.269 233.057 380.551 201.975 363.004 208.742z"/>
<path style="fill:#3b2a1b; stroke:none;" d="M371.667 208.333L372.333 208.667L371.667 208.333z"/>
<path style="fill:#6c4b30; stroke:none;" d="M410.667 208.333L411.333 208.667L410.667 208.333z"/>
<path style="fill:#3b2a1b; stroke:none;" d="M412 208L412 209L419 209L412 208z"/>
<path style="fill:#6c4b30; stroke:none;" d="M419.667 208.333L420.333 208.667L419.667 208.333z"/>
<path style="fill:#3b2a1b; stroke:none;" d="M442.333 208.667L442.667 209.333L442.333 208.667M313 209L318 214L313 209z"/>
<path style="fill:#6c4b30; stroke:none;" d="M314 209L315 210L314 209M359 209L354 218L355 218L359 209z"/>
<path style="fill:#3b2a1b; stroke:none;" d="M360 209L361 210L360 209M373 209L377 212L377 211L373 209z"/>
<path style="fill:#6c4b30; stroke:none;" d="M374 209L375 210L374 209M408 209L409 210L408 209z"/>
<path style="fill:#3b2a1b; stroke:none;" d="M409.667 209.333L410.333 209.667L409.667 209.333M420.667 209.333L421.333 209.667L420.667 209.333z"/>
<path style="fill:#6c4b30; stroke:none;" d="M422.667 209.333L423.333 209.667L422.667 209.333z"/>
<path style="fill:#ffffff; stroke:none;" d="M513 209L513 336L555 336L555 295C570.785 295 591.837 298.733 606 290.535C631.715 275.652 634.02 232.231 609 215.36C597.898 207.873 585.775 209 573 209L513 209z"/>
<path style="fill:#6c4b30; stroke:none;" d="M315 210L316 211L315 210z"/>
<path style="fill:#3b2a1b; stroke:none;" d="M359 210L360 211L359 210z"/>
<path style="fill:#6c4b30; stroke:none;" d="M375.667 210.333L376.333 210.667L375.667 210.333M406 210L405 212L406 210z"/>
<path style="fill:#3b2a1b; stroke:none;" d="M407.667 210.333L408.333 210.667L407.667 210.333M423 210L423 211L428 212L428 211L423 210z"/>
<path style="fill:#6c4b30; stroke:none;" d="M425.667 210.333L426.333 210.667L425.667 210.333z"/>
<path style="fill:#3b2a1b; stroke:none;" d="M441.333 210.667L441.667 211.333L441.333 210.667z"/>
<path style="fill:#6c4b30; stroke:none;" d="M316 211L317 212L316 211z"/>
<path style="fill:#3b2a1b; stroke:none;" d="M358 211L359 212L358 211M406 211L407 212L406 211z"/>
<path style="fill:#6c4b30; stroke:none;" d="M215 212L215 215L216 215L215 212M317 212L318 213L317 212z"/>
<path style="fill:#3b2a1b; stroke:none;" d="M357 212L358 213L357 212z"/>
<path style="fill:#6c4b30; stroke:none;" d="M377 212L379 214L377 212z"/>
<path style="fill:#3b2a1b; stroke:none;" d="M405 212L404 215L405 212M428 212L428 213L431 213L428 212M377 213L378 214L377 213z"/>
<path style="fill:#6c4b30; stroke:none;" d="M404 213L405 214L404 213z"/>
<path style="fill:#3b2a1b; stroke:none;" d="M431 213L431 214L434 214L431 213M440 213L434 214L434 215C436.43 215.42 440.577 216.476 440 213z"/>
<path style="fill:#6c4b30; stroke:none;" d="M295 214L296 215L295 214z"/>
<path style="fill:#3b2a1b; stroke:none;" d="M318 214L319 218L320 218L318 214M356 214L357 215L356 214M378 214L379 215L378 214M215.333 215.667L215.667 216.333L215.333 215.667M295.333 215.667L295.667 216.333L295.333 215.667z"/>
<path style="fill:#6c4b30; stroke:none;" d="M319 215L320 216L319 215M379 215L380 216L379 215M403.333 215.667L403.667 216.333L403.333 215.667M294.333 216.667L294.667 217.333L294.333 216.667z"/>
<path style="fill:#3b2a1b; stroke:none;" d="M355.333 216.667L355.667 217.333L355.333 216.667M379 216L380 217L379 216z"/>
<path style="fill:#6c4b30; stroke:none;" d="M216.333 217.667L216.667 218.333L216.333 217.667M380.333 217.667L380.667 218.333L380.333 217.667z"/>
<path style="fill:#3b2a1b; stroke:none;" d="M403 217L403 220L404 220L403 217M294 218L294 229L295 229L294 218z"/>
<path style="fill:#6c4b30; stroke:none;" d="M320.333 218.667L320.667 219.333L320.333 218.667z"/>
<path style="fill:#3b2a1b; stroke:none;" d="M354 218L354 228L355 228L354 218M216 219L217 220L216 219z"/>
<path style="fill:#6c4b30; stroke:none;" d="M293 219L293 227L294 227L293 219z"/>
<path style="fill:#3b2a1b; stroke:none;" d="M380.333 219.667L380.667 220.333L380.333 219.667z"/>
<path style="fill:#6c4b30; stroke:none;" d="M217 220L218 221L217 220z"/>
<path style="fill:#3b2a1b; stroke:none;" d="M320 220L320 227L321 227L320 220z"/>
<path style="fill:#6c4b30; stroke:none;" d="M403.333 220.667L403.667 221.333L403.333 220.667z"/>
<path style="fill:#3b2a1b; stroke:none;" d="M217 221L219 226L220 226L217 221z"/>
<path style="fill:#6c4b30; stroke:none;" d="M321 221L321 226L322 226L321 221M353 221L353 225L354 225L353 221M218 222L219 223L218 222z"/>
<path style="fill:#3b2a1b; stroke:none;" d="M404 222L405 223L404 222z"/>
<path style="fill:#6c4b30; stroke:none;" d="M404 223L405 224L404 223M219 224L220 225L219 224z"/>
<path style="fill:#3b2a1b; stroke:none;" d="M405 224L409 228L405 224M380 225L380 228L381 228L380 225z"/>
<path style="fill:#6c4b30; stroke:none;" d="M405 225L406 226L405 225M220 226L221 227L220 226M240 226L240 227L245 227L240 226M406 226L407 227L406 226z"/>
<path style="fill:#3b2a1b; stroke:none;" d="M220 227L221 228L220 227z"/>
<path style="fill:#6c4b30; stroke:none;" d="M235.667 227.333L236.333 227.667L235.667 227.333z"/>
<path style="fill:#3b2a1b; stroke:none;" d="M237 227L237 228L247 228L237 227z"/>
<path style="fill:#6c4b30; stroke:none;" d="M247 227L247 228L251 228L247 227M320.333 227.667L320.667 228.333L320.333 227.667M407 227L408 228L407 227z"/>
<path style="fill:#3b2a1b; stroke:none;" d="M221 228L222 229L221 228z"/>
<path style="fill:#6c4b30; stroke:none;" d="M231 228L232 229L231 228z"/>
<path style="fill:#3b2a1b; stroke:none;" d="M232.667 228.333L233.333 228.667L232.667 228.333M251 228L251 229L254 229L251 228z"/>
<path style="fill:#6c4b30; stroke:none;" d="M254.667 228.333L255.333 228.667L254.667 228.333M354.333 228.667L354.667 229.333L354.333 228.667M380.333 228.667L380.667 229.333L380.333 228.667M409 228L409 229L414 231L414 230L409 228z"/>
<path style="fill:#3b2a1b; stroke:none;" d="M410 228L411 229L410 228M222 229L223 230L222 229z"/>
<path style="fill:#6c4b30; stroke:none;" d="M227 229L228 230L227 229z"/>
<path style="fill:#3b2a1b; stroke:none;" d="M228 229L228 230L231 230L228 229M256 229L256 230L266 233L266 232L256 229z"/>
<path style="fill:#6c4b30; stroke:none;" d="M259 229L260 230L259 229M294 229L296 234L297 234L294 229z"/>
<path style="fill:#3b2a1b; stroke:none;" d="M319.333 229.667L319.667 230.333L319.333 229.667M355.333 229.667L355.667 230.333L355.333 229.667M412 229L413 230L412 229M223 230L224 231L223 230z"/>
<path style="fill:#6c4b30; stroke:none;" d="M224 230L225 231L224 230z"/>
<path style="fill:#3b2a1b; stroke:none;" d="M225 230L225 231L228 231L225 230z"/>
<path style="fill:#6c4b30; stroke:none;" d="M262 230L263 231L262 230z"/>
<path style="fill:#3b2a1b; stroke:none;" d="M295 230L296 231L295 230M379 230L380 231L379 230M414 230L414 231L420 232L420 231L414 230z"/>
<path style="fill:#6c4b30; stroke:none;" d="M264 231L265 232L264 231M319 231L320 232L319 231M355 231L360 238L355 231M379 231L380 232L379 231M415.667 231.333L416.333 231.667L415.667 231.333z"/>
<path style="fill:#3b2a1b; stroke:none;" d="M296 232L297 233L296 232M318 232L319 233L318 232M356 232L357 233L356 232M378 232L379 233L378 232z"/>
<path style="fill:#6c4b30; stroke:none;" d="M419.667 232.333L420.333 232.667L419.667 232.333z"/>
<path style="fill:#3b2a1b; stroke:none;" d="M421 232L421 233L424 233L421 232M266 233L267 234L266 233z"/>
<path style="fill:#6c4b30; stroke:none;" d="M267 233L268 234L267 233M318 233L319 234L318 233M378 233L379 234L378 233M424 233L425 234L424 233z"/>
<path style="fill:#3b2a1b; stroke:none;" d="M425 233L425 234L440 238L425 233z"/>
<path style="fill:#6c4b30; stroke:none;" d="M268 234L272 238L268 234z"/>
<path style="fill:#3b2a1b; stroke:none;" d="M297 234L302 239L297 234M317 234L318 235L317 234M357 234L358 235L357 234M377 234L374 238L377 234z"/>
<path style="fill:#6c4b30; stroke:none;" d="M426 234C431.226 243.051 438.898 250.474 443.511 260C458.61 291.18 448.975 317.468 432 345C491.44 330.881 486.141 242.105 426 234z"/>
<path style="fill:#3b2a1b; stroke:none;" d="M268 235L269 236L268 235z"/>
<path style="fill:#6c4b30; stroke:none;" d="M297 235L298 236L297 235z"/>
<path style="fill:#3b2a1b; stroke:none;" d="M316 235L314 238L316 235M358 235L359 236L358 235z"/>
<path style="fill:#6c4b30; stroke:none;" d="M377 235L378 236L377 235z"/>
<path style="fill:#ffffff; stroke:none;" d="M691 235.594C676.614 236.114 662.191 238.233 651.004 248.184C630.731 266.219 630.663 306.183 650.04 324.907C663.676 338.083 683.187 338.747 701 337.961C740.789 336.203 761.75 286.764 738.387 255C727.503 240.202 708.69 234.955 691 235.594M814 235.594C799.614 236.114 785.191 238.233 774.004 248.184C753.731 266.219 753.663 306.183 773.04 324.907C786.676 338.083 806.187 338.747 824 337.961C863.789 336.203 884.75 286.764 861.387 255C850.503 240.202 831.69 234.955 814 235.594M1081 235.594C1066.61 236.114 1052.19 238.233 1041 248.184C1020.73 266.219 1020.66 306.183 1040.04 324.907C1053.68 338.083 1073.19 338.747 1091 337.961C1130.79 336.203 1151.75 286.764 1128.39 255C1117.5 240.202 1098.69 234.955 1081 235.594z"/>
<path style="fill:#3b2a1b; stroke:none;" d="M269 236L270 237L269 236z"/>
<path style="fill:#6c4b30; stroke:none;" d="M298 236L299 237L298 236M316 236L317 237L316 236z"/>
<path style="fill:#3b2a1b; stroke:none;" d="M359 236L360 237L359 236z"/>
<path style="fill:#6c4b30; stroke:none;" d="M376 236L377 237L376 236z"/>
<path style="fill:#ffffff; stroke:none;" d="M1250 251L1247 238L1216 238L1216 336L1253 336C1253 317.51 1249.52 295.019 1253.68 277C1255.51 269.068 1263.26 261.373 1272 264.742C1280.21 267.909 1280 276.718 1280 284L1280 336L1318 336L1318 283C1318 271.865 1318.69 260.102 1313.09 250C1301.65 229.326 1261.72 231.329 1250 251z"/>
<path style="fill:#3b2a1b; stroke:none;" d="M270 237L271 238L270 237z"/>
<path style="fill:#6c4b30; stroke:none;" d="M299 237L300 238L299 237M315 237L316 238L315 237z"/>
<path style="fill:#3b2a1b; stroke:none;" d="M360 237L361 238L360 237z"/>
<path style="fill:#6c4b30; stroke:none;" d="M375 237L376 238L375 237z"/>
<path style="fill:#3b2a1b; stroke:none;" d="M271 238L271 248L272 248L271 238z"/>
<path style="fill:#6c4b30; stroke:none;" d="M300 238L301 239L300 238z"/>
<path style="fill:#3b2a1b; stroke:none;" d="M312 238L310 239L310 240L312 238z"/>
<path style="fill:#6c4b30; stroke:none;" d="M313 238L314 239L313 238z"/>
<path style="fill:#3b2a1b; stroke:none;" d="M361 238L362 239L361 238M373 238L374 239L373 238M441 238L442 239L441 238z"/>
<path style="fill:#ffffff; stroke:none;" d="M1156 238L1156 336L1194 336L1194 238L1156 238z"/>
<path style="fill:#6c4b30; stroke:none;" d="M272.333 239.667L272.667 240.333L272.333 239.667M301 239L301 240L306 241L306 240L301 239z"/>
<path style="fill:#3b2a1b; stroke:none;" d="M303.667 239.333L304.333 239.667L303.667 239.333z"/>
<path style="fill:#6c4b30; stroke:none;" d="M312 239L313 240L312 239M361 239L361 240L366 241L366 240L361 239z"/>
<path style="fill:#3b2a1b; stroke:none;" d="M363.667 239.333L364.333 239.667L363.667 239.333M370.667 239.333L371.333 239.667L370.667 239.333z"/>
<path style="fill:#6c4b30; stroke:none;" d="M372 239L373 240L372 239z"/>
<path style="fill:#3b2a1b; stroke:none;" d="M443 239L444 240L443 239z"/>
<path style="fill:#010101; stroke:none;" d="M555 239L555 265C562.101 265 571.474 266.289 577.982 262.825C585.568 258.786 586.03 246.512 578.945 241.742C572.628 237.487 562.215 239 555 239z"/>
<path style="fill:#3b2a1b; stroke:none;" d="M306 240L306 241L309 241L306 240z"/>
<path style="fill:#6c4b30; stroke:none;" d="M309.667 240.333L310.333 240.667L309.667 240.333z"/>
<path style="fill:#3b2a1b; stroke:none;" d="M366 240L366 241L369 241L366 240z"/>
<path style="fill:#6c4b30; stroke:none;" d="M369.667 240.333L370.333 240.667L369.667 240.333z"/>
<path style="fill:#3b2a1b; stroke:none;" d="M444.667 240.333L445.333 240.667L444.667 240.333M446 241L447 242L446 241M447.667 242.333L448.333 242.667L447.667 242.333M449 243L450 244L449 243M450 244L453 246L450 244z"/>
<path style="fill:#6c4b30; stroke:none;" d="M272.333 246.667L272.667 247.333L272.333 246.667z"/>
<path style="fill:#3b2a1b; stroke:none;" d="M453 246L454 247L453 246M239 247L239 248L246 248L239 247M454 247L455 248L454 247M234.667 248.333L235.333 248.667L234.667 248.333z"/>
<path style="fill:#6c4b30; stroke:none;" d="M236.667 248.333L237.333 248.667L236.667 248.333M247.667 248.333L248.333 248.667L247.667 248.333z"/>
<path style="fill:#3b2a1b; stroke:none;" d="M249.667 248.333L250.333 248.667L249.667 248.333z"/>
<path style="fill:#6c4b30; stroke:none;" d="M271 248L268 253L271 248z"/>
<path style="fill:#3b2a1b; stroke:none;" d="M455 248L456 249L455 248M230 249L231 250L230 249z"/>
<path style="fill:#6c4b30; stroke:none;" d="M231.667 249.333L232.333 249.667L231.667 249.333M250.667 249.333L251.333 249.667L250.667 249.333z"/>
<path style="fill:#3b2a1b; stroke:none;" d="M252.667 249.333L253.333 249.667L252.667 249.333M270 249L271 250L270 249M456 249L457 250L456 249M227 250L228 251L227 250z"/>
<path style="fill:#6c4b30; stroke:none;" d="M228.667 250.333L229.333 250.667L228.667 250.333M253 250L253 251L257 252L257 251L253 250z"/>
<path style="fill:#3b2a1b; stroke:none;" d="M255.667 250.333L256.333 250.667L255.667 250.333M269 250L270 251L269 250M457 250L458 251L457 250M223 253L226 252L223 253z"/>
<path style="fill:#6c4b30; stroke:none;" d="M226.667 251.333L227.333 251.667L226.667 251.333z"/>
<path style="fill:#3b2a1b; stroke:none;" d="M257 251L257 252L262 253L262 252L257 251M268 251L269 252L268 251M458 251L459 252L458 251z"/>
<path style="fill:#6c4b30; stroke:none;" d="M224 252L225 253L224 252M258 252L259 253L258 252z"/>
<path style="fill:#3b2a1b; stroke:none;" d="M266.667 252.333L267.333 252.667L266.667 252.333M459 252L460 253L459 252M221 253L222 254L221 253z"/>
<path style="fill:#6c4b30; stroke:none;" d="M222 253L223 254L222 253M262 253L262 254L266 254L262 253z"/>
<path style="fill:#3b2a1b; stroke:none;" d="M460 253L461 254L460 253M219 254L218 256L219 254z"/>
<path style="fill:#6c4b30; stroke:none;" d="M220 254L221 255L220 254z"/>
<path style="fill:#3b2a1b; stroke:none;" d="M461 254L462 255L461 254z"/>
<path style="fill:#6c4b30; stroke:none;" d="M219 255L220 256L219 255z"/>
<path style="fill:#3b2a1b; stroke:none;" d="M462 255L464 258L462 255M216 256L215 258L216 256z"/>
<path style="fill:#6c4b30; stroke:none;" d="M217 256L218 257L217 256M216 257L217 258L216 257M214 258L215 259L214 258z"/>
<path style="fill:#3b2a1b; stroke:none;" d="M464 258L465 259L464 258M212 259L209 263L212 259z"/>
<path style="fill:#6c4b30; stroke:none;" d="M213 259L214 260L213 259z"/>
<path style="fill:#3b2a1b; stroke:none;" d="M465.333 259.667L465.667 260.333L465.333 259.667z"/>
<path style="fill:#6c4b30; stroke:none;" d="M212 260L213 261L212 260M211 261L212 262L211 261z"/>
<path style="fill:#3b2a1b; stroke:none;" d="M466 261L467 262L466 261z"/>
<path style="fill:#6c4b30; stroke:none;" d="M210 262L211 263L210 262z"/>
<path style="fill:#3b2a1b; stroke:none;" d="M467.333 262.667L467.667 263.333L467.333 262.667z"/>
<path style="fill:#010101; stroke:none;" d="M685 262.653C675.166 265.741 674.003 276.268 674 285C673.994 300.719 679.13 317.458 698.999 311.196C708.445 308.219 708.999 298.31 709 290C709.001 274.81 705.503 256.214 685 262.653M808 262.653C798.166 265.741 797.003 276.268 797 285C796.994 300.719 802.13 317.458 821.999 311.196C831.445 308.219 831.999 298.31 832 290C832.001 274.81 828.503 256.214 808 262.653M1075 262.653C1065.17 265.741 1064 276.268 1064 285C1063.99 300.719 1069.13 317.458 1089 311.196C1098.45 308.219 1099 298.31 1099 290C1099 274.81 1095.5 256.214 1075 262.653z"/>
<path style="fill:#3b2a1b; stroke:none;" d="M208 263L209 264L208 263M207 264L205 267L207 264M468.333 264.667L468.667 265.333L468.333 264.667z"/>
<path style="fill:#6c4b30; stroke:none;" d="M207 265L208 266L207 265M206 266L207 267L206 266z"/>
<path style="fill:#3b2a1b; stroke:none;" d="M469.333 266.667L469.667 267.333L469.333 266.667z"/>
<path style="fill:#6c4b30; stroke:none;" d="M205 267L206 268L205 267M204 268L205 269L204 268z"/>
<path style="fill:#3b2a1b; stroke:none;" d="M470.333 268.667L470.667 269.333L470.333 268.667M203 269L204 270L203 269M202 270L203 271L202 270M471.333 270.667L471.667 271.333L471.333 270.667z"/>
<path style="fill:#6c4b30; stroke:none;" d="M202 271L203 272L202 271M360 272L360 273C366.06 271.896 369.293 272.909 373 278C373.148 271.05 365.034 270.805 360 272z"/>
<path style="fill:#3b2a1b; stroke:none;" d="M201 272L202 273L201 272z"/>
<path style="fill:#6c4b30; stroke:none;" d="M307 272L307 273L313 273L307 272z"/>
<path style="fill:#3b2a1b; stroke:none;" d="M362 272L362 273L370 274L362 272M200.333 273.667L200.667 274.333L200.333 273.667z"/>
<path style="fill:#6c4b30; stroke:none;" d="M305 273L301 279L302 279L305 273z"/>
<path style="fill:#3b2a1b; stroke:none;" d="M302 278L308 274L302 278z"/>
<path style="fill:#010101; stroke:none;" d="M308.005 273.782C295.499 278.003 303.738 291.3 311 295.648C323.446 303.101 341.44 304.592 355 299.239C360.727 296.979 368.603 293.344 371.91 287.91C375.308 282.325 373.218 273.725 365.996 273.124C354.918 272.203 346.862 283.984 335 282.557C326.9 281.583 315.647 271.203 308.005 273.782z"/>
<path style="fill:#3b2a1b; stroke:none;" d="M312.667 273.333L313.333 273.667L312.667 273.333z"/>
<path style="fill:#6c4b30; stroke:none;" d="M314 273L315 274L314 273M358 273L359 274L358 273z"/>
<path style="fill:#3b2a1b; stroke:none;" d="M359.667 273.333L360.333 273.667L359.667 273.333M472.333 273.667L472.667 274.333L472.333 273.667M315 274L315 275L321 278L321 277L315 274z"/>
<path style="fill:#6c4b30; stroke:none;" d="M316 274L317 275L316 274M356 274L353 276L353 277L357 275L356 274z"/>
<path style="fill:#3b2a1b; stroke:none;" d="M357.667 274.333L358.333 274.667L357.667 274.333M199 275L200 276L199 275z"/>
<path style="fill:#6c4b30; stroke:none;" d="M318 275L319 276L318 275z"/>
<path style="fill:#3b2a1b; stroke:none;" d="M356 275L357 276L356 275M473 275L473 278L474 278L473 275z"/>
<path style="fill:#6c4b30; stroke:none;" d="M199 276L200 277L199 276M320 276L321 277L320 276z"/>
<path style="fill:#3b2a1b; stroke:none;" d="M354.667 276.333L355.333 276.667L354.667 276.333M372 276L373 277L372 276M198 277L199 278L198 277z"/>
<path style="fill:#6c4b30; stroke:none;" d="M321 277L321 278L324 279L321 277M351 277L350 279L351 277z"/>
<path style="fill:#3b2a1b; stroke:none;" d="M352.667 277.333L353.333 277.667L352.667 277.333z"/>
<path style="fill:#6c4b30; stroke:none;" d="M198.333 278.667L198.667 279.333L198.333 278.667z"/>
<path style="fill:#3b2a1b; stroke:none;" d="M322 278L323 279L322 278M351 278L352 279L351 278M373 278L373 281L374 281L373 278M197 279L196 283L197 283L197 279M301.333 279.667L301.667 280.333L301.333 279.667M324 279L325 280L324 279z"/>
<path style="fill:#6c4b30; stroke:none;" d="M325.667 279.333L326.333 279.667L325.667 279.333M348 279L349 280L348 279z"/>
<path style="fill:#3b2a1b; stroke:none;" d="M349 279L350 280L349 279z"/>
<path style="fill:#6c4b30; stroke:none;" d="M374 279L372 289L373 289L374 279z"/>
<path style="fill:#3b2a1b; stroke:none;" d="M474 279L474 283L475 283L474 279z"/>
<path style="fill:#6c4b30; stroke:none;" d="M300 280L300 286L301 286L300 280z"/>
<path style="fill:#3b2a1b; stroke:none;" d="M326 280L326 281L332 282L332 281L326 280z"/>
<path style="fill:#6c4b30; stroke:none;" d="M328.667 280.333L329.333 280.667L328.667 280.333M344.667 280.333L345.333 280.667L344.667 280.333z"/>
<path style="fill:#3b2a1b; stroke:none;" d="M346.667 280.333L347.333 280.667L346.667 280.333z"/>
<path style="fill:#6c4b30; stroke:none;" d="M197 281L198 282L197 281M332 281L332 282L342 282L332 281z"/>
<path style="fill:#3b2a1b; stroke:none;" d="M342 281L342 282L346 282L342 281M334 282L334 283L341 283L334 282z"/>
<path style="fill:#6c4b30; stroke:none;" d="M196.333 283.667L196.667 284.333L196.333 283.667z"/>
<path style="fill:#3b2a1b; stroke:none;" d="M195 284L195 287L196 287L195 284M373.333 284.667L373.667 285.333L373.333 284.667M301 285L309 295L301 285M475 286L475 298L476 298L475 286z"/>
<path style="fill:#6c4b30; stroke:none;" d="M195.333 287.667L195.667 288.333L195.333 287.667M301 287L302 288L301 287z"/>
<path style="fill:#3b2a1b; stroke:none;" d="M372 287L373 288L372 287M194 289L194 293L195 293L194 289z"/>
<path style="fill:#6c4b30; stroke:none;" d="M302 289L303 290L302 289M371 289L372 290L371 289M303 290L304 291L303 290M370 290L371 291L370 290M304 291L305 292L304 291z"/>
<path style="fill:#3b2a1b; stroke:none;" d="M366 294L370 292L366 294z"/>
<path style="fill:#6c4b30; stroke:none;" d="M368 292L369 293L368 292M194 293L194 300L195 300L194 293M306 293L307 294L306 293M367 293L368 294L367 293M307 294L308 295L307 294z"/>
<path style="fill:#3b2a1b; stroke:none;" d="M364 294L365 295L364 294z"/>
<path style="fill:#6c4b30; stroke:none;" d="M365 294L366 295L365 294M309 295L311 297L309 295z"/>
<path style="fill:#3b2a1b; stroke:none;" d="M310 295L311 296L310 295M362 295L357 298L357 299L363 296L362 295z"/>
<path style="fill:#6c4b30; stroke:none;" d="M363.667 295.333L364.333 295.667L363.667 295.333z"/>
<path style="fill:#3b2a1b; stroke:none;" d="M311 296L311 297L317 299L317 298L311 296z"/>
<path style="fill:#6c4b30; stroke:none;" d="M362 296L363 297L362 296M312 297L313 298L312 297M360 297L361 298L360 297M314 298L315 299L314 298M358 298L359 299L358 298M316 299L316 300L320 301L320 300L316 299z"/>
<path style="fill:#3b2a1b; stroke:none;" d="M318 299L319 300L318 299M354.667 299.333L355.333 299.667L354.667 299.333z"/>
<path style="fill:#6c4b30; stroke:none;" d="M356 299L357 300L356 299z"/>
<path style="fill:#3b2a1b; stroke:none;" d="M194 300L194 304L195 304L194 300M320 300L320 301L350 302L350 301L320 300M351.667 300.333L352.333 300.667L351.667 300.333z"/>
<path style="fill:#6c4b30; stroke:none;" d="M353.667 300.333L354.333 300.667L353.667 300.333z"/>
<path style="fill:#3b2a1b; stroke:none;" d="M474 300L474 304L475 304L474 300z"/>
<path style="fill:#6c4b30; stroke:none;" d="M321.667 301.333L322.333 301.667L321.667 301.333M350 301L350 302L353 302L350 301M325.667 302.333L326.333 302.667L325.667 302.333M346 302L346 303L349 303L346 302M332 303L332 304L342 304L332 303M195.333 304.667L195.667 305.333L195.333 304.667z"/>
<path style="fill:#3b2a1b; stroke:none;" d="M473 305L473 308L474 308L473 305M195 306L195 309L196 309L195 306z"/>
<path style="fill:#6c4b30; stroke:none;" d="M196.333 308.667L196.667 309.333L196.333 308.667z"/>
<path style="fill:#3b2a1b; stroke:none;" d="M472.333 309.667L472.667 310.333L472.333 309.667M196.333 310.667L196.667 311.333L196.333 310.667z"/>
<path style="fill:#6c4b30; stroke:none;" d="M197.333 311.667L197.667 312.333L197.333 311.667z"/>
<path style="fill:#3b2a1b; stroke:none;" d="M471 311L471 314L472 314L471 311M197 313L198 314L197 313z"/>
<path style="fill:#6c4b30; stroke:none;" d="M198 314L199 315L198 314z"/>
<path style="fill:#3b2a1b; stroke:none;" d="M470.333 314.667L470.667 315.333L470.333 314.667M198 315L200 318L198 315z"/>
<path style="fill:#6c4b30; stroke:none;" d="M199 316L200 317L199 316z"/>
<path style="fill:#3b2a1b; stroke:none;" d="M469.333 316.667L469.667 317.333L469.333 316.667z"/>
<path style="fill:#6c4b30; stroke:none;" d="M200 318L201 319L200 318z"/>
<path style="fill:#3b2a1b; stroke:none;" d="M468 318L469 319L468 318M200 319L201 320L200 319M201 320L203 323L201 320M467 320L468 321L467 320z"/>
<path style="fill:#6c4b30; stroke:none;" d="M202 321L203 322L202 321z"/>
<path style="fill:#3b2a1b; stroke:none;" d="M466.333 321.667L466.667 322.333L466.333 321.667M203 323L204 324L203 323M465 323L466 324L465 323z"/>
<path style="fill:#6c4b30; stroke:none;" d="M204 324L205 325L204 324z"/>
<path style="fill:#3b2a1b; stroke:none;" d="M464 324L465 325L464 324z"/>
<path style="fill:#6c4b30; stroke:none;" d="M205 325L208 328L205 325z"/>
<path style="fill:#3b2a1b; stroke:none;" d="M205 326L206 327L205 326M463 326L464 327L463 326M206 327L207 328L206 327M462 327L463 328L462 327M207 328L208 329L207 328M461 328L462 329L461 328M208 329L209 330L208 329M460 329L461 330L460 329M209 330L213 334L209 330z"/>
<path style="fill:#6c4b30; stroke:none;" d="M210 330L211 331L210 330z"/>
<path style="fill:#3b2a1b; stroke:none;" d="M459 330L460 331L459 330z"/>
<path style="fill:#6c4b30; stroke:none;" d="M211 331L212 332L211 331z"/>
<path style="fill:#3b2a1b; stroke:none;" d="M458 331L459 332L458 331z"/>
<path style="fill:#6c4b30; stroke:none;" d="M212 332L213 333L212 332z"/>
<path style="fill:#3b2a1b; stroke:none;" d="M457 332L458 333L457 332z"/>
<path style="fill:#6c4b30; stroke:none;" d="M213 333L214 334L213 333z"/>
<path style="fill:#3b2a1b; stroke:none;" d="M455.667 333.333L456.333 333.667L455.667 333.333M214 334L215 335L214 334M454 334L455 335L454 334M215 335L215 336L222 340L222 339L215 335z"/>
<path style="fill:#6c4b30; stroke:none;" d="M216 335L217 336L216 335z"/>
<path style="fill:#3b2a1b; stroke:none;" d="M453 335L454 336L453 335z"/>
<path style="fill:#6c4b30; stroke:none;" d="M218 336L219 337L218 336z"/>
<path style="fill:#3b2a1b; stroke:none;" d="M451.667 336.333L452.333 336.667L451.667 336.333z"/>
<path style="fill:#6c4b30; stroke:none;" d="M219 337L220 338L219 337z"/>
<path style="fill:#3b2a1b; stroke:none;" d="M449.667 337.333L450.333 337.667L449.667 337.333z"/>
<path style="fill:#6c4b30; stroke:none;" d="M221 338L222 339L221 338z"/>
<path style="fill:#3b2a1b; stroke:none;" d="M448 338L449 339L448 338z"/>
<path style="fill:#6c4b30; stroke:none;" d="M222 339L223 340L222 339z"/>
<path style="fill:#3b2a1b; stroke:none;" d="M446.667 339.333L447.333 339.667L446.667 339.333M223 340L224 341L223 340z"/>
<path style="fill:#6c4b30; stroke:none;" d="M224 340L225 341L224 340z"/>
<path style="fill:#3b2a1b; stroke:none;" d="M444.667 340.333L445.333 340.667L444.667 340.333M225 341L225 342L231 344L231 343L225 341z"/>
<path style="fill:#6c4b30; stroke:none;" d="M227 341L228 342L227 341z"/>
<path style="fill:#3b2a1b; stroke:none;" d="M439 342L439 343L444 342L439 342z"/>
<path style="fill:#6c4b30; stroke:none;" d="M229 342L230 343L229 342M231.667 343.333L232.333 343.667L231.667 343.333z"/>
<path style="fill:#3b2a1b; stroke:none;" d="M437.667 343.333L438.333 343.667L437.667 343.333M232.667 344.333L233.333 344.667L232.667 344.333M434.667 344.333L435.333 344.667L434.667 344.333M235 345L235 346L246 349L246 348L235 345z"/>
<path style="fill:#6c4b30; stroke:none;" d="M237 345L238 346L237 345M430 345L431 346L430 345z"/>
<path style="fill:#3b2a1b; stroke:none;" d="M431.667 345.333L432.333 345.667L431.667 345.333z"/>
<path style="fill:#6c4b30; stroke:none;" d="M240 346L241 347L240 346M426.667 346.333L427.333 346.667L426.667 346.333z"/>
<path style="fill:#3b2a1b; stroke:none;" d="M428 346L428 347L431 347L428 346z"/>
<path style="fill:#6c4b30; stroke:none;" d="M243.667 347.333L244.333 347.667L243.667 347.333M421 347L421 348L424 348L421 347z"/>
<path style="fill:#3b2a1b; stroke:none;" d="M424 347L424 348L427 348L424 347z"/>
<path style="fill:#6c4b30; stroke:none;" d="M246.667 348.333L247.333 348.667L246.667 348.333M413 349L413 350L420 349L413 349z"/>
<path style="fill:#3b2a1b; stroke:none;" d="M420 348L420 349L423 349L420 348M247.667 349.333L248.333 349.667L247.667 349.333z"/>
<path style="fill:#6c4b30; stroke:none;" d="M249.667 349.333L250.333 349.667L249.667 349.333z"/>
<path style="fill:#3b2a1b; stroke:none;" d="M416.667 349.333L417.333 349.667L416.667 349.333M251 350L251 351L263 353L263 352L251 350z"/>
<path style="fill:#6c4b30; stroke:none;" d="M254 350L255 351L254 350M409.667 350.333L410.333 350.667L409.667 350.333z"/>
<path style="fill:#3b2a1b; stroke:none;" d="M411 350L411 351L414 351L411 350z"/>
<path style="fill:#6c4b30; stroke:none;" d="M258 351L258 352L261 352L258 351M403.667 351.333L404.333 351.667L403.667 351.333z"/>
<path style="fill:#3b2a1b; stroke:none;" d="M405 351L405 352L410 352L405 351z"/>
<path style="fill:#6c4b30; stroke:none;" d="M263 352L263 353L266 353L263 352M397 352L397 353L400 353L397 352z"/>
<path style="fill:#3b2a1b; stroke:none;" d="M400 352L400 353L405 353L400 352M264 353L264 354L268 354L264 353z"/>
<path style="fill:#6c4b30; stroke:none;" d="M268 353L268 354L272 354L268 353M391 353L391 354L395 354L391 353z"/>
<path style="fill:#3b2a1b; stroke:none;" d="M395 353L395 354L400 354L395 353M270 354L270 355L273 355L270 354z"/>
<path style="fill:#6c4b30; stroke:none;" d="M273 354L273 355L277 355L273 354M385 354L385 355L390 355L385 354z"/>
<path style="fill:#3b2a1b; stroke:none;" d="M390 354L390 355L393 355L390 354M276 355L276 356L280 356L276 355z"/>
<path style="fill:#6c4b30; stroke:none;" d="M280 355L280 356L284 356L280 355M378 355L378 356L382 356L378 355z"/>
<path style="fill:#3b2a1b; stroke:none;" d="M382 355L382 356L386 356L382 355M283 356L283 357L299 358L283 356z"/>
<path style="fill:#6c4b30; stroke:none;" d="M288 356L288 357L294 357L288 356M367 356L367 357L373 357L367 356z"/>
<path style="fill:#3b2a1b; stroke:none;" d="M373 356L373 357L379 357L373 356z"/>
<path style="fill:#6c4b30; stroke:none;" d="M299 357L299 358L309 358L299 357M353 357L353 358L362 358L353 357z"/>
<path style="fill:#3b2a1b; stroke:none;" d="M362 357L362 358L373 358L362 357M301 358L301 359L313 359L301 358z"/>
<path style="fill:#6c4b30; stroke:none;" d="M313 358L313 359L349 359C339.44 354.989 323.387 358 313 358z"/>
<path style="fill:#3b2a1b; stroke:none;" d="M349 358L349 359L361 359L349 358M330.667 359.333L331.333 359.667L330.667 359.333z"/>
</svg>
