<?xml version="1.0" standalone="yes"?>
<svg xmlns="http://www.w3.org/2000/svg" width="1536" height="416">
<path style="fill:#010101; stroke:none;" d="M0 0L0 416L1536 416L1536 0L0 0z"/>
<path style="fill:#319868; stroke:none;" d="M150 184C150.25 176.731 159.162 168.288 163.532 162.561C175.709 146.6 187.209 130.088 199.197 113.989C203.683 107.965 208.544 97.279 216 95C203.553 86.6272 179.428 81.1469 165 87.3673C155.577 91.4297 147.505 101.086 140.039 107.946C133.917 113.571 125.059 118.955 121.995 127C114.211 147.432 132.475 174.921 150 184z"/>
<path style="fill:#e3f1ea; stroke:none;" d="M309 163C319.077 159.81 328.88 152.367 338 147.011C354.249 137.468 370.811 128.435 387 118.799C395.58 113.692 408.056 103.024 418 102L419 99C413.597 94.3813 408.958 89.2964 402 86.9553C388.14 82.2916 367.599 86 353 86C341.782 86 330.163 84.4043 320 90.0347C302.036 99.9872 299 118.395 299 137C299 142.026 297.666 149.396 300.028 153.985C301.949 157.718 306.207 159.955 309 163z"/>
<path style="fill:#85bda3; stroke:none;" d="M410 91L411 92L410 91M411 92L412 93L411 92z"/>
<path style="fill:#69b492; stroke:none;" d="M213 93L214 94L213 93M413 93L414 94L413 93z"/>
<path style="fill:#85bda3; stroke:none;" d="M414 94L415 95L414 94z"/>
<path style="fill:#69b492; stroke:none;" d="M170 200L214.499 139L235 110L240 112C234.832 106.9 222.231 94.1328 214.173 95.4267C208.261 96.376 201.854 109.419 198.465 113.989C186.306 130.38 174.525 147.072 162.261 163.385C159.108 167.579 149.529 176.644 149.748 181.949C149.996 187.991 164.908 197.629 170 200z"/>
<path style="fill:#85bda3; stroke:none;" d="M415 95L416 96L415 95M416 96L417 97L416 96z"/>
<path style="fill:#319868; stroke:none;" d="M220 97L221 98L220 97z"/>
<path style="fill:#85bda3; stroke:none;" d="M417 97L417 99L419 99L417 97z"/>
<path style="fill:#319868; stroke:none;" d="M221 98L222 99L221 98z"/>
<path style="fill:#85bda3; stroke:none;" d="M419 99L418 102C407.706 102.216 393.846 114.166 385 119.397C360.591 133.832 336.027 148.68 311 162C316.963 174.522 338.655 187.203 350 195C367.264 182.941 386.61 172.976 405 162.73C411.602 159.051 424.908 154.125 428.972 147.621C431.023 144.34 430 138.702 430 135C430 121.28 428.032 109.768 419 99z"/>
<path style="fill:#319868; stroke:none;" d="M225 100L226 101L225 100z"/>
<path style="fill:#e3f1ea; stroke:none;" d="M420.333 100.667L420.667 101.333L420.333 100.667M421 102L422 103L421 102z"/>
<path style="fill:#69b492; stroke:none;" d="M423 104L424 105L423 104z"/>
<path style="fill:#85bda3; stroke:none;" d="M235 108L236 109L235 108z"/>
<path style="fill:#69b492; stroke:none;" d="M425 108L426 109L425 108z"/>
<path style="fill:#85bda3; stroke:none;" d="M235 110C220.107 132.609 203.058 154.364 186.768 176C183.17 180.778 169.949 193.762 170.907 199.83C171.349 202.632 174.881 204.816 176.831 206.551C181.546 210.745 196.053 226.982 202.7 222.378C210.267 217.137 215.992 205.343 221.475 198C231.378 184.737 240.98 171.247 250.895 158C256.034 151.134 262.893 144.033 266 136L270 137C262.004 127.466 246.845 114.158 235 110z"/>
<path style="fill:#e3f1ea; stroke:none;" d="M426 110L427 111L426 110z"/>
<path style="fill:#69b492; stroke:none;" d="M427 112L428 113L427 112M241 113L242 114L241 113M242 114L243 115L242 114M244 115L245 116L244 115z"/>
<path style="fill:#e3f1ea; stroke:none;" d="M428 116L429 117L428 116z"/>
<path style="fill:#69b492; stroke:none;" d="M251 121L252 122L251 121z"/>
<path style="fill:#e3f1ea; stroke:none;" d="M429 122L430 123L429 122M255 124L256 125L255 124M261 129L262 130L261 129M264 132L265 133L264 132M266 133L267 134L266 133M266 136C253.44 157.832 235.662 177.694 220.735 198C214.805 206.066 208.129 219.549 199 224L199 225L203 226L221 242.919L261.015 275.627L279 288L283 292C282.996 283.543 293.382 273.643 298.265 267C309.103 252.258 320.266 237.74 331.076 223C336.469 215.647 341.16 207.114 348 201C333.786 182.417 309.039 167.994 291 153.08C283.973 147.271 275.274 137.484 266 136z"/>
<path style="fill:#85bda3; stroke:none;" d="M273 139L274 140L273 139M274 140L275 141L274 140M277 142L278 143L277 142z"/>
<path style="fill:#69b492; stroke:none;" d="M121 147L122 148L121 147M429 148L378 177.719L350 195L347 193C352.184 199.368 368.312 214.985 377 215.073C382.047 215.124 387.75 209.827 392 207.424C404.26 200.494 417.539 194.185 429 186L429 192L430 192C430 179.52 433.81 159.463 429 148M299 154L300 155L299 154M300 155L301 156L300 155z"/>
<path style="fill:#319868; stroke:none;" d="M121 159L121 232L122 232C129.904 223.219 144.621 217.554 155 212.056C160.074 209.368 163.149 206.476 169 208L164 205L140 182.961L121 159z"/>
<path style="fill:#85bda3; stroke:none;" d="M307 160L308 161L307 160z"/>
<path style="fill:#e3f1ea; stroke:none;" d="M859 160L859 263L879 263C879 252.883 880.551 247.944 885 239L895.699 261.972L918 263L905.694 233L900.631 219L918 188C911.62 188 901.191 185.982 895.329 188.603C888.971 191.446 881.893 208.563 880 215L879 215L879 160L859 160M1279 160L1279 263L1299 263C1299 252.883 1300.55 247.944 1305 239L1315.7 261.972L1338 263L1325.69 233L1320.63 219L1338 188C1331.62 188 1321.19 185.982 1315.33 188.603C1308.97 191.446 1301.89 208.563 1300 215L1299 215L1299 160L1279 160z"/>
<path style="fill:#85bda3; stroke:none;" d="M301 162L302 163L301 162z"/>
<path style="fill:#e3f1ea; stroke:none;" d="M311 164L312 165L311 164M468 165L468 263L488 263L488 218L489 218L507.281 251L515.379 262.397L534 263L534 165L514 165L514 210L495.15 178L486.621 165.603L468 165M729 165L729 190L750 190L750 263L773 263L773 190L794 190L794 165L729 165M1079 165L1079 263L1100 263L1099 209L1100 209C1100.54 221.648 1104.33 234.548 1106.58 247C1107.3 251.028 1107.22 258.183 1109.99 261.397C1112.35 264.131 1122.64 263.873 1125.69 262.397C1129.47 260.562 1129.3 252.594 1130 249C1132.59 235.64 1136.42 221.607 1137 208L1138 208L1137 263L1159 263L1159 165L1129 165L1120 218C1116.17 205.89 1115.42 192.476 1113 180C1112.31 176.414 1112.48 168.423 1109.4 166.028C1103.91 161.758 1085.89 165 1079 165M1413 165L1409 188L1401 188L1401 208L1408 208C1408 222.082 1403.85 244.193 1410.45 256.999C1414.02 263.918 1432.13 270.324 1437.97 262.436C1440.75 258.68 1439 249.507 1439 245C1422.55 244.806 1428 219.623 1428 208L1439 208L1439 188L1428 188L1428 165L1413 165z"/>
<path style="fill:#69b492; stroke:none;" d="M316 168L317 169L316 168M320 171L321 172L320 171z"/>
<path style="fill:#e3f1ea; stroke:none;" d="M322 173L323 174L322 173z"/>
<path style="fill:#69b492; stroke:none;" d="M324 174L325 175L324 174M326 176L327 177L326 176z"/>
<path style="fill:#85bda3; stroke:none;" d="M321 178L322 179L321 178z"/>
<path style="fill:#69b492; stroke:none;" d="M331 180L332 181L331 180M336 184L337 185L336 184z"/>
<path style="fill:#319868; stroke:none;" d="M151 185L152 186L151 185M152 186L153 187L152 186M428 186L391 207.424L374 215L374 216C387.56 225.272 402.586 236.757 413.424 249.174C418.95 255.504 422.949 267.998 430 272L430 214L428 186z"/>
<path style="fill:#e3f1ea; stroke:none;" d="M601 235C596.033 235 587.839 233.417 583.314 235.603C580.068 237.172 579.988 242.215 576.891 244.396C567.507 251.006 563.285 236.535 563 230L601 230C601 217.005 601.11 201.801 590.957 192.105C581.027 182.623 560.409 183.513 551.529 194.093C545.291 201.526 543.116 212.531 543.004 222C542.847 235.167 543.79 251.232 555.09 260.072C576.036 276.458 600.936 258.314 601 235M814 186.529C800.918 189.548 795.711 202.024 793.754 214C789.785 238.291 798.732 271.686 830 264.471C842.993 261.472 848.303 248.894 850.246 237C854.209 212.745 845.224 179.324 814 186.529M975 235C970.033 235 961.839 233.417 957.314 235.603C954.068 237.172 953.987 242.215 950.891 244.396C941.507 251.006 937.285 236.535 937 230L975 230C975 217.005 975.11 201.801 964.957 192.105C955.027 182.623 934.409 183.513 925.529 194.093C919.291 201.526 917.116 212.531 917.004 222C916.847 235.167 917.79 251.232 929.09 260.072C950.036 276.458 974.936 258.314 975 235M1002 197L1001 197L1000 188L983 188L983 263L1003 263C1003 248.894 1001.64 234.021 1003.17 220C1003.6 216.115 1005.65 208.255 1010.98 208.921C1016.19 209.572 1016.89 217.017 1016.99 221C1017.33 234.982 1017 249.014 1017 263L1037 263C1037 242.947 1042.02 214.767 1034.04 196C1027.92 181.596 1007.9 183.345 1002 197M1169 212L1189 212C1191.61 199.38 1201.92 207.805 1202 217C1192.54 217 1181.63 216.334 1174.19 223.329C1164.21 232.703 1163.57 258.194 1178 263.852C1188.05 267.791 1196.91 262.279 1205 257C1208.12 263.538 1222.8 269.924 1227.97 261.721C1230.53 257.66 1229 249.65 1229 245C1220.41 243.631 1223 232.676 1223 226C1223 213.952 1224.52 198.776 1213.98 190.394C1195.39 175.602 1169.01 190.021 1169 212M1253 195L1252 195L1251 188L1234 188L1234 263L1254 263C1254 245.551 1247.1 212.517 1272 212C1272 205.688 1274.27 194.094 1271.4 188.434C1267.1 179.972 1254.96 189.982 1253 195M1396 235C1391.03 235 1382.84 233.417 1378.31 235.603C1375.07 237.171 1374.99 242.215 1371.89 244.396C1362.51 251.006 1358.28 236.535 1358 230L1396 230C1396 217.005 1396.11 201.801 1385.96 192.105C1376.03 182.623 1355.41 183.513 1346.53 194.093C1340.29 201.526 1338.12 212.531 1338 222C1337.85 235.167 1338.79 251.232 1350.09 260.072C1371.04 276.458 1395.94 258.314 1396 235z"/>
<path style="fill:#319868; stroke:none;" d="M153 187L154 188L153 187M155 188L156 189L155 188z"/>
<path style="fill:#69b492; stroke:none;" d="M333 188L334 189L333 188M341 188L342 189L341 188z"/>
<path style="fill:#e3f1ea; stroke:none;" d="M605 188L617.873 243L623.728 261.972L643 263L650 224L651 224L655.611 252L658.738 261.972L678 263L696 188L676 188L669 229L668 229L662 188L641 188L634 230L628.414 201L625.258 189.028L605 188z"/>
<path style="fill:#319868; stroke:none;" d="M156 189L157 190L156 189M157 190L158 191L157 190z"/>
<path style="fill:#69b492; stroke:none;" d="M149 191L150 192L149 191z"/>
<path style="fill:#319868; stroke:none;" d="M158 191L159 192L158 191z"/>
<path style="fill:#69b492; stroke:none;" d="M344 191L345 192L344 191z"/>
<path style="fill:#85bda3; stroke:none;" d="M343 196L344 197L343 196M167 198L168 199L167 198z"/>
<path style="fill:#69b492; stroke:none;" d="M348 200L349 201L348 200z"/>
<path style="fill:#85bda3; stroke:none;" d="M282 293L314 316L338.845 281L379 227C373.067 219.208 364.588 213.483 357.001 207.4C354.697 205.553 351.186 201.447 347.924 201.712C341.623 202.224 334.5 217.332 331.076 222C319.784 237.398 308.291 252.756 296.769 268C291.293 275.244 282.995 283.767 282 293z"/>
<path style="fill:#69b492; stroke:none;" d="M172 202L173 203L172 202z"/>
<path style="fill:#e3f1ea; stroke:none;" d="M350 202L351 203L350 202z"/>
<path style="fill:#69b492; stroke:none;" d="M173 203L174 204L173 203M164 204L165 205L164 204z"/>
<path style="fill:#e3f1ea; stroke:none;" d="M353 204L354 205L353 204z"/>
<path style="fill:#319868; stroke:none;" d="M175 205L176 206L175 205z"/>
<path style="fill:#e3f1ea; stroke:none;" d="M354 205L355 206L354 205z"/>
<path style="fill:#010101; stroke:none;" d="M563 217L581 217C579.628 201.401 565.904 203.114 563 217M937 217L955 217C953.628 201.401 939.904 203.114 937 217M1358 217L1376 217C1374.63 201.401 1360.9 203.114 1358 217z"/>
<path style="fill:#69b492; stroke:none;" d="M121 268C139.524 261.257 158.065 247.798 175 237.653C180.397 234.419 189.871 231.278 192 225C183.13 220.702 176.136 208.554 166 207.083C160.08 206.224 150.97 213.549 146 216.495C139.36 220.432 126.329 224.482 122.178 231.274C117.29 239.272 121 258.709 121 268M355 206L356 207L355 206z"/>
<path style="fill:#010101; stroke:none;" d="M819.105 206.746C810.495 210.268 811.612 230.915 814.109 237.996C815.724 242.575 819.741 246.361 824.895 244.254C833.599 240.695 832.414 220.158 829.891 213.004C828.277 208.425 824.259 204.638 819.105 206.746z"/>
<path style="fill:#319868; stroke:none;" d="M170 208L171 209L170 208M171 209L172 210L171 209z"/>
<path style="fill:#69b492; stroke:none;" d="M360 210L361 211L360 210z"/>
<path style="fill:#319868; stroke:none;" d="M368 210L369 211L368 210M370 212L371 213L370 212z"/>
<path style="fill:#69b492; stroke:none;" d="M185 213L186 214L185 213M365 214L366 215L365 214z"/>
<path style="fill:#319868; stroke:none;" d="M373 214L374 215L373 214z"/>
<path style="fill:#e3f1ea; stroke:none;" d="M370 218L371 219L370 218z"/>
<path style="fill:#69b492; stroke:none;" d="M371 219L372 220L371 219M375 222L376 223L375 222M376 223L377 224L376 223z"/>
<path style="fill:#85bda3; stroke:none;" d="M189 224L190 225L189 224z"/>
<path style="fill:#69b492; stroke:none;" d="M377 224L377 226L379 226L377 224z"/>
<path style="fill:#85bda3; stroke:none;" d="M192 226C180.076 238.307 158.17 247.417 143 255.421C137.19 258.487 125.647 262.95 122.028 268.529C117.991 274.752 120.997 290.678 121 298C121.003 306.079 123.058 311.976 127 319L155 304L202 276.796L233 260L233 259L192 226M202.333 226.667L202.667 227.333L202.333 226.667z"/>
<path style="fill:#69b492; stroke:none;" d="M379 226C362.882 242.89 350.844 264.501 336.576 283C329.345 292.375 317.121 304.54 314 316L311 315C313.952 320.102 329.137 332.871 335.674 329.868C343.191 326.415 351.028 310.768 355.671 303.996C368.885 284.719 383.456 259.448 401 244L401 243L379 226M193 227L194 228L193 227M194 228L195 229L194 228M195.667 229.333L196.333 229.667L195.667 229.333z"/>
<path style="fill:#85bda3; stroke:none;" d="M206 230L207 231L206 230z"/>
<path style="fill:#69b492; stroke:none;" d="M197 231L198 232L197 231z"/>
<path style="fill:#010101; stroke:none;" d="M1202 231C1199.68 231.019 1197.26 230.917 1195 231.573C1177.46 236.669 1198.19 255.577 1201.72 238.985C1202.27 236.424 1202 233.603 1202 231z"/>
<path style="fill:#319868; stroke:none;" d="M387 232L388 233L387 232z"/>
<path style="fill:#85bda3; stroke:none;" d="M211 234L212 235L211 234M212 235L213 236L212 235z"/>
<path style="fill:#319868; stroke:none;" d="M392 236L393 237L392 236M393 237L394 238L393 237M394 238L395 239L394 238z"/>
<path style="fill:#69b492; stroke:none;" d="M402 238L403 239L402 238M208 239L209 240L208 239z"/>
<path style="fill:#319868; stroke:none;" d="M396 240L399 242L396 240z"/>
<path style="fill:#69b492; stroke:none;" d="M213 243L214 244L213 243z"/>
<path style="fill:#319868; stroke:none;" d="M334 331C346.181 339.182 369.339 343.254 382.985 336.673C391.868 332.389 399.667 323.328 406.999 316.845C416.087 308.81 426.798 301.243 426.981 288C427.166 274.675 419.301 262.907 411.195 253.004C408.783 250.056 403.861 243.427 399.3 245.323C392.272 248.245 385.778 261.989 381.374 268C370.339 283.063 359.479 298.258 348.141 313.09C343.525 319.128 339.95 326.14 334 331z"/>
<path style="fill:#e3f1ea; stroke:none;" d="M218 247L219 248L218 247M219 248L220 249L219 248M231 258L232 259L231 258M128 319C132.156 326.185 139.113 331.668 147 334.392C156.745 337.758 166.857 337 177 337C198.245 337 224.028 341.184 239.844 323.536C253.869 307.887 246.758 291.818 251 274C246.226 270.314 238.007 260.974 231.91 260.517C223.537 259.89 209.091 272 202 276.2C177.485 290.721 152.543 304.526 128 319z"/>
<path style="fill:#69b492; stroke:none;" d="M235 261L236 262L235 261z"/>
<path style="fill:#85bda3; stroke:none;" d="M235.667 262.333L236.333 262.667L235.667 262.333M237 263L238 264L237 263M238 264L239 265L238 264M239 265L240 266L239 265z"/>
<path style="fill:#69b492; stroke:none;" d="M240 265L241 266L240 265z"/>
<path style="fill:#85bda3; stroke:none;" d="M241 266L242 267L241 266M243 268L244 269L243 268M247 271L248 272L247 271M248 272L249 273L248 272M250 275L250 288L251 288L250 275M266 279L267 280L266 279M278 288L279 289L278 288M281 291L282 292L281 291z"/>
<path style="fill:#e3f1ea; stroke:none;" d="M283 293L284 294L283 293z"/>
<path style="fill:#69b492; stroke:none;" d="M288 297L289 298L288 297z"/>
<path style="fill:#e3f1ea; stroke:none;" d="M121 307L122 308L121 307M300 307L301 308L300 307z"/>
<path style="fill:#85bda3; stroke:none;" d="M248 308L249 309L248 308z"/>
<path style="fill:#69b492; stroke:none;" d="M303 309L304 310L303 309z"/>
<path style="fill:#e3f1ea; stroke:none;" d="M123 311L124 312L123 311z"/>
<path style="fill:#69b492; stroke:none;" d="M305 311L306 312L305 311M308 313L309 314L308 313M125 316L126 317L125 316M126 317L127 318L126 317z"/>
<path style="fill:#85bda3; stroke:none;" d="M128 320L129 321L128 320M129 321L130 322L129 321z"/>
<path style="fill:#319868; stroke:none;" d="M329 328L330 329L329 328M330 329L331 330L330 329M332 330L333 331L332 330z"/>
<path style="fill:#85bda3; stroke:none;" d="M141 331L142 332L141 331M151 335L152 336L151 335z"/>
</svg>
